<svg
  width="62"
  height="63"
  viewBox="0 0 62 63"
  fill="none"
  xmlns="http://www.w3.org/2000/svg"
>
<path
    d="M18.3995 0.633057C8.36494 0.633057 0.199463 8.79853 0.199463 18.8331L0.199463 44.0331C0.199463 54.0676 8.36494 62.2331 18.3995 62.2331H43.5995C53.634 62.2331 61.7995 54.0676 61.7995 44.0331V18.8331C61.7995 8.79853 53.634 0.633057 43.5995 0.633057L18.3995 0.633057ZM18.3995 1.97219L43.5995 1.97219C52.1205 1.97219 60.4603 10.312 60.4603 18.8331V44.0331C60.4603 52.5541 52.1205 60.8939 43.5995 60.8939H18.3995C9.87838 60.8939 1.53859 52.0063 1.53859 43.4852L1.53859 18.2852C1.53859 9.76416 9.87838 1.97219 18.3995 1.97219ZM47.7995 11.8331C47.0569 11.8331 46.255 12.1601 45.7299 12.6852C45.2048 13.2103 44.9995 13.8904 44.9995 14.6331C44.9995 15.3757 45.2945 16.0879 45.8196 16.613C46.3447 17.1381 47.0569 17.4331 47.7995 17.4331C48.5421 17.4331 49.2543 17.1381 49.7794 16.613C50.3045 16.0879 50.5995 15.3757 50.5995 14.6331C50.5995 13.8904 50.3045 13.1783 49.7794 12.6532C49.2543 12.1281 48.5421 11.8331 47.7995 11.8331ZM30.9995 16.0331C22.5109 16.0331 15.5995 22.9445 15.5995 31.4331C15.5995 39.9217 22.5109 46.8331 30.9995 46.8331C39.4881 46.8331 46.3995 39.9217 46.3995 31.4331C46.3995 22.9445 39.4881 16.0331 30.9995 16.0331ZM30.9995 17.4331C37.9748 17.4331 43.5995 24.4577 43.5995 31.4331C43.5995 38.4084 37.9748 46.1635 30.9995 46.1635C24.0241 46.1635 18.3995 38.4084 18.3995 31.4331C18.3995 24.4577 24.0241 17.4331 30.9995 17.4331Z"
    fill="#FFE3CA"
  />
</svg>
