<svg width="20" height="20" viewBox="0 0 20 20" fill="none" xmlns="http://www.w3.org/2000/svg">
<path d="M6.30425 0.329468C3.31421 0.329468 0.881104 2.82768 0.881104 5.89772V13.6076C0.881104 16.6777 3.31421 19.1759 6.30425 19.1759H13.8132C16.8032 19.1759 19.2364 16.6777 19.2364 13.6076V5.89772C19.2364 2.82768 16.8032 0.329468 13.8132 0.329468H6.30425ZM6.30425 1.18612H13.8132C16.3523 1.18612 18.402 3.29072 18.402 5.89772V13.6076C18.402 16.2146 16.3523 18.3192 13.8132 18.3192H6.30425C3.76518 18.3192 1.71543 16.2146 1.71543 13.6076V5.89772C1.71543 3.29072 3.76518 1.18612 6.30425 1.18612ZM15.0647 3.75609C14.8434 3.75609 14.6312 3.84634 14.4747 4.007C14.3183 4.16765 14.2304 4.38554 14.2304 4.61274C14.2304 4.83994 14.3183 5.05783 14.4747 5.21849C14.6312 5.37914 14.8434 5.4694 15.0647 5.4694C15.286 5.4694 15.4982 5.37914 15.6547 5.21849C15.8111 5.05783 15.899 4.83994 15.899 4.61274C15.899 4.38554 15.8111 4.16765 15.6547 4.007C15.4982 3.84634 15.286 3.75609 15.0647 3.75609ZM10.0587 5.04107C7.52934 5.04107 5.46992 7.1556 5.46992 9.75267C5.46992 12.3497 7.52934 14.4643 10.0587 14.4643C12.5881 14.4643 14.6475 12.3497 14.6475 9.75267C14.6475 7.1556 12.5881 5.04107 10.0587 5.04107ZM10.0587 5.89772C12.1372 5.89772 13.8132 7.61857 13.8132 9.75267C13.8132 11.8868 12.1372 13.6076 10.0587 13.6076C7.98024 13.6076 6.30425 11.8868 6.30425 9.75267C6.30425 7.61857 7.98024 5.89772 10.0587 5.89772Z" fill="black"/>
</svg>
