<svg width="104" height="129" viewBox="0 0 104 129" fill="none" xmlns="http://www.w3.org/2000/svg">
<path d="M50.6542 20.5764C54.6137 24.9601 56.4213 30.8991 57.8932 36.4967C60.1069 44.913 61.3287 53.5989 62.6325 62.1903C66.0116 84.4549 69.4865 106.659 75.73 128.34C75.8965 128.92 76.7944 128.656 76.6273 128.076C70.0982 105.403 66.6436 82.1719 63.0698 58.9001C61.8219 50.7744 60.5367 42.6155 58.3742 34.6744C56.9464 29.4347 55.0037 23.9981 51.3068 19.9052C50.9006 19.4562 50.2516 20.1313 50.6542 20.5764Z" fill="#05423F"/>
<path d="M51.2149 20.8215C51.9895 18.0064 55.3509 16.234 55.8372 12.942C56.5115 8.88398 54.0936 6.82536 50.7613 5.84183C38.9831 2.53371 30.1959 17.7567 30.4789 27.4947C30.5589 28.489 30.3896 29.5033 30.2015 30.2694C35.0233 24.8763 42.8497 19.4921 50.6975 20.6133" fill="#65A096"/>
<path d="M51.1892 19.7235C46.5023 14.344 42.3239 12.1782 34.3666 12.817C20.9586 14.1446 19.0344 27.5643 20.9084 38.4246C21.9054 44.6017 22.8427 50.0323 21.5817 56.1401C28.393 50.5864 26.4384 38.7308 30.6037 31.389C35.912 22.7032 42.6056 21.9151 51.2692 20.7178" fill="#80BCB3"/>
<path d="M51.1217 20.329C48.8546 20.0632 46.7013 19.0631 44.4713 18.569C42.1602 18.0572 39.7642 17.8944 37.4065 17.792C37.1175 17.7791 37.1305 18.2279 37.4181 18.2405C40.0924 18.3565 42.727 18.6423 45.3423 19.2209C47.2645 19.6473 49.0488 20.5338 51.014 20.7642C51.2973 20.7973 51.4088 20.3623 51.1217 20.329Z" fill="#2C605B"/>
<path d="M41.8168 22.0677C38.5873 21.9646 35.4436 21.2845 32.2628 20.7818C31.9796 20.7363 31.8686 21.1722 32.1549 21.2176C35.3756 21.7271 38.5604 22.4128 41.8284 22.5162C42.1183 22.5254 42.1053 22.0766 41.8168 22.0677Z" fill="#2C605B"/>
<path d="M30.6815 23.9004C31.5202 24.1597 32.396 24.2623 33.2722 24.2671C33.5617 24.2686 33.5501 23.8201 33.2606 23.8187C32.4222 23.8139 31.5923 23.7126 30.7892 23.4653C30.5122 23.379 30.4058 23.8152 30.6815 23.9004Z" fill="#2C605B"/>
<path d="M33.1292 19.3246C34.7256 19.8022 36.3648 20.113 37.9312 20.6903C38.2024 20.7906 38.3076 20.3533 38.0391 20.2544C36.4725 19.6779 34.8336 19.3655 33.2368 18.8894C32.9591 18.806 32.8527 19.2423 33.1292 19.3246Z" fill="#2C605B"/>
<path d="M23.633 20.2757C24.422 20.5203 25.2375 20.6365 26.0504 20.7691C26.334 20.8162 26.4443 20.3801 26.1583 20.3332C25.3455 20.1999 24.5299 20.0844 23.7408 19.8398C23.4636 19.7543 23.3572 20.1905 23.633 20.2757Z" fill="#2C605B"/>
<path d="M26.3206 17.0297C27.0166 17.37 27.7158 17.6256 28.4907 17.7063C28.7779 17.7358 28.7634 17.2866 28.4791 17.2579C27.7897 17.1867 27.1589 16.9412 26.5407 16.6386C26.2814 16.512 26.0605 16.9029 26.3206 17.0297Z" fill="#2C605B"/>
<path d="M30.2002 14.805C30.8505 15.006 31.4994 15.1936 32.1772 15.2712C32.4606 15.3035 32.5721 14.8685 32.2851 14.8353C31.6066 14.7576 30.9585 14.5694 30.308 14.3691C30.0309 14.2836 29.9243 14.7205 30.2002 14.805Z" fill="#2C605B"/>
<path d="M27.2867 19.7051C27.816 19.9617 28.383 20.0697 28.9462 20.2237C29.2255 20.3005 29.3327 19.8645 29.0541 19.7878C28.5306 19.6444 27.9977 19.5518 27.5061 19.3138C27.2466 19.1879 27.0265 19.579 27.2867 19.7051Z" fill="#2C605B"/>
<path d="M29.9163 16.6152C30.3989 16.8425 30.883 17.058 31.3947 17.2116C31.6722 17.2957 31.7788 16.8587 31.5025 16.7757C31.0288 16.6338 30.5826 16.4339 30.1357 16.2238C29.8748 16.1007 29.6539 16.4916 29.9163 16.6152Z" fill="#2C605B"/>
<path d="M21.5547 27.8882C22.5936 28.1577 23.6297 28.0487 24.6854 27.9607C24.9727 27.937 24.9627 27.4881 24.6738 27.5122C23.6599 27.5966 22.6617 27.7112 21.6624 27.4531C21.3812 27.3804 21.2741 27.8165 21.5547 27.8882Z" fill="#2C605B"/>
<path d="M21.5656 25.6975C22.1494 25.7749 22.731 25.7986 23.319 25.756C23.6063 25.7353 23.5963 25.2865 23.3074 25.3075C22.7602 25.3471 22.2169 25.3337 21.6733 25.2623C21.3899 25.2238 21.2789 25.6597 21.5656 25.6975Z" fill="#2C605B"/>
<path d="M26.4373 31.1311C27.9659 30.5681 29.7796 29.906 31.4298 30.0977C31.7131 30.1308 31.8246 29.6958 31.5377 29.6618C29.7922 29.4596 27.9254 30.1055 26.311 30.7005C26.0404 30.8 26.1649 31.2317 26.4373 31.1311Z" fill="#2C605B"/>
<path d="M28.2687 28.1729C28.9372 28.1756 29.6067 28.1309 30.2727 28.2001C30.5597 28.2302 30.5452 27.781 30.2611 27.7516C29.5944 27.6822 28.9257 27.7272 28.2571 27.7244C27.9676 27.7229 27.979 28.1721 28.2687 28.1729Z" fill="#2C605B"/>
<path d="M20.9936 36.5168C22.0775 36.4173 23.1322 36.1586 24.1966 35.9418C24.4806 35.8848 24.3521 35.4537 24.0696 35.511C23.0435 35.7196 22.0267 35.9714 20.9815 36.0674C20.6951 36.0936 20.7041 36.543 20.9936 36.5168Z" fill="#2C605B"/>
<path d="M21.4775 34.7138C22.0336 34.7905 22.5511 34.7027 23.0812 34.5294C23.3562 34.4401 23.2308 34.009 22.9542 34.0986C22.5066 34.2438 22.0574 34.3423 21.5846 34.2777C21.3012 34.2392 21.1904 34.6744 21.4775 34.7138Z" fill="#2C605B"/>
<path d="M23.7134 42.2929C25.0405 42.4479 26.4481 41.9721 27.6298 41.4026C27.8907 41.2767 27.6571 40.8936 27.398 41.0183C26.3381 41.5285 25.0113 41.9958 23.8206 41.8569C23.5373 41.8238 23.4266 42.2589 23.7134 42.2929Z" fill="#2C605B"/>
<path d="M24.9961 40.3869C25.415 40.4142 25.8265 40.3773 26.2345 40.2833C26.5166 40.2181 26.3895 39.7881 26.1075 39.8525C25.7366 39.9372 25.364 39.9629 24.9838 39.9382C24.6957 39.9186 24.7095 40.3676 24.9961 40.3869Z" fill="#2C605B"/>
<path d="M22.51 49.1582C23.2421 49.088 23.94 48.8568 24.6612 48.7307C24.9464 48.681 24.8171 48.2504 24.5342 48.2999C23.8509 48.4192 23.1904 48.6427 22.4977 48.7095C22.2121 48.736 22.2211 49.1854 22.51 49.1582Z" fill="#2C605B"/>
<path d="M23.0742 47.6109C23.4593 47.572 23.8157 47.4776 24.1737 47.3302C24.4388 47.2216 24.3152 46.7893 24.0467 46.8994C23.7259 47.0305 23.409 47.1271 23.0628 47.1617C22.7764 47.191 22.7855 47.6404 23.0742 47.6109Z" fill="#2C605B"/>
<path d="M51.53 18.8318C51.3019 17.3513 52.0986 16.0513 52.6502 14.7291C53.1052 13.6382 53.495 12.5305 53.7985 11.3882C53.8732 11.1083 53.4373 11.0005 53.3626 11.2803C52.9294 12.9093 52.3165 14.4823 51.6104 16.0114C51.1869 16.9282 50.9254 17.8356 51.0813 18.8441C51.1248 19.1262 51.5746 19.1188 51.53 18.8318Z" fill="#2C605B"/>
<path d="M49.7814 15.9035C49.9091 15.2597 50.1124 14.6439 50.3555 14.0357C50.4614 13.7697 50.0715 13.5475 49.9643 13.8155C49.7063 14.4625 49.4815 15.1123 49.3461 15.7965C49.2901 16.0787 49.7256 16.1881 49.7814 15.9035Z" fill="#2C605B"/>
<path d="M47.4914 14.649C47.8748 12.2714 47.7836 9.96367 47.3695 7.59682C47.3198 7.3116 46.8892 7.44096 46.9379 7.72364C47.3392 10.0179 47.4273 12.2354 47.0554 14.5419C47.0099 14.8251 47.4453 14.9352 47.4914 14.649Z" fill="#2C605B"/>
<path d="M44.0516 9.95674C44.2792 10.5635 44.3763 11.1712 44.322 11.8177C44.2978 12.1054 44.7468 12.0917 44.7706 11.8054C44.8282 11.1242 44.7228 10.469 44.4831 9.82992C44.3816 9.56116 43.9499 9.68562 44.0516 9.95674Z" fill="#2C605B"/>
<path d="M40.4489 9.49599C40.6731 10.0727 40.9003 10.6531 40.9624 11.2745C40.9912 11.5599 41.4404 11.5516 41.4111 11.2622C41.3453 10.5998 41.1185 9.9863 40.8795 9.36973C40.7756 9.10116 40.3433 9.2247 40.4489 9.49599Z" fill="#2C605B"/>
<path d="M50.5789 9.43258C50.8027 10.2165 50.7877 10.9283 50.5178 11.698C50.4215 11.9718 50.8581 12.0767 50.9537 11.8059C51.2479 10.9659 51.2533 10.1592 51.0104 9.30579C50.9306 9.02699 50.4998 9.15397 50.5789 9.43258Z" fill="#2C605B"/>
</svg>
