<svg
  width="226"
  height="249"
  viewBox="0 0 226 249"
  fill="none"
  xmlns="http://www.w3.org/2000/svg"
>
<path
    d="M123.647 59.4547C112.582 59.0972 104.326 46.9747 113.875 37.9237C120.158 31.8965 128.193 31.9978 135.493 35.4187C143.063 39.0692 149.992 41.0149 158.485 40.5764C165.981 40.2208 172.897 38.9078 180.353 38.053C179.37 41.3938 174.36 44.5577 172.069 47.2523C169.301 50.2358 166.533 53.219 163.496 55.9722C157.461 61.9802 151.159 67.7573 144.545 72.8083C139.116 77.0112 132.92 81.0243 125.862 80.5931C119.821 80.3302 115.72 76.1484 116.73 70.0474C117.196 66.4973 120.3 61.4801 123.419 59.7228"
    fill="#b3d99a"
  />
<path
    d="M162.809 45.7918C157.317 48.8181 151.741 51.564 145.711 53.3352C140.296 54.925 134.641 55.3941 129.189 56.8004C121.292 58.836 114.909 64.0171 112.045 71.7392C107.121 85.0101 109.179 98.8611 110.717 112.547C114.307 144.49 120.726 176.199 123.601 208.205C123.611 208.323 123.621 208.443 123.631 208.561C123.698 209.36 124.948 209.334 124.881 208.528C123.839 196.099 121.65 183.712 119.876 171.374C117.302 153.462 114.717 135.55 112.557 117.584C110.975 104.418 108.685 90.8343 111.544 77.7119C114.003 66.4333 121.04 59.8667 132.196 57.3603C137.202 56.235 142.261 55.6511 147.202 54.1997C152.916 52.5224 158.262 49.7247 163.453 46.864C164.163 46.4731 163.514 45.4038 162.809 45.7918Z"
    fill="#789058"
  />
<path
    d="M123.441 59.479C123.813 54.037 123.798 48.5725 124.961 43.2179C125.043 42.8406 124.461 42.6955 124.378 43.0738C123.205 48.4812 123.216 53.9975 122.841 59.4954C122.815 59.8804 123.415 59.863 123.441 59.479Z"
    fill="#789058"
  />
<path
    d="M123.955 58.813C127.576 54.7582 129.966 49.862 133.132 45.4772C133.359 45.1636 132.833 44.8735 132.61 45.1831C129.472 49.5265 127.112 54.3785 123.524 58.3951C123.266 58.6827 123.696 59.1012 123.955 58.813Z"
    fill="#789058"
  />
<path
    d="M123.112 59.8559C127.942 63.9708 133.64 66.7501 139.327 69.471C139.674 69.6373 139.969 69.1149 139.62 68.9481C133.981 66.2494 128.321 63.5074 123.529 59.4257C123.236 59.1749 122.816 59.6046 123.112 59.8559Z"
    fill="#789058"
  />
<path
    d="M124.338 60.0266C129.422 60.303 134.488 60.6585 139.577 60.3056C139.961 60.2793 139.948 59.6795 139.561 59.7064C134.472 60.0592 129.406 59.7016 124.323 59.4274C123.937 59.406 123.954 60.0057 124.338 60.0266Z"
    fill="#789058"
  />
<path
    d="M122.933 60.5689C123.874 64.7257 126.317 68.226 129.73 70.7437C130.041 70.9731 130.33 70.4461 130.023 70.2208C126.737 67.7965 124.412 64.3943 123.509 60.3992C123.424 60.0228 122.848 60.1925 122.933 60.5689Z"
    fill="#789058"
  />
<path
    d="M123.682 59.2451C121.242 56.4161 120.041 52.8161 118.614 49.4239C118.466 49.0709 117.888 49.236 118.037 49.5934C119.507 53.0856 120.752 56.7646 123.263 59.6751C123.517 59.9687 123.933 59.5358 123.682 59.2451Z"
    fill="#789058"
  />
<path
    d="M125.709 52.521C126.272 50.9543 126.956 49.4383 127.644 47.9233C127.804 47.5724 127.281 47.2773 127.121 47.6291C126.409 49.194 125.708 50.7592 125.126 52.3769C124.996 52.7412 125.579 52.8815 125.709 52.521Z"
    fill="#789058"
  />
<path
    d="M120.29 42.3122C120.432 44.0916 120.567 45.8722 120.385 47.6545C120.346 48.0383 120.946 48.019 120.984 47.6381C121.168 45.8569 121.032 44.0761 120.889 42.2957C120.858 41.9131 120.259 41.9254 120.29 42.3122Z"
    fill="#789058"
  />
<path
    d="M129.474 66.1993C131.518 67.9691 133.384 69.9277 135.639 71.4397C135.96 71.6562 136.251 71.1307 135.932 70.9168C133.721 69.4333 131.897 67.5035 129.892 65.769C129.601 65.5167 129.181 65.9465 129.474 66.1993Z"
    fill="#789058"
  />
<path
    d="M134.279 62.8537C136.817 63.9813 139.539 64.451 142.223 65.0946C142.599 65.1847 142.743 64.6032 142.367 64.5122C139.737 63.882 137.059 63.4346 134.573 62.3308C134.223 62.1752 133.926 62.6972 134.279 62.8537Z"
    fill="#789058"
  />
<path
    d="M121.066 68.4204C120.051 71.8911 122.762 74.7109 125.859 75.7722C126.226 75.898 126.366 75.3146 126.003 75.1898C123.208 74.2311 120.729 71.7056 121.648 68.5633C121.758 68.1939 121.175 68.0508 121.066 68.4204Z"
    fill="#789058"
  />
<path
    d="M113.54 43.4438C113.174 45.2169 113.001 47.0179 113.459 48.79C113.557 49.1655 114.133 48.9948 114.036 48.6205C113.604 46.9498 113.778 45.2581 114.123 43.5882C114.201 43.2096 113.618 43.0645 113.54 43.4438Z"
    fill="#789058"
  />
<path
    d="M133.808 55.9553C134.96 53.1695 136.39 50.5164 137.666 47.788C137.83 47.4391 137.307 47.144 137.143 47.4939C135.868 50.2225 134.437 52.8763 133.285 55.6612C133.139 56.0154 133.661 56.3115 133.808 55.9553Z"
    fill="#789058"
  />
<path
    d="M139.484 55.5296C141.664 57.5833 144.538 58.511 147.092 59.9857C147.428 60.1791 147.719 59.6558 147.385 59.4628C144.881 58.0149 142.041 57.1143 139.903 55.0996C139.62 54.8339 139.203 55.2642 139.484 55.5296Z"
    fill="#789058"
  />
<path
    d="M145.845 53.4106C146.392 51.2241 147.672 49.33 148.354 47.1892C148.472 46.8198 147.889 46.6785 147.771 47.0451C147.089 49.1868 145.81 51.0748 145.262 53.2665C145.168 53.6419 145.751 53.786 145.845 53.4106Z"
    fill="#789058"
  />
<path
    d="M152.816 52.169C154.662 52.9968 156.469 53.8952 158.22 54.9095C158.555 55.1037 158.848 54.5796 158.513 54.3866C156.762 53.3721 154.956 52.4739 153.109 51.6461C152.759 51.4893 152.464 52.0117 152.816 52.169Z"
    fill="#789058"
  />
<path
    d="M157.633 44.9157C157.249 46.3546 157.178 47.8432 156.984 49.3147C156.933 49.6936 157.516 49.8419 157.566 49.4588C157.761 47.9874 157.831 46.4988 158.215 45.0599C158.315 44.6859 157.733 44.5417 157.633 44.9157Z"
    fill="#789058"
  />
<path
    d="M153.248 44.431C152.892 45.5483 152.76 46.7363 152.215 47.7863C152.037 48.1294 152.56 48.4238 152.738 48.0805C153.31 46.9785 153.457 45.7468 153.83 44.5752C153.947 44.2055 153.363 44.064 153.248 44.431Z"
    fill="#789058"
  />
<path
    d="M143.797 43.351C142.96 45.7728 141.901 48.1139 141.202 50.5833C141.096 50.9559 141.679 51.099 141.784 50.7275C142.483 48.258 143.543 45.9169 144.38 43.4952C144.505 43.1296 143.922 42.9894 143.797 43.351Z"
    fill="#789058"
  />
<path
    d="M128.003 34.0875C127.605 35.1313 127.472 36.2337 127.261 37.3239C127.188 37.7025 127.77 37.8485 127.843 37.4681C128.056 36.3781 128.188 35.2757 128.586 34.2316C128.724 33.8701 128.14 33.7309 128.003 34.0875Z"
    fill="#789058"
  />
<path
    d="M131.294 35.4952C131.01 36.2101 130.783 36.9451 130.5 37.66C130.36 38.0157 130.882 38.3127 131.023 37.9542C131.325 37.1895 131.573 36.404 131.875 35.6391C132.017 35.2808 131.433 35.1403 131.294 35.4952Z"
    fill="#789058"
  />
<path
    d="M147.23 66.6109C147.832 67.0977 148.515 67.3966 149.275 67.5362C149.653 67.6062 149.8 67.0244 149.419 66.9538C148.769 66.8331 148.165 66.5983 147.648 66.1807C147.35 65.9401 146.929 66.3686 147.23 66.6109Z"
    fill="#789058"
  />
<path
    d="M149.975 58.4165C151.719 59.6692 153.826 60.2247 155.571 61.4774C155.884 61.7034 156.174 61.1776 155.864 60.9545C154.12 59.7018 152.012 59.1463 150.268 57.8936C149.954 57.6676 149.665 58.1933 149.975 58.4165Z"
    fill="#789058"
  />
<path
    d="M155.215 57.7753C155.767 58.2346 156.368 58.5781 157.032 58.8515C157.385 58.9987 157.683 58.4758 157.325 58.3287C156.713 58.074 156.146 57.77 155.633 57.3453C155.336 57.0998 154.917 57.5287 155.215 57.7753Z"
    fill="#789058"
  />
<path
    d="M160.916 51.0162C162.058 51.4697 163.217 51.8546 164.42 52.1069C164.798 52.186 164.943 51.6048 164.564 51.5244C163.415 51.2834 162.301 50.9261 161.21 50.4933C160.856 50.3523 160.558 50.874 160.916 51.0162Z"
    fill="#789058"
  />
<path
    d="M165.713 48.2887C166.358 48.5503 167.006 48.8076 167.621 49.1389C167.961 49.3231 168.255 48.7993 167.914 48.616C167.301 48.284 166.653 48.0267 166.006 47.7658C165.654 47.6219 165.356 48.1438 165.713 48.2887Z"
    fill="#789058"
  />
<path
    d="M165.983 40.8116C166.037 41.476 166.09 42.1402 166.144 42.8056C166.175 43.1883 166.775 43.1762 166.743 42.7892C166.69 42.1247 166.637 41.4606 166.583 40.7952C166.552 40.4125 165.951 40.4246 165.983 40.8116Z"
    fill="#789058"
  />
<path
    d="M170.989 40.498C170.88 41.4228 170.776 42.3479 170.695 43.2758C170.662 43.66 171.262 43.6416 171.295 43.2593C171.371 42.386 171.468 41.5138 171.57 40.6429C171.616 40.2627 171.035 40.1147 170.989 40.498Z"
    fill="#789058"
  />
<path
    d="M149.258 40.5726C149.156 41.3251 148.904 42.0405 148.767 42.7854C148.697 43.1647 149.279 43.3108 149.349 42.9296C149.486 42.1847 149.738 41.4693 149.84 40.7167C149.892 40.338 149.31 40.1887 149.258 40.5726Z"
    fill="#789058"
  />
<path
    d="M138.602 40.6879C138.172 41.3994 137.895 42.1861 137.75 43.003C137.682 43.3818 138.264 43.5288 138.332 43.1472C138.47 42.3797 138.721 41.6517 139.126 40.9823C139.325 40.6496 138.801 40.3571 138.602 40.6879Z"
    fill="#789058"
  />
<path
    d="M139.283 50.6062C138.75 51.2623 138.457 52.0313 138.204 52.8301C138.088 53.2 138.671 53.3412 138.787 52.9742C139.005 52.2835 139.251 51.5934 139.714 51.025C139.956 50.7273 139.527 50.307 139.283 50.6062Z"
    fill="#789058"
  />
<path
    d="M131.411 75.7411C132.027 76.4137 132.793 76.8824 133.601 77.2894C133.945 77.4632 134.24 76.9408 133.894 76.7665C133.129 76.3815 132.412 75.9476 131.829 75.3118C131.567 75.0255 131.151 75.4573 131.411 75.7411Z"
    fill="#789058"
  />
<path
    d="M136.787 73.9717C137.202 74.4619 137.743 74.7946 138.4 74.7799C138.786 74.7715 138.772 74.1715 138.384 74.1806C137.883 74.1915 137.516 73.9069 137.205 73.5417C136.954 73.2456 136.539 73.6796 136.787 73.9717Z"
    fill="#789058"
  />
<path
    d="M83.3061 88.3213C100.099 96.322 113.596 78.9917 95.9619 66.5708C71.9884 50.2671 53.4874 68.0413 34.1439 81.3949C26.051 87.0076 15.2916 94.6552 5.00004 94.0705C9.53685 101.86 18.5883 109.297 28.1076 108.503C36.6454 107.896 43.8724 100.411 53.0638 103.242C62.4423 107.055 68.8036 119.077 79.6803 109.371C84.3349 104.413 87.3765 93.655 82.3247 88.5093"
    fill="#b3d99a"
  />
<path
    d="M116.372 201.162C113.123 184.486 108.107 168.252 103.909 151.806C100.16 137.127 98.1793 121.984 93.1726 107.641C87.7681 92.1595 76.3357 77.7394 58.4586 78.6298C49.7665 79.0617 44.344 84.6138 38.3397 90.0953C34.467 93.6308 30.1189 96.7232 24.6828 96.5438C23.8787 96.5165 23.897 95.267 24.705 95.2932C33.1841 95.5734 38.9615 87.3827 44.8912 82.4612C49.5208 78.6194 55.5658 77.2961 61.4516 77.3082C75.352 77.3405 85.5828 88.2945 91.3039 99.8852C98.1082 113.669 99.9996 129.42 103.363 144.251C107.67 163.237 113.86 181.735 117.586 200.863C117.74 201.649 116.526 201.956 116.372 201.162Z"
    fill="#789058"
  />
<path
    d="M81.5915 87.5675C81.7733 81.4651 83.0698 75.4795 83.4759 69.3946C83.502 69.0097 84.1019 69.0184 84.0768 69.4051C83.6693 75.4896 82.3729 81.4752 82.1923 87.578C82.1793 87.9637 81.5794 87.9549 81.5915 87.5675Z"
    fill="#789058"
  />
<path
    d="M80.9218 86.7553C79.5439 79.4924 74.8752 73.1528 69.5521 68.2061C69.2674 67.9416 69.697 67.5218 69.978 67.7839C75.3761 72.8009 80.1073 79.2499 81.5047 86.6131C81.5763 86.9903 80.9936 87.137 80.9218 86.7553Z"
    fill="#789058"
  />
<path
    d="M81.4367 86.4368C73.4733 89.0764 65.0421 90.0145 57.4672 93.7845C57.1221 93.9562 56.8269 93.4338 57.1737 93.2611C64.7924 89.4689 73.2804 88.5094 81.2922 85.854C81.6599 85.7328 81.8021 86.3157 81.4367 86.4368Z"
    fill="#789058"
  />
<path
    d="M79.2014 86.5333C73.442 83.3583 66.379 84.2606 60.052 84.1404C59.6662 84.1331 59.675 83.5332 60.0635 83.5412C66.5039 83.6632 73.6386 82.7826 79.5055 86.0165C79.8452 86.2033 79.5397 86.7196 79.2014 86.5333Z"
    fill="#789058"
  />
<path
    d="M80.9633 86.6128C79.7418 91.8915 75.7407 95.468 70.9153 97.5864C70.5649 97.7405 70.2675 97.2182 70.6219 97.0631C75.3078 95.0045 79.1937 91.5969 80.3856 86.4494C80.4734 86.0723 81.0507 86.2371 80.9633 86.6128Z"
    fill="#789058"
  />
<path
    d="M77.2249 66.8129C77.8449 68.7306 78.4641 70.6488 79.0847 72.5674C79.2037 72.9352 78.6208 73.0774 78.5022 72.7105C77.8822 70.7928 77.263 68.8746 76.6425 66.956C76.5234 66.5882 77.1072 66.4455 77.2249 66.8129Z"
    fill="#789058"
  />
<path
    d="M68.0691 71.397C70.2064 72.6532 72.148 74.2084 73.4293 76.363C73.6273 76.6956 73.1035 76.9882 72.906 76.6564C71.6781 74.591 69.8121 73.1174 67.7646 71.9151C67.4315 71.7178 67.7357 71.201 68.0691 71.397Z"
    fill="#789058"
  />
<path
    d="M89.8176 74.1646C89.7215 76.4552 89.138 78.635 88.1963 80.7198C88.0366 81.073 87.5219 80.7643 87.6787 80.4162C88.5766 78.427 89.1246 76.3393 89.2167 74.1541C89.2339 73.7696 89.8333 73.7774 89.8176 74.1646Z"
    fill="#789058"
  />
<path
    d="M72.343 91.7164C70.9109 92.7773 69.3371 93.5404 67.5901 93.9088C67.2128 93.9885 67.0666 93.4067 67.4461 93.3269C69.1443 92.9675 70.6594 92.2224 72.0501 91.1939C72.3602 90.9638 72.6493 91.4896 72.343 91.7164Z"
    fill="#789058"
  />
<path
    d="M65.1577 86.4828C63.4074 87.0823 61.6559 87.678 59.8953 88.2489C59.528 88.3689 59.3853 87.7851 59.7513 87.667C61.5106 87.0957 63.2634 86.5004 65.0138 85.9008C65.3798 85.7747 65.5212 86.3581 65.1577 86.4828Z"
    fill="#789058"
  />
<path
    d="M79.7961 96.354C80.1181 98.2841 79.2094 99.8001 77.6522 100.885C77.335 101.107 77.0445 100.58 77.3588 100.362C78.6789 99.4406 79.4873 98.1425 79.2132 96.4962C79.1505 96.1186 79.7323 95.9702 79.7961 96.354Z"
    fill="#789058"
  />
<path
    d="M77.4587 107.196C75.3467 110.936 70.7441 109.384 68.2629 106.881C67.9893 106.605 68.417 106.185 68.6888 106.459C70.8789 108.668 75.0232 110.289 76.9415 106.893C77.1323 106.555 77.6496 106.86 77.4587 107.196Z"
    fill="#789058"
  />
<path
    d="M101.257 76.7436C101.814 80.1436 100.244 83.2454 96.5861 83.5459C96.2008 83.5785 96.2144 82.977 96.5971 82.9459C99.8549 82.6774 101.162 79.8647 100.674 76.8859C100.613 76.5087 101.195 76.3602 101.257 76.7436Z"
    fill="#789058"
  />
<path
    d="M12.1933 97.11C13.8079 98.6341 15.5486 99.966 17.6168 100.81C17.9714 100.954 17.8126 101.534 17.4542 101.388C15.2843 100.503 13.4608 99.1314 11.7674 97.5323C11.4848 97.2654 11.9144 96.8457 12.1933 97.11Z"
    fill="#789058"
  />
<path
    d="M63.9736 77.6678C62.0675 76.1615 60.027 74.7776 57.7675 73.8616C57.4128 73.7177 57.5707 73.1385 57.93 73.2844C60.2931 74.2421 62.4078 75.6704 64.3995 77.2455C64.7037 77.4854 64.2722 77.9039 63.9736 77.6678Z"
    fill="#789058"
  />
<path
    d="M56.476 78.2957C54.9851 81.8303 53.5216 85.3954 51.2532 88.5164C51.0275 88.8275 50.5086 88.5257 50.7356 88.2127C52.9745 85.1312 54.4273 81.6226 55.8983 78.1323C56.0469 77.7819 56.6261 77.9398 56.476 78.2957Z"
    fill="#789058"
  />
<path
    d="M46.5923 81.6141C44.5182 81.4196 42.4511 81.1454 40.3703 81.0166C39.9855 80.9927 39.9937 80.3919 40.3813 80.4166C42.4625 80.5441 44.5278 80.8191 46.6028 81.0132C46.9855 81.0497 46.9795 81.6504 46.5923 81.6141Z"
    fill="#789058"
  />
<path
    d="M41.9035 85.8329C42.2461 89.3313 41.725 92.9413 39.9557 96.0141C39.7621 96.3496 39.2453 96.0455 39.4381 95.7104C41.1598 92.7205 41.6351 89.221 41.3026 85.8225C41.2656 85.4374 41.8662 85.4515 41.9035 85.8329Z"
    fill="#789058"
  />
<path
    d="M37.6632 89.9048C35.9106 89.1918 34.0358 88.8661 32.16 88.6877C31.7772 88.6512 31.7846 88.0509 32.1709 88.0876C34.0967 88.2713 36.026 88.594 37.8257 89.3277C38.1804 89.4716 38.0216 90.0513 37.6632 89.9048Z"
    fill="#789058"
  />
<path
    d="M46.7454 91.3465C46.3068 93.1836 45.3176 94.8056 44.6868 96.5739C44.5576 96.9364 43.9796 96.7767 44.1096 96.4114C44.74 94.6444 45.7295 93.0189 46.1682 91.184C46.2582 90.8068 46.8355 90.9715 46.7454 91.3465Z"
    fill="#789058"
  />
<path
    d="M36.8512 95.5213C36.309 96.9385 35.4891 98.2122 34.7741 99.544C34.591 99.8862 34.0742 99.5798 34.2564 99.2403C34.945 97.9554 35.7504 96.7255 36.274 95.3589C36.411 95 36.9903 95.1602 36.8512 95.5213Z"
    fill="#789058"
  />
<path
    d="M48.6285 85.0618C48.6677 85.4834 48.4981 85.9293 48.2825 86.2829C48.0814 86.6135 47.5638 86.3098 47.7653 85.9802C47.9332 85.7049 48.0583 85.378 48.0284 85.0508C47.9932 84.667 48.5929 84.6793 48.6285 85.0618Z"
    fill="#789058"
  />
<path
    d="M50.7265 76.9827C49.5825 76.6599 48.4565 76.3098 47.3813 75.7949C47.0317 75.6274 47.34 75.1118 47.6858 75.2768C48.7134 75.7703 49.7949 76.096 50.889 76.4055C51.262 76.5105 51.0991 77.089 50.7265 76.9827Z"
    fill="#789058"
  />
<path
    d="M61.9737 71.1766C61.0437 70.3521 59.9488 69.8551 58.7375 69.6044C58.3577 69.5262 58.5224 68.9489 58.9 69.0273C60.2144 69.3003 61.3934 69.8614 62.3996 70.7544C62.6908 71.0119 62.2607 71.4308 61.9737 71.1766Z"
    fill="#789058"
  />
<path
    d="M53.4159 93.5027C52.1167 94.8089 51.0092 96.2667 49.4922 97.3397C49.1764 97.5637 48.886 97.0376 49.1987 96.8163C50.6673 95.7775 51.7368 94.3398 52.9946 93.0763C53.2667 92.801 53.6882 93.2297 53.4159 93.5027Z"
    fill="#789058"
  />
<path
    d="M60.6595 98.5214C59.4551 99.0109 58.2693 99.5175 57.1625 100.206C56.8337 100.411 56.5421 99.8863 56.8691 99.6823C57.975 98.9946 59.1617 98.4876 60.3661 97.998C60.7188 97.8542 61.0171 98.3759 60.6595 98.5214Z"
    fill="#789058"
  />
<path
    d="M30.4125 99.3571C29.1156 101.589 27.5927 103.495 25.1551 104.518C24.8026 104.667 24.5057 104.145 24.8616 103.995C27.2075 103.01 28.6476 101.201 29.8957 99.0529C30.0907 98.7177 30.6071 99.0233 30.4125 99.3571Z"
    fill="#789058"
  />
<path
    d="M28.1079 92.1896C27.2299 91.603 26.3337 91.2949 25.2724 91.2709C24.8861 91.2628 24.8957 90.6624 25.2834 90.6709C26.4406 90.6962 27.4516 91.0293 28.4119 91.6706C28.7329 91.8873 28.4301 92.4044 28.1079 92.1896Z"
    fill="#789058"
  />
<path
    d="M24.3247 98.8231C23.7425 99.255 23.0883 99.5644 22.3787 99.718C22.0016 99.7999 21.8563 99.2176 22.2348 99.1361C22.896 98.9924 23.4893 98.7011 24.0312 98.2997C24.3418 98.0706 24.6309 98.5964 24.3247 98.8231Z"
    fill="#789058"
  />
<path
    d="M88.1838 64.218C88.4509 65.7639 88.2691 67.3046 87.748 68.7799C87.6193 69.1433 87.0422 68.983 87.1708 68.6174C87.6569 67.2432 87.8498 65.8062 87.6014 64.3611C87.536 63.9828 88.1182 63.8352 88.1838 64.218Z"
    fill="#789058"
  />
<path
    d="M86.5891 82.7422C86.4517 83.264 86.3556 83.7203 86.0569 84.1813C85.8466 84.5055 85.3281 84.2024 85.5393 83.8776C85.8092 83.4615 85.8873 83.0485 86.0119 82.5797C86.1115 82.2052 86.6878 82.3682 86.5891 82.7422Z"
    fill="#789058"
  />
<path
    d="M143.094 116.187C135.719 112.251 135.351 100.183 145.679 100.677C164.339 101.509 167.373 126.165 163.593 139.906C161.676 147.109 160.661 159.734 157.163 165.808C150.506 161.259 150.761 153.923 150.326 146.865C149.982 142.825 152.326 130.306 147.144 128.218C142.267 126.487 134.114 140.546 133.549 126.79C133.258 122.085 137.5 115.068 142.71 116.825"
    fill="#b3d99a"
  />
<path
    d="M157.568 148.819C158.724 139.375 156.732 127.692 150.049 120.553C145.37 115.556 136.623 115.312 132.655 121.288C129.38 126.219 130.54 134.192 130.209 139.821C129.239 156.347 125.695 172.445 121.653 188.453C119.814 195.743 117.634 202.944 115.71 210.21C114.153 216.097 112.278 222.132 108.251 226.829C107.725 227.442 106.859 226.539 107.379 225.932C112.765 219.651 114.244 210.814 116.283 203.032C118.697 193.824 121.365 184.729 123.476 175.434C125.751 165.42 127.59 155.433 128.547 145.2C129.205 138.151 128.479 130.613 130.271 123.725C132.923 113.535 145.426 113.787 151.58 120.36C158.157 127.384 159.942 139.652 158.816 148.851C158.721 149.643 157.47 149.62 157.568 148.819Z"
    fill="#789058"
  />
<path
    d="M142.671 116.019C143.857 113.532 143.289 110.623 143.959 108.001C144.054 107.626 144.63 107.796 144.535 108.17C143.848 110.858 144.407 113.768 143.185 116.329C143.018 116.679 142.505 116.365 142.671 116.019Z"
    fill="#789058"
  />
<path
    d="M143.064 115.82C145.695 112.81 149.654 111.765 152.775 109.41C153.081 109.18 153.502 109.607 153.194 109.84C150.08 112.188 146.103 113.252 143.482 116.25C143.227 116.542 142.811 116.108 143.064 115.82Z"
    fill="#789058"
  />
<path
    d="M142.83 115.926C142.275 114.032 141.368 112.242 141.11 110.27C141.061 109.891 141.642 109.743 141.693 110.126C141.95 112.099 142.859 113.888 143.412 115.782C143.52 116.154 142.938 116.297 142.83 115.926Z"
    fill="#789058"
  />
<path
    d="M143.548 115.72C145.631 119.107 147.756 122.298 147.756 126.411C147.755 126.797 147.156 126.782 147.156 126.394C147.156 122.397 145.038 119.288 143.026 116.016C142.822 115.684 143.346 115.392 143.548 115.72Z"
    fill="#789058"
  />
<path
    d="M144.046 116.326C142.474 120.077 141.284 123.906 140.606 127.921C140.541 128.301 139.966 128.128 140.029 127.751C140.708 123.738 141.898 119.908 143.469 116.156C143.618 115.804 144.196 115.968 144.046 116.326Z"
    fill="#789058"
  />
<path
    d="M143.262 116.901C142.042 118.282 140.551 119.374 139.307 120.731C137.78 122.396 137.191 124.703 136.353 126.743C136.207 127.097 135.63 126.932 135.777 126.573C136.506 124.797 137.081 122.982 138.097 121.34C139.297 119.399 141.353 118.16 142.844 116.472C143.101 116.18 143.517 116.613 143.262 116.901Z"
    fill="#789058"
  />
<path
    d="M143.626 115.594C149.228 115.874 155.743 116.334 158.776 121.794C158.965 122.133 158.44 122.426 158.254 122.088C155.329 116.825 148.982 116.462 143.611 116.193C143.226 116.174 143.239 115.575 143.626 115.594Z"
    fill="#789058"
  />
<path
    d="M156.478 114.218C154.959 113.981 153.516 114.294 152.019 114.514C151.641 114.57 151.493 113.988 151.875 113.932C153.428 113.703 154.921 113.372 156.494 113.619C156.87 113.678 156.86 114.279 156.478 114.218Z"
    fill="#789058"
  />
<path
    d="M148.623 108.469C147.898 109.24 147.188 110.017 146.629 110.92C146.425 111.249 145.912 110.94 146.116 110.61C146.702 109.665 147.445 108.846 148.205 108.039C148.47 107.756 148.887 108.188 148.623 108.469Z"
    fill="#789058"
  />
<path
    d="M151.466 103.565C150.649 104.144 150.124 105.01 149.732 105.913C149.581 106.262 149.002 106.098 149.156 105.743C149.618 104.68 150.214 103.72 151.172 103.042C151.489 102.819 151.778 103.345 151.466 103.565Z"
    fill="#789058"
  />
<path
    d="M148.154 102.348C147.574 103.169 147.058 104.032 146.795 105.009C146.694 105.383 146.118 105.213 146.218 104.839C146.495 103.815 147.031 102.899 147.64 102.039C147.863 101.724 148.378 102.032 148.154 102.348Z"
    fill="#789058"
  />
<path
    d="M142.941 103.027C142.728 103.815 142.652 104.619 142.587 105.429C142.556 105.812 141.955 105.8 141.987 105.413C142.056 104.552 142.139 103.694 142.364 102.857C142.466 102.484 143.042 102.652 142.941 103.027Z"
    fill="#789058"
  />
<path
    d="M144.389 124.546C144.16 125.386 144.09 126.248 144.02 127.114C143.989 127.496 143.389 127.484 143.421 127.097C143.494 126.182 143.57 125.266 143.812 124.376C143.915 124.003 144.49 124.173 144.389 124.546Z"
    fill="#789058"
  />
<path
    d="M137.78 127.783C137.707 128.56 137.5 129.317 137.427 130.095C137.391 130.477 136.79 130.465 136.828 130.079C136.901 129.301 137.107 128.544 137.18 127.766C137.216 127.384 137.816 127.396 137.78 127.783Z"
    fill="#789058"
  />
<path
    d="M161.5 130.978C159.425 130.003 157.718 128.424 155.355 128.174C154.973 128.133 154.985 127.533 155.37 127.574C157.863 127.838 159.62 129.435 161.809 130.466C162.161 130.63 161.847 131.142 161.5 130.978Z"
    fill="#789058"
  />
<path
    d="M151.977 137.148C152.155 133.071 152.589 129.195 154.099 125.37C154.241 125.013 154.817 125.179 154.676 125.54C153.188 129.305 152.753 133.147 152.576 137.165C152.56 137.551 151.959 137.536 151.977 137.148Z"
    fill="#789058"
  />
<path
    d="M157.875 134.795C155.695 137.182 155.193 140.09 154.933 143.207C154.901 143.59 154.3 143.578 154.333 143.191C154.606 139.91 155.167 136.87 157.458 134.366C157.718 134.079 158.135 134.512 157.875 134.795Z"
    fill="#789058"
  />
<path
    d="M155.144 134.272C154.719 135.279 154.333 136.302 154.059 137.361C153.962 137.736 153.386 137.566 153.482 137.192C153.756 136.133 154.143 135.109 154.567 134.103C154.717 133.75 155.294 133.915 155.144 134.272Z"
    fill="#789058"
  />
<path
    d="M161.04 135.915C160.244 135.145 159.583 134.256 158.721 133.554C158.421 133.308 158.855 132.894 159.152 133.135C160.013 133.838 160.674 134.727 161.471 135.496C161.75 135.766 161.317 136.183 161.04 135.915Z"
    fill="#789058"
  />
<path
    d="M162.928 126.603C161.375 125.97 160.035 124.898 158.423 124.401C158.054 124.287 158.222 123.711 158.593 123.825C160.21 124.323 161.543 125.392 163.098 126.028C163.451 126.173 163.287 126.749 162.928 126.603Z"
    fill="#789058"
  />
<path
    d="M162.503 118.519C161.778 118.011 161.01 117.605 160.161 117.352C159.791 117.243 159.959 116.666 160.33 116.777C161.228 117.044 162.048 117.469 162.812 118.005C163.128 118.226 162.819 118.742 162.503 118.519Z"
    fill="#789058"
  />
<path
    d="M151.365 125.196C151.278 126.277 151.187 127.358 150.932 128.415C150.842 128.792 150.266 128.621 150.356 128.246C150.598 127.238 150.681 126.21 150.764 125.179C150.796 124.797 151.395 124.809 151.365 125.196Z"
    fill="#789058"
  />
<path
    d="M155.986 144.277C154.25 146.617 154.063 149.435 153.535 152.202C153.462 152.582 152.887 152.409 152.958 152.032C153.498 149.211 153.704 146.35 155.471 143.967C155.701 143.659 156.217 143.966 155.986 144.277Z"
    fill="#789058"
  />
<path
    d="M157.917 151.455C156.234 154.058 156.908 157.512 157.382 160.379C157.445 160.758 156.863 160.905 156.8 160.523C156.297 157.486 155.624 153.896 157.402 151.146C157.612 150.821 158.127 151.129 157.917 151.455Z"
    fill="#789058"
  />
<path
    d="M154.484 154.952C154.271 155.984 154.299 157.017 154.868 157.93C155.073 158.259 154.549 158.551 154.345 158.224C153.689 157.172 153.664 155.967 153.909 154.782C153.987 154.404 154.562 154.575 154.484 154.952Z"
    fill="#789058"
  />
</svg>
