<?xml version="1.0" encoding="UTF-8" standalone="no" ?>
<!DOCTYPE svg PUBLIC "-//W3C//DTD SVG 1.1//EN"
  "http://www.w3.org/Graphics/SVG/1.1/DTD/svg11.dtd">
<svg
  width="100%"
  height="100%"
  viewBox="0 0 475 401"
  version="1.1"
  xmlns="http://www.w3.org/2000/svg"
  xmlns:xlink="http://www.w3.org/1999/xlink"
  xml:space="preserve"
  style="fill-rule:evenodd;clip-rule:evenodd;stroke-linejoin:round;stroke-miterlimit:1.41421;"
><path
    d="M474.601,179.867c-1.247,-13.648 -8.176,-36.688 -14.642,-48.528c-10.317,-18.798 -23.822,-28.539 -42.298,-30.506c-12.371,-1.328 -24.28,0.898 -49.244,9.296c-21.814,7.249 -27.691,8.335 -32.974,6.06c-2.935,-1.264 -3.648,-2.039 -3.748,-4.446c-0.195,-4.71 5.737,-8.258 25.926,-15.534c17.295,-6.29 22.826,-9.412 30.306,-17.33c6.024,-6.377 7.838,-9.39 10.048,-16.756c1.472,-4.945 2.105,-13.7 1.209,-16.357c-0.593,-1.667 -7.314,-4.496 -16.267,-6.819c-21.083,-5.435 -37.646,-2.98 -52.92,7.834c-6.923,4.925 -18.284,17.825 -29.281,33.181c-5.449,7.625 -12.303,16.738 -15.302,20.241c-12.837,15.227 -28.047,23.789 -33.338,18.791c-5.672,-5.359 -0.403,-18.585 13.147,-33.038c18.822,-20.033 27.559,-39.334 25.962,-57.638c-0.431,-5.335 -4.332,-17.267 -6.132,-18.967c-1.904,-1.699 -24.378,2.314 -37.821,6.711c-16.651,5.389 -26.627,11.251 -37.556,21.945c-11.431,11.226 -17.467,21.112 -21.728,35.893c-3.99,13.729 -5.066,25.686 -4.328,49.816c0.416,15.075 -0.186,19.535 -3.596,25.767c-3.606,6.55 -8.379,8.98 -13.607,6.756c-3.094,-1.313 -3.312,-1.52 -4.645,-4.589c-2.611,-6.086 -1.644,-13.119 5.651,-41.928c6.478,-25.76 8.858,-40.408 8.459,-52.551c-0.399,-15.966 -3.141,-22.679 -12.95,-31.744c-8.718,-8.035 -20.162,-14.823 -36.906,-21.791l-8.746,-3.636l-2.484,3.285c-19.945,25.811 -27.717,40.594 -30.996,58.816c-1.364,7.562 -0.418,24.043 1.954,33.223c3.396,13.668 10.12,30.479 23.556,58.759c6.77,14.14 8.017,18.938 7.953,30.041c-0.011,9.845 -1.071,15.884 -3.129,18.063c-5.071,5.367 -15.132,1.595 -18.152,-6.79c-0.471,-1.249 -0.701,-6.797 -0.567,-12.402c0.568,-19.175 -1.879,-36.471 -6.766,-49.435c-4.996,-13.067 -8.871,-18.035 -22.243,-28.354c-11.749,-9.088 -23.623,-12.361 -45.218,-12.447c-9.696,-0.007 -18.2,0.909 -19.355,2.132c-0.401,0.425 -0.675,2.681 -0.474,4.982c0.095,2.303 -0.161,13.827 -0.672,25.513c-0.99,25.414 -0.946,32.797 0.367,42.988c1.802,14.373 4.466,23.025 9.636,31.429c2.81,4.565 4.182,6.062 11.905,12.856c9.305,8.287 11.939,9.87 21.123,12.713c4.619,1.448 7.31,1.877 16.567,2.677c13.149,1.159 21.373,6.112 26.926,16.185c3.117,5.66 3.881,6.382 5.387,4.787c1.958,-2.072 -0.173,-9.214 -5.17,-17.254c-2.633,-4.096 -5.327,-7.144 -14.94,-16.527c-15.784,-15.414 -21.997,-23.697 -29.293,-39.137c-6.77,-14.14 -10.495,-31.94 -7.433,-35.181c2.661,-2.817 8.748,-0.083 16.661,7.493c13.913,13.244 26.46,35.254 34.074,59.644c3.805,12.143 6.041,16.769 9.75,20.273c5.182,4.895 9.854,5.085 16.903,0.682c3.064,-1.932 5.236,-3.904 8.582,-7.883c5.141,-6.206 7.523,-10.694 9.77,-18.427c5.37,-18.359 3.543,-42.21 -5.533,-71.501c-2.311,-7.714 -4.901,-17.1 -5.581,-20.86c-3.226,-17.127 -1.608,-37.523 4.001,-50.125c2.109,-4.746 6.765,-10.002 9.156,-10.458c6.975,-1.155 15.681,30.602 16.789,61.115c0.397,10.834 0.167,14.137 -1.906,23.543c-3.03,14.133 -3.951,23.521 -3.292,33.094c0.633,8.946 2.442,14.678 6.123,18.758c3.189,3.617 7.017,4.919 10.786,3.552c3.668,-1.261 11.464,-7.875 19.949,-16.856c18.625,-19.716 26.311,-39.105 28.715,-72.134c0.751,-10.956 1.527,-16.258 3.025,-20.575c3.834,-11.161 20.397,-28.802 32.522,-34.645c6.834,-3.3 7.5,0.146 3.063,14.458c-4.034,12.683 -7.221,19.226 -16.385,33.297c-17.054,26.028 -22.329,37.84 -21.296,47.564c0.492,4.287 1.617,6.154 5.459,9.08c9.463,7.028 25.293,4.585 43.428,-6.745c11.445,-7.089 16.244,-11.405 41.581,-37.351c25.136,-25.733 28.877,-29.038 35.13,-31.177c3.463,-1.153 6.18,-0.095 6.397,2.625c0.697,6.692 -8.017,16.462 -28.838,32.493c-12.95,9.993 -18.319,16.988 -15.964,20.722c1.453,2.177 2.715,2.263 16.62,1.42c49.817,-3.021 88.818,3.552 107.501,18.084c4.983,3.903 4.154,4.125 -3.422,0.89c-12.326,-5.308 -28.471,-9.196 -44.521,-10.781c-9.944,-0.947 -36.604,-0.588 -48.241,0.587c-30.214,3.137 -67.856,11.625 -90.343,20.351c-32.647,12.705 -60.799,30.159 -90.02,55.956c-9.604,8.527 -33.064,34.235 -40.951,44.987c-9.672,13.189 -15.278,22.073 -15.492,24.485c-0.562,5.403 2.332,10.752 6.419,11.998c1.857,0.547 2.368,0.225 5.585,-3.071c3.016,-3.084 3.783,-3.567 5.781,-3.389c1.79,0.182 2.704,0.744 4.416,2.865c3.316,4.138 3.01,6.866 -1.909,18.41c-6.022,14.023 -7.339,18.913 -7.026,26.449c0.261,10.103 5.24,22.752 12.675,32.692c4.106,5.487 14.652,14.646 20.606,17.958c7.024,3.819 15.534,6.83 23.824,8.325c7.975,1.501 24.752,1.661 29.204,0.335l2.483,-0.771l-2.284,-3.264c-8.363,-12.125 -8.607,-26.837 -0.758,-52.408c3.412,-11.26 4.341,-17.925 3.965,-28.235c-0.527,-13.974 -4.543,-27.423 -11.763,-39.775c-2.823,-4.879 -4.59,-7.051 -9.939,-12.205c-3.709,-3.504 -8.651,-7.67 -11.452,-9.512c-4.094,-2.659 -5.344,-3.74 -6.919,-6.334c-3.422,-5.446 -2.581,-11.69 2.28,-17.055c2.607,-2.868 6.347,-3.658 10.648,-2.311c3.026,0.948 4.431,1.974 9.558,6.817c5.782,5.462 6.114,5.876 8.283,11.446c1.233,3.175 4.562,13.964 7.334,23.923c8.756,31.705 16.143,49.343 25.99,61.864c11.783,14.953 31.742,19.829 58.122,13.976c9.503,-2.085 22.172,-6.208 22.183,-7.203c-0.067,-0.365 -0.768,-0.826 -1.669,-1.074c-5.302,-1.489 -7.511,-8.001 -10.241,-29.586c-4.546,-35.069 -9.604,-50.91 -21.345,-66.125c-8.308,-10.764 -17.216,-17.068 -34.115,-23.982c-10.079,-4.191 -17.53,-8.213 -20.689,-11.097c-5.996,-5.563 -7.988,-13.178 -4.474,-16.898c5.472,-5.792 22.541,-6.16 36.497,-0.72c4.473,1.712 5.874,2.633 10.619,7.115c7.145,6.75 8.847,9.866 22.685,41.544c14.36,32.875 22.187,42.18 40.25,48.081c10.094,3.3 20.394,3.979 36.892,2.468c7.829,-0.749 14.298,-1.478 14.448,-1.637c0.151,-0.159 -0.095,-2.303 -0.505,-4.601c-0.464,-2.349 -1.306,-13.804 -2.002,-25.524c-1.473,-27.941 -3.306,-35.506 -11.552,-47.319c-2.284,-3.264 -5.079,-6.206 -10.952,-11.352c-8.919,-7.822 -16.182,-12.371 -30.941,-19.474c-9.949,-4.874 -11.418,-6.161 -12.036,-10.969c-1.573,-12.649 20.786,-11.841 43.514,1.685c3.221,1.836 12.72,8.497 21.046,14.653c21.085,15.594 27.908,19.626 38.685,22.968c15.66,4.838 33.917,2.776 50.128,-5.644c3.588,-1.94 22.556,-13.387 23.209,-14.078c0.251,-0.266 0.18,-3.25 -0.119,-6.649Zm-159.004,54.245c-3.741,0.791 -8.281,-1.286 -13.877,-6.07c-4.619,-3.961 -5.946,-5.616 -12.274,-15.416c-12.984,-19.909 -18.259,-25.797 -28.806,-32.442c-3.174,-1.994 -5.553,-3.737 -5.352,-3.95c1.205,-1.275 10.85,1.299 18.598,4.897c16.351,7.603 42.294,30.402 45.899,40.243c2.251,6.25 0.44,11.881 -4.188,12.738Zm-83.971,37.534c-4.181,0.274 -9.446,-1.582 -14.357,-5.015c-4.266,-3.024 -8.066,-8.726 -14.747,-21.977c-3.265,-6.705 -7.289,-14.026 -8.851,-16.306c-3.523,-5.34 -9.905,-11.368 -14.84,-14.12c-5.313,-3.008 -5.313,-3.008 -0.146,-2.25c16.558,2.468 33.381,11.32 46.132,24.373c9.58,9.854 13.919,17.171 14.764,24.908c0.688,6.483 -1.997,9.981 -7.955,10.387Zm-80.747,53.351c-3.718,1.315 -7.557,1.007 -9.411,-0.745c-2.346,-2.215 -3.468,-7.801 -3.047,-15.349c0.69,-12.421 -1.556,-21.08 -8.758,-33.013c-6.695,-11.051 -5.531,-14.578 3.345,-10.316c13.903,6.698 25.631,24.113 26.365,39.288c0.591,11.721 -2.086,17.942 -8.494,20.135Z"
    style="fill:#12a163;fill-rule:nonzero;"
  /></svg>
