<svg width="171" height="218" viewBox="0 0 171 218" fill="none" xmlns="http://www.w3.org/2000/svg">
<path d="M103.43 50.494C98.1395 56.3516 95.7242 64.2873 93.7575 71.7668C90.7996 83.0127 89.167 94.6188 87.4248 106.099C82.9097 135.849 78.2664 165.518 69.9239 194.489C69.7014 195.263 68.5017 194.911 68.725 194.135C77.4492 163.839 82.0651 132.798 86.8405 101.702C88.508 90.8446 90.2252 79.9428 93.1147 69.3319C95.0226 62.3305 97.6184 55.0661 102.558 49.5972C103.101 48.9973 103.968 49.8994 103.43 50.494Z" fill="#05423F"/>
<path d="M102.681 50.8216C101.646 47.0601 97.1544 44.6917 96.5047 40.293C95.6036 34.8707 98.8344 32.12 103.287 30.8058C119.025 26.3854 130.767 46.7264 130.388 59.7383C130.282 61.0669 130.508 62.4223 130.759 63.4459C124.316 56.2397 113.859 49.0453 103.372 50.5433" fill="#65A096"/>
<path d="M102.715 49.3543C108.978 42.1663 114.561 39.2722 125.194 40.1259C143.11 41.8998 145.681 59.8312 143.177 74.3428C141.844 82.5966 140.592 89.853 142.277 98.0142C133.176 90.5933 135.788 74.752 130.222 64.9418C123.129 53.3359 114.185 52.2827 102.609 50.6829" fill="#80BCB3"/>
<path d="M102.805 50.1634C105.835 49.8082 108.712 48.4719 111.692 47.8117C114.78 47.1278 117.981 46.9103 121.132 46.7735C121.518 46.7562 121.5 47.3559 121.116 47.3727C117.543 47.5277 114.022 47.9097 110.528 48.6828C107.96 49.2525 105.575 50.437 102.949 50.7449C102.571 50.7891 102.422 50.2079 102.805 50.1634Z" fill="#2C605B"/>
<path d="M115.239 52.4866C119.554 52.3489 123.755 51.4401 128.005 50.7684C128.383 50.7076 128.532 51.2901 128.149 51.3508C123.845 52.0316 119.59 52.9478 115.223 53.0859C114.836 53.0983 114.853 52.4985 115.239 52.4866Z" fill="#2C605B"/>
<path d="M130.118 54.9357C128.997 55.282 127.827 55.4192 126.656 55.4256C126.269 55.4276 126.285 54.8284 126.672 54.8264C127.792 54.8201 128.901 54.6847 129.974 54.3542C130.344 54.2389 130.486 54.8218 130.118 54.9357Z" fill="#2C605B"/>
<path d="M126.847 48.8214C124.714 49.4595 122.524 49.8749 120.431 50.6463C120.068 50.7803 119.928 50.1959 120.286 50.0639C122.38 49.2934 124.57 48.8761 126.703 48.2399C127.074 48.1285 127.217 48.7114 126.847 48.8214Z" fill="#2C605B"/>
<path d="M139.536 50.0923C138.482 50.4191 137.392 50.5744 136.306 50.7516C135.927 50.8145 135.78 50.2318 136.162 50.1691C137.248 49.991 138.338 49.8367 139.392 49.5098C139.762 49.3955 139.905 49.9784 139.536 50.0923Z" fill="#2C605B"/>
<path d="M135.945 45.7549C135.015 46.2097 134.081 46.5511 133.045 46.659C132.661 46.6984 132.681 46.0981 133.061 46.0597C133.982 45.9647 134.825 45.6366 135.651 45.2323C135.997 45.0631 136.292 45.5855 135.945 45.7549Z" fill="#2C605B"/>
<path d="M130.761 42.7823C129.892 43.0509 129.025 43.3015 128.119 43.4051C127.74 43.4484 127.591 42.8672 127.975 42.8227C128.882 42.7189 129.748 42.4675 130.617 42.1998C130.987 42.0855 131.13 42.6694 130.761 42.7823Z" fill="#2C605B"/>
<path d="M134.654 49.3298C133.947 49.6727 133.189 49.8169 132.436 50.0228C132.063 50.1254 131.92 49.5428 132.292 49.4403C132.992 49.2487 133.704 49.125 134.361 48.8069C134.707 48.6387 135.002 49.1613 134.654 49.3298Z" fill="#2C605B"/>
<path d="M131.14 45.2011C130.495 45.5049 129.848 45.7927 129.165 45.998C128.794 46.1104 128.651 45.5265 129.021 45.4155C129.654 45.2259 130.25 44.9588 130.847 44.6782C131.196 44.5136 131.491 45.036 131.14 45.2011Z" fill="#2C605B"/>
<path d="M142.313 60.264C140.925 60.6241 139.54 60.4785 138.13 60.3609C137.746 60.3292 137.759 59.7294 138.145 59.7616C139.5 59.8744 140.834 60.0275 142.169 59.6826C142.545 59.5855 142.688 60.1682 142.313 60.264Z" fill="#2C605B"/>
<path d="M142.298 57.3368C141.518 57.4402 140.741 57.4719 139.956 57.415C139.572 57.3874 139.585 56.7876 139.971 56.8157C140.702 56.8686 141.428 56.8507 142.155 56.7554C142.533 56.7039 142.682 57.2863 142.298 57.3368Z" fill="#2C605B"/>
<path d="M135.789 64.5972C133.746 63.8449 131.323 62.9602 129.118 63.2164C128.739 63.2606 128.59 62.6794 128.974 62.634C131.306 62.3637 133.8 63.2268 135.958 64.0218C136.319 64.1548 136.153 64.7317 135.789 64.5972Z" fill="#2C605B"/>
<path d="M133.342 60.6444C132.448 60.6481 131.554 60.5883 130.664 60.6808C130.28 60.7211 130.3 60.1208 130.679 60.0815C131.57 59.9888 132.464 60.0488 133.357 60.0451C133.744 60.0431 133.729 60.6434 133.342 60.6444Z" fill="#2C605B"/>
<path d="M143.063 71.7935C141.614 71.6606 140.205 71.315 138.783 71.0252C138.404 70.9491 138.575 70.373 138.953 70.4496C140.324 70.7284 141.682 71.0648 143.079 71.193C143.462 71.2281 143.45 71.8286 143.063 71.7935Z" fill="#2C605B"/>
<path d="M142.416 69.3844C141.673 69.4869 140.982 69.3696 140.273 69.138C139.906 69.0187 140.073 68.4426 140.443 68.5624C141.041 68.7563 141.641 68.888 142.273 68.8017C142.652 68.7502 142.8 69.3317 142.416 69.3844Z" fill="#2C605B"/>
<path d="M139.429 79.5117C137.655 79.7187 135.775 79.0829 134.195 78.322C133.847 78.1538 134.159 77.6418 134.505 77.8085C135.921 78.4903 137.694 79.1147 139.285 78.929C139.664 78.8848 139.812 79.4662 139.429 79.5117Z" fill="#2C605B"/>
<path d="M137.715 76.9648C137.155 77.0013 136.605 76.952 136.06 76.8263C135.683 76.7393 135.853 76.1646 136.229 76.2507C136.725 76.3639 137.223 76.3983 137.731 76.3653C138.116 76.339 138.098 76.939 137.715 76.9648Z" fill="#2C605B"/>
<path d="M141.036 88.685C140.058 88.5913 139.126 88.2823 138.162 88.1138C137.781 88.0475 137.954 87.4721 138.332 87.5382C139.245 87.6975 140.127 87.9962 141.053 88.0855C141.435 88.1209 141.422 88.7213 141.036 88.685Z" fill="#2C605B"/>
<path d="M140.283 86.6175C139.768 86.5656 139.292 86.4394 138.814 86.2425C138.459 86.0974 138.624 85.5198 138.983 85.6669C139.412 85.842 139.835 85.9711 140.298 86.0173C140.681 86.0565 140.668 86.657 140.283 86.6175Z" fill="#2C605B"/>
<path d="M102.26 48.1629C102.565 46.1847 101.5 44.4476 100.763 42.6809C100.155 41.2233 99.6343 39.7431 99.2288 38.2168C99.129 37.8428 99.7114 37.6987 99.8112 38.0727C100.39 40.2493 101.209 42.3512 102.152 44.3943C102.718 45.6193 103.068 46.8318 102.859 48.1793C102.801 48.5563 102.2 48.5464 102.26 48.1629Z" fill="#2C605B"/>
<path d="M104.596 44.25C104.426 43.3898 104.154 42.567 103.829 41.7542C103.688 41.3988 104.209 41.1019 104.352 41.46C104.697 42.3245 104.997 43.1928 105.178 44.1071C105.253 44.4842 104.671 44.6302 104.596 44.25Z" fill="#2C605B"/>
<path d="M107.656 42.5739C107.144 39.3969 107.266 36.3133 107.819 33.1507C107.886 32.7696 108.461 32.9425 108.396 33.3202C107.86 36.3858 107.742 39.3488 108.239 42.4307C108.3 42.8092 107.718 42.9562 107.656 42.5739Z" fill="#2C605B"/>
<path d="M112.253 36.304C111.948 37.1148 111.819 37.9268 111.891 38.7906C111.924 39.1751 111.324 39.1567 111.292 38.7741C111.215 37.864 111.356 36.9885 111.676 36.1346C111.812 35.7754 112.389 35.9417 112.253 36.304Z" fill="#2C605B"/>
<path d="M117.067 35.6884C116.767 36.4589 116.463 37.2346 116.38 38.0648C116.342 38.4462 115.742 38.4351 115.781 38.0484C115.869 37.1633 116.172 36.3435 116.491 35.5197C116.63 35.1608 117.208 35.3259 117.067 35.6884Z" fill="#2C605B"/>
<path d="M103.531 35.6037C103.232 36.6512 103.252 37.6023 103.613 38.6307C103.741 38.9966 103.158 39.1368 103.03 38.7749C102.637 37.6525 102.63 36.5746 102.954 35.4343C103.061 35.0617 103.637 35.2314 103.531 35.6037Z" fill="#2C605B"/>
<path d="M62.8887 80.3651C70.2634 76.4285 70.6314 64.3605 60.3042 64.855C41.6439 65.6864 38.6097 90.3426 42.3902 104.084C44.307 111.287 45.3216 123.912 48.82 129.985C55.4768 125.436 55.2215 118.101 55.6569 111.043C56.0007 107.002 53.6565 94.4837 58.8389 92.3955C63.7156 90.6644 71.8688 104.724 72.4341 90.9678C72.7249 86.2629 68.4823 79.2461 63.2727 81.003" fill="#59998E"/>
<path d="M48.4145 112.996C47.2583 103.553 49.2505 91.8696 55.9341 84.7312C60.6127 79.7338 69.3594 79.49 73.3279 85.4664C76.6024 90.3964 75.4428 98.3703 75.7734 103.999C76.7436 120.525 80.288 136.623 84.3295 152.631C86.1692 159.921 88.3491 167.121 90.2727 174.388C91.8301 180.275 93.7051 186.31 97.7317 191.007C98.2578 191.62 99.1232 190.717 98.6037 190.11C93.2178 183.829 91.7386 174.992 89.6993 167.21C87.2859 158.002 84.6178 148.907 82.5068 139.612C80.2321 129.597 78.3924 119.611 77.4358 109.378C76.7779 102.329 77.5041 94.7907 75.7113 87.9033C73.0597 77.7129 60.5571 77.9646 54.4028 84.5376C47.8256 91.5622 46.0402 103.83 47.1662 113.029C47.2617 113.821 48.5129 113.798 48.4145 112.996Z" fill="#2C605B"/>
<path d="M63.3115 80.1968C62.1252 77.7099 62.6936 74.8013 62.0241 72.1786C61.9284 71.8037 61.3528 71.9734 61.4475 72.3481C62.1349 75.036 61.5755 77.9458 62.7981 80.5065C62.9648 80.8568 63.4773 80.5427 63.3115 80.1968Z" fill="#2C605B"/>
<path d="M62.9188 79.9976C60.2877 76.9883 56.329 75.9427 53.2073 73.5878C52.9016 73.3576 52.4806 73.785 52.7887 74.0178C55.9029 76.3657 59.8796 77.4302 62.5003 80.4276C62.7556 80.7195 63.172 80.2858 62.9188 79.9976Z" fill="#2C605B"/>
<path d="M63.1532 80.104C63.7075 78.2097 64.6149 76.4203 64.8722 74.4483C64.9217 74.0691 64.3403 73.9211 64.2898 74.3042C64.0323 76.2771 63.1238 78.0663 62.5707 79.9598C62.4622 80.3317 63.0449 80.4748 63.1532 80.104Z" fill="#2C605B"/>
<path d="M62.4345 79.8983C60.3519 83.2852 58.227 86.4762 58.2271 90.5886C58.2273 90.975 58.8265 90.9595 58.8266 90.5721C58.8268 86.5751 60.9448 83.4659 62.9569 80.1934C63.1606 79.8616 62.6362 79.5702 62.4345 79.8983Z" fill="#2C605B"/>
<path d="M61.9366 80.5035C63.5084 84.2549 64.6984 88.0839 65.3768 92.0985C65.4412 92.4791 66.0166 92.3063 65.9534 91.929C65.2747 87.9155 64.085 84.0855 62.5132 80.334C62.3644 79.982 61.7871 80.1461 61.9366 80.5035Z" fill="#2C605B"/>
<path d="M62.7204 81.0786C63.9403 82.4601 65.4318 83.5514 66.676 84.9091C68.2029 86.5736 68.7919 88.8807 69.6293 90.9206C69.7755 91.2751 70.353 91.11 70.2059 90.7512C69.4763 88.9749 68.9015 87.1596 67.8853 85.5174C66.6853 83.5773 64.6297 82.3382 63.1388 80.6495C62.8812 80.3581 62.4661 80.7911 62.7204 81.0786Z" fill="#2C605B"/>
<path d="M62.3567 79.772C56.7543 80.0522 50.2401 80.5117 47.2065 85.9719C47.0177 86.3104 47.5425 86.6041 47.7292 86.266C50.6533 81.0024 57.0004 80.6396 62.3722 80.3712C62.757 80.3521 62.7437 79.7524 62.3567 79.772Z" fill="#2C605B"/>
<path d="M49.5048 78.396C51.0233 78.1589 52.4664 78.4717 53.9633 78.6918C54.3421 78.7474 54.4901 78.1659 54.1075 78.1094C52.555 77.8807 51.0616 77.5503 49.4884 77.7965C49.1131 77.8561 49.123 78.4571 49.5048 78.396Z" fill="#2C605B"/>
<path d="M57.36 72.6469C58.0851 73.4176 58.7942 74.1947 59.3537 75.0976C59.5574 75.4272 60.0709 75.1175 59.8671 74.7879C59.2811 73.8424 58.538 73.0239 57.7776 72.2166C57.5128 71.9337 57.0957 72.3661 57.36 72.6469Z" fill="#2C605B"/>
<path d="M54.5168 67.7432C55.3338 68.3214 55.859 69.188 56.2507 70.0905C56.4021 70.4401 56.9804 70.2763 56.8263 69.9208C56.3652 68.8579 55.7684 67.8974 54.8103 67.2194C54.4935 66.9967 54.2046 67.5228 54.5168 67.7432Z" fill="#2C605B"/>
<path d="M57.8291 66.5263C58.409 67.3467 58.9248 68.2098 59.1878 69.1866C59.2889 69.5609 59.8645 69.3912 59.7644 69.0172C59.4874 67.9926 58.9517 67.0771 58.3426 66.2166C58.1197 65.9018 57.6045 66.2101 57.8291 66.5263Z" fill="#2C605B"/>
<path d="M63.0419 67.2045C63.2548 67.9927 63.3309 68.7966 63.3961 69.607C63.4271 69.9896 64.0276 69.9775 63.9956 69.5905C63.9264 68.7297 63.8441 67.8718 63.6185 67.0351C63.5162 66.6616 62.9409 66.8303 63.0419 67.2045Z" fill="#2C605B"/>
<path d="M61.5937 88.7237C61.8225 89.5643 61.8924 90.4264 61.9626 91.2916C61.9936 91.6742 62.5941 91.6621 62.5621 91.2751C62.4889 90.3597 62.4128 89.4436 62.1703 88.5543C62.0681 88.1808 61.4924 88.3504 61.5937 88.7237Z" fill="#2C605B"/>
<path d="M68.2027 91.9604C68.2761 92.7378 68.4823 93.4945 68.5555 94.2729C68.5918 94.6548 69.1923 94.6427 69.155 94.2564C69.0816 93.479 68.8754 92.7223 68.8022 91.9439C68.7669 91.5623 68.1664 91.5744 68.2027 91.9604Z" fill="#2C605B"/>
<path d="M44.4822 95.1563C46.5572 94.1812 48.2646 92.6021 50.628 92.3516C51.0099 92.3112 50.9978 91.7107 50.6125 91.7523C48.1201 92.0163 46.3631 93.6129 44.1732 94.644C43.8217 94.8074 44.1358 95.3198 44.4822 95.1563Z" fill="#2C605B"/>
<path d="M54.006 101.326C53.8273 97.2486 53.3937 93.3729 51.8833 89.548C51.742 89.1906 51.1652 89.3569 51.3067 89.7175C52.7946 93.4832 53.2293 97.3252 53.4064 101.342C53.4231 101.729 54.0234 101.713 54.006 101.326Z" fill="#2C605B"/>
<path d="M48.1075 98.973C50.288 101.36 50.7901 104.268 51.0497 107.385C51.0817 107.768 51.6822 107.756 51.6492 107.369C51.3764 104.088 50.8152 101.048 48.5249 98.5437C48.2642 98.2567 47.848 98.6894 48.1075 98.973Z" fill="#2C605B"/>
<path d="M50.8391 98.45C51.2638 99.4565 51.6501 100.48 51.9238 101.539C52.0205 101.914 52.5963 101.744 52.5004 101.37C52.2267 100.311 51.8394 99.2868 51.4157 98.2805C51.266 97.9282 50.6886 98.0924 50.8391 98.45Z" fill="#2C605B"/>
<path d="M44.9428 100.093C45.7389 99.3233 46.3999 98.434 47.2619 97.7315C47.5616 97.4863 47.1275 97.0719 46.8309 97.3127C45.9699 98.0154 45.3089 98.9047 44.5118 99.6737C44.2328 99.9436 44.6652 100.361 44.9428 100.093Z" fill="#2C605B"/>
<path d="M43.0545 90.7812C44.6072 90.1476 45.948 89.0754 47.5595 88.579C47.9286 88.4653 47.7611 87.8892 47.3898 88.0033C45.773 88.5005 44.4402 89.5696 42.8848 90.2056C42.5315 90.3509 42.6959 90.9273 43.0545 90.7812Z" fill="#2C605B"/>
<path d="M43.4801 82.6966C44.2044 82.1887 44.9722 81.7833 45.822 81.5301C46.1921 81.4208 46.0238 80.8435 45.6523 80.9545C44.7548 81.2217 43.9346 81.6471 43.1704 82.1832C42.8552 82.4039 43.1632 82.92 43.4801 82.6966Z" fill="#2C605B"/>
<path d="M54.6182 89.374C54.7051 90.4546 54.796 91.5361 55.0505 92.5932C55.1406 92.9699 55.7165 92.7992 55.627 92.4237C55.385 91.4161 55.3016 90.3879 55.2189 89.3568C55.1867 88.9749 54.5872 88.9873 54.6182 89.374Z" fill="#2C605B"/>
<path d="M49.997 108.455C51.7326 110.795 51.9192 113.612 52.4479 116.38C52.5206 116.76 53.096 116.587 53.0245 116.21C52.4845 113.389 52.2788 110.528 50.5114 108.145C50.2817 107.837 49.7659 108.144 49.997 108.455Z" fill="#2C605B"/>
<path d="M48.0659 115.633C49.7489 118.236 49.0744 121.69 48.6007 124.557C48.5378 124.936 49.1195 125.083 49.1831 124.701C49.6855 121.664 50.3585 118.074 48.5803 115.323C48.3702 114.999 47.856 115.307 48.0659 115.633Z" fill="#2C605B"/>
<path d="M51.4984 119.13C51.7118 120.161 51.6837 121.195 51.1147 122.108C50.9096 122.437 51.4339 122.729 51.6373 122.402C52.2933 121.35 52.3186 120.145 52.074 118.96C51.9955 118.582 51.4206 118.753 51.4984 119.13Z" fill="#2C605B"/>
</svg>
