<?xml version="1.0" encoding="UTF-8" standalone="no"?><!DOCTYPE svg PUBLIC "-//W3C//DTD SVG 1.1//EN" "http://www.w3.org/Graphics/SVG/1.1/DTD/svg11.dtd"><svg width="100%" height="100%" viewBox="0 0 271 474" version="1.1" xmlns="http://www.w3.org/2000/svg" xmlns:xlink="http://www.w3.org/1999/xlink" xml:space="preserve" style="fill-rule:evenodd;clip-rule:evenodd;stroke-linejoin:round;stroke-miterlimit:1.41421;"><g><path d="M155.62,3.354c-3.579,14.54 -2.717,29.555 3.055,53.391c0.871,3.738 1.901,7.413 2.249,8.216c0.716,1.771 2.342,3.474 3.123,3.38c2.057,-0.25 4.831,-6.288 5.842,-12.745c0.501,-3.102 0.452,-4.194 -0.439,-10.505c-1.255,-9.308 -0.619,-10.948 1.757,-4.436c0.838,2.432 1.347,4.904 1.952,9.898c0.788,6.493 0.772,6.706 -0.075,8.667c-1.999,4.508 -2.347,5.775 -1.803,6.469c1.328,1.655 4.48,1.146 7.122,-1.16c2.153,-1.866 2.907,-3.562 2.625,-5.893c-0.152,-1.248 0.099,-2.968 0.699,-4.899c1.683,-5.399 1.932,-8.85 1.144,-15.342c-0.979,-8.074 -2.732,-12.887 -7.471,-20.294c-3.97,-6.233 -11.234,-13.461 -17.087,-16.974l-1.848,-1.127l-0.845,3.354Z" style="fill:#12a163;fill-rule:nonzero;"/><path d="M110.02,37.816c0.356,1.899 1.309,5.627 2.095,8.319c0.786,2.692 1.6,6.309 1.818,8.099c0.727,5.993 3.498,13.005 7.796,19.875c3.155,5.022 6.81,9.689 13.236,16.891c12.415,13.909 14.154,15.851 16.44,18.868c1.343,1.78 2.64,3.185 2.928,3.15c1.07,-0.13 1.547,-2.046 1.188,-5.001c-0.434,-3.579 -1.87,-7.501 -6.407,-17.72c-1.903,-4.33 -3.396,-8.034 -3.252,-8.221c0.501,-0.694 2.779,1.226 4.47,3.808c1.019,1.523 3.072,5.709 4.637,9.32c3.795,8.915 7.079,16.033 7.93,17.197c0.846,1.122 0.877,1.034 1.292,-3.113c0.747,-7.608 -0.235,-17.075 -2.613,-24.98c-7.16,-23.921 -27.001,-43.643 -49.511,-49.232l-2.754,-0.68l0.707,3.42Z" style="fill:#12a163;fill-rule:nonzero;"/><path d="M225.719,41.854c-12.822,5.103 -23.769,13.273 -32.033,23.946c-6.098,7.878 -10.488,17.11 -9.812,20.618c0.31,1.525 0.407,1.639 1.657,1.615c1.706,-0.039 4.955,-2.164 7.614,-5.021c2.184,-2.292 4.872,-6.63 4.751,-7.629c-0.116,-0.957 0.701,-0.761 1.12,0.287c0.746,2.021 -2.739,9.074 -9.119,18.421c-3.8,5.487 -4.369,6.654 -4.177,8.235c0.47,3.871 6.807,2.426 10.277,-2.345c0.856,-1.201 1.645,-2.606 1.754,-3.084c0.109,-0.478 1.979,-2.268 4.575,-4.272c14.717,-11.499 25.307,-30.183 28.843,-50.926c0.395,-2.244 0.56,-2.264 -5.45,0.155Z" style="fill:#12a163;fill-rule:nonzero;"/><path d="M102.997,75.917c-2.079,1.097 -4.385,4.459 -5.178,7.554c-0.508,2.004 -0.557,3.319 -0.153,6.649c0.626,5.161 1.593,7.282 5.551,12.038c28.04,33.973 31.839,38.792 38.551,49.042c3.494,5.404 8.108,13.502 9.038,16.007c0.614,1.615 1.246,1.665 0.848,0.109c-0.173,-0.74 -0.798,-4.169 -1.294,-7.572c-2.936,-18.69 -11.336,-37.351 -25.467,-56.457l-1.148,-1.55l2.622,2.005c8.366,6.333 16.162,16.916 26.771,36.238c2.734,4.99 5.126,9.219 5.269,9.37c0.611,0.559 -1.888,-10.751 -3.71,-16.823c-6.323,-21.151 -18.19,-39.138 -32.669,-49.417c-8.31,-5.876 -9.712,-6.761 -11.499,-7.389c-2.533,-0.918 -5.566,-0.803 -7.532,0.196Z" style="fill:#12a163;fill-rule:nonzero;"/><path d="M233.671,84.684c-3.57,0.855 -11.606,3.773 -15.471,5.635c-17.79,8.536 -31.285,22.885 -37.672,40.088c-1.737,4.603 -1.696,4.598 3.13,2.745c4.183,-1.647 9.486,-5.078 17.565,-11.422c8.914,-7.036 13.733,-9.986 18.718,-11.562c2.448,-0.804 2.299,-0.659 -6.76,6.902c-16.491,13.741 -24.477,21.889 -30.439,30.89l-2.858,4.317l1.615,-0.45c0.89,-0.234 7.176,-4.164 13.966,-8.747c12.974,-8.669 14.307,-9.38 22.954,-12.076c18.098,-5.658 34.151,-18.882 42.545,-35.02c2.535,-4.91 4.956,-11.792 4.252,-12.087c-1.099,-0.458 -7.616,-1.188 -11.677,-1.286c-3.773,-0.134 -16.052,1.187 -19.868,2.073Z" style="fill:#12a163;fill-rule:nonzero;"/><path d="M75.683,107.104c0.01,0.083 1.723,4.225 3.83,9.206c6.121,14.672 7.222,16.523 16.851,28.447c23.173,28.609 32.647,43.043 39.355,59.798c0.782,1.974 1.57,3.653 1.755,3.799c0.554,0.44 -2.856,-22.163 -4.192,-27.322c-2.828,-11.271 -6.329,-20.855 -10.889,-29.889c-0.937,-1.871 -1.628,-3.434 -1.555,-3.527c0.247,-0.368 3.924,3.789 5.507,6.173c2.869,4.382 7.234,13.861 12.566,27.193c3.722,9.346 3.671,9.268 3.83,7.137c0.494,-7.281 -1.023,-18.753 -3.479,-26.268c-7.961,-24.331 -26.97,-44.07 -49.963,-51.923c-5.702,-1.926 -13.712,-3.615 -13.616,-2.824Z" style="fill:#12a163;fill-rule:nonzero;"/><path d="M169.729,99.199c0.844,18.31 -1.485,39.709 -6.224,58.106c-9.115,35.313 -23.488,65.817 -43.59,92.455l-5.754,7.624l-0.485,-1.588c-0.235,-0.901 -1.445,-4.681 -2.609,-8.425c-1.975,-6.307 -2.158,-7.129 -2.126,-10.301c0.096,-17.791 -4.797,-34.723 -17.081,-59.248c-1.213,-2.429 -2.37,-4.738 -2.59,-5.176c-0.66,-1.313 1.756,1.054 5.694,5.644c8.122,9.488 15.314,23.355 19.631,37.95c0.715,2.447 1.157,4.716 1.174,6.234c0.019,3.25 1.021,5.662 2.419,5.831c1.526,0.195 3.148,-0.889 4.824,-3.246c2.14,-3.005 3.099,-6.458 2.684,-9.532c-2.405,-17.066 -2.749,-19.22 -4.17,-23.356c-6.052,-17.89 -18.604,-32.922 -36.398,-43.686c-6.756,-4.079 -17.131,-8.395 -24.401,-10.173l-3.479,-0.803l0.288,2.372c0.884,7.284 5.146,21.083 9.566,31.02c3.33,7.494 4.8,9.976 14.791,25.234c12.809,19.562 16.035,25.168 19.824,34.717c0.956,2.376 1.323,3.683 0.994,3.723c-0.74,0.089 -13.001,0.183 -13.135,0.115c-0.046,-0.037 -0.649,-1.906 -1.25,-4.114c-5.05,-17.885 -17.067,-35.389 -32.561,-47.488l-4.197,-3.291l-0.312,1.22c-0.643,2.612 -1.428,8.873 -1.625,12.402c-0.562,12.231 0.919,23.75 5.874,44.982c0.76,3.16 5.104,19.804 5.216,20.382c0.188,0.864 -8.853,14.029 -10.837,16.255c-1.402,1.521 -5.522,12.026 -5.574,11.948c-0.087,-0.032 7.298,-36.667 6.829,-38.13c-1.619,-5.083 -5.974,-13.803 -9.971,-19.907c-5.538,-8.492 -10.789,-14.612 -21.397,-24.981c-0.713,-0.716 -0.781,-0.581 -1.718,2.7c-0.477,1.916 -1.296,4.803 -1.803,6.469c-1.243,4.205 -1.925,10.285 -1.814,16.015c0.149,7.077 1.879,15.145 7.002,32.598c5.087,17.501 6.736,25.24 6.915,32.567c0.173,7.623 0.012,8.36 -2.7,12.152c-2.996,4.207 -5.741,6.694 -12.115,10.93c-10.966,7.327 -14.468,10.455 -13.335,11.88c0.687,0.846 2.002,1.024 5.422,0.652c2.309,-0.238 2.776,-0.168 2.631,0.356c-0.083,0.348 0.076,0.624 0.364,0.59c0.987,-0.12 14.264,-4.223 18.946,-5.889c2.603,-0.907 4.774,-1.593 4.82,-1.556c1.311,2.544 2.595,3.148 11.222,5.1l5.672,1.339l-0.106,1.533c-0.064,0.853 -0.066,1.866 -0.015,2.283c0.06,0.499 -0.166,0.695 -0.593,0.62c-0.339,-0.043 -2.61,-0.527 -5.056,-1.075c-7.677,-1.687 -12.159,-1.819 -23.332,-0.675c-9.816,0.98 -9.898,0.99 -11.587,2.208c-2.152,1.528 -2.954,3.526 -2.6,6.439c0.298,2.456 1.221,3.527 3.215,3.791c0.637,0.092 3.368,-0.45 6.115,-1.206c2.747,-0.756 5.642,-1.318 6.521,-1.298c3.485,0.168 5.008,2.053 5.604,6.964c0.833,6.867 0.073,8.86 -8.207,21.816c-3.198,4.949 -6.623,10.433 -7.66,12.205c-5.764,9.949 -9.07,19.514 -9.313,27.145c-0.289,9.664 6.453,20.502 18.821,30.235c3.921,3.072 12.36,8.636 13.059,8.552c0.206,-0.025 0.171,-0.655 -0.048,-1.43c-1.092,-3.838 0.461,-6.518 9.712,-16.974c10.281,-11.594 14.856,-18.61 17.635,-27.014c2.252,-6.903 2.539,-15.891 0.734,-22.852c-0.494,-2.009 -1.976,-6.306 -3.243,-9.531c-3.124,-7.856 -4.189,-12.161 -4.006,-15.815c0.216,-4.757 1.645,-7.084 4.524,-7.433c6.294,-0.764 17.475,13.632 18.788,24.115c0.298,2.456 -0.121,5.885 -1.151,9.431c-0.653,2.191 -2.265,6.103 -6.186,14.729c-4.965,11.034 -6.518,16.121 -6.706,22.141c-0.216,7.164 4.199,17.059 11.075,24.882c3.2,3.666 13.747,13.874 14.241,13.814c0.164,-0.02 1.473,-1.277 2.797,-2.747c1.366,-1.474 4.441,-4.339 6.826,-6.36c2.384,-2.021 5.979,-5.075 7.983,-6.797c5.938,-5.07 8.642,-9.621 9.587,-16.282c0.266,-1.933 0.143,-4.325 -0.433,-9.069c-0.813,-6.701 -1.964,-11.376 -4.932,-20.011c-2.156,-6.411 -2.256,-7.582 -0.74,-9.539c3.681,-4.755 10.132,-0.089 15.12,11.088c2.906,6.405 3.436,8.705 5.593,23.394c2.533,17.092 3.396,20.07 8.007,27.113c4.775,7.36 11.46,13.264 19.728,17.413c1.956,0.987 6.707,2.987 10.559,4.462c3.848,1.434 7.268,2.793 7.582,2.966c0.821,0.576 3.057,-1.638 6.934,-6.839c10.188,-13.736 13.209,-29.095 8.111,-41.526c-3.994,-9.863 -10.862,-16.589 -27.086,-26.445c-8.701,-5.322 -11.899,-7.594 -13.765,-9.902c-1.528,-1.926 -2.33,-4.405 -1.787,-5.78c0.311,-0.882 0.63,-1.005 2.377,-1.049c2.792,-0.043 7.075,1.887 15.017,6.794c3.609,2.223 7.65,4.562 9.021,5.198l2.522,1.172l15.261,-1.852c12.095,-1.467 15.329,-1.986 15.443,-2.422c0.197,-0.784 -4.474,-10.733 -6.698,-14.264c-8.283,-13.228 -19.512,-19.763 -35.975,-20.933c-3.331,-0.271 -18.943,-0.277 -20.876,-0.043c-0.083,0.01 -1.216,-1.415 -2.476,-3.205c-2.424,-3.464 -6.886,-8.582 -9.359,-10.731c-0.836,-0.701 -1.544,-1.376 -1.554,-1.459c-0.01,-0.083 1.588,0.019 3.567,0.159c14.885,1.234 25.903,-1.538 33.135,-8.328c1.798,-1.697 2.802,-2.367 3.48,-2.281c1.1,0.12 43.298,-3.69 43.479,-3.923c0.51,-0.611 -10.058,-10.647 -15.385,-14.646c-18.4,-13.69 -39.862,-20.968 -63.349,-21.539c-5.947,-0.165 -19.62,1.367 -24.918,2.77c-5.781,1.546 -10.473,3.129 -10.428,3.503c0.026,0.208 0.657,0.596 1.402,0.886l1.356,0.511l-4.024,1.924c-6.783,3.273 -10.423,5.953 -22.24,16.593l-3.801,3.417l-6.844,0.704c-6.597,0.674 -6.931,0.672 -7.993,-0.171c-1.524,-1.208 -2.334,-4.784 -1.385,-6.251c0.387,-0.596 2.951,-2.174 6.172,-3.832c3.021,-1.591 8.374,-4.605 11.916,-6.724c3.541,-2.119 8.559,-4.797 11.127,-5.996c15.911,-7.167 25.816,-16.013 27.197,-24.247c0.385,-2.327 0.762,-3.006 2.741,-5.273c2.752,-3.121 11.033,-14.684 15.211,-21.188c21.862,-34.157 35.409,-74.57 37.873,-113.089c0.793,-12.048 0.739,-20.403 -0.081,-30.946c-0.545,-6.902 -1.04,-8.574 -0.781,-2.65Zm-91.869,133.196c1.36,1.229 2.497,3.033 2.126,3.416c-0.072,0.094 -1.486,0.476 -3.076,0.796l-2.967,0.655l-0.864,-7.116l1.639,0.434c0.863,0.233 2.301,1.073 3.142,1.815Zm-39.479,15.559c0.894,2.89 1.447,6.075 2.305,13.15l1.528,7.791l-2.82,7.358c-1.328,3.16 -3.474,8.53 -4.781,11.856c-1.308,3.326 -2.44,6.04 -2.491,5.962c-0.047,-0.037 0.4,-1.865 1.052,-4.056c1.611,-5.643 2.957,-12.099 3.674,-17.887c1.094,-8.875 1.087,-12.717 0.017,-21.878c-1.095,-9.37 -0.811,-9.784 1.516,-2.296Zm72.445,69.678c1.768,0.461 3.561,0.792 4.018,0.779c0.412,-0.05 2.785,0.929 5.275,2.19c2.496,1.302 5.541,2.664 6.805,3.102c1.222,0.442 2.239,0.91 2.301,1.072c0.055,0.458 -3.431,0.965 -10.46,1.522l-6.617,0.507l-7.146,-2.469l-7.104,-2.474l3.042,-1.763c3.747,-2.144 5.713,-3.143 6.243,-3.249c0.242,-0.072 1.871,0.28 3.643,0.783Zm-23.431,11.584c1.31,0.475 2.414,0.974 2.429,1.099c0.015,0.125 -0.958,0.708 -2.1,1.269c-2.403,1.178 -1.689,1.218 -8.275,-0.77l-1.521,-0.491l2.824,-0.807c4.069,-1.212 3.982,-1.244 6.643,-0.3Zm-46.205,18.614c4.127,7.861 5.796,13.022 6.74,21.143c1.373,11.32 -1.112,21.8 -5.817,24.651c-2.023,1.217 -3.277,1.2 -5.439,-0.1c-2.382,-1.401 -4.164,-4.732 -4.904,-9.119c-0.863,-5.047 -0.51,-6.948 3.266,-17.458c3.776,-10.509 4.338,-13.787 3.277,-19.782c-0.391,-2.191 -0.869,-4.413 -1.105,-4.976c-0.843,-2.136 2.175,2.101 3.982,5.641Zm77.321,0.459c-0.072,0.093 -1.499,-0.663 -3.209,-1.68c-1.669,-1.023 -3.152,-1.898 -3.245,-1.972c-0.087,-0.031 0.032,-0.426 0.316,-0.84c0.423,-0.643 0.777,-0.475 3.348,1.79c1.59,1.411 2.862,2.608 2.79,2.702Zm-9.173,17.287c3.109,0.848 9.181,2.392 13.564,3.423c4.388,1.072 7.584,1.951 7.136,2.048c-0.452,0.055 -1.24,0.446 -1.688,0.88c-1.396,1.225 -0.828,2.804 2.12,6.12c5.8,6.518 16.234,18.893 19.351,22.907c11.401,14.834 18.769,28.088 19.653,35.371c0.333,2.747 -0.345,2.322 -1.258,-0.734c-3.297,-11.003 -13.782,-26.201 -27.585,-39.857c-8.731,-8.654 -21.723,-19.747 -33.301,-28.478c-2.618,-1.963 -4.511,-3.465 -4.167,-3.38c0.298,0.048 3.108,0.848 6.175,1.7Zm-19.78,4.174c3.192,4.976 5.677,15.486 6.097,25.486c0.338,7.941 -0.144,16.699 -1.074,18.67c-2.536,5.587 -7.837,1.12 -8.882,-7.495c-0.414,-3.413 -0.122,-5.475 1.874,-13.108c0.882,-3.401 1.775,-7.395 1.968,-8.896c0.423,-3.05 -0.159,-9.568 -1.204,-13.706c-0.744,-3.035 -0.326,-3.382 1.221,-0.951Zm69.864,-0.79c7.807,1.038 11.361,2.465 11.629,4.67c0.303,2.498 -2.234,3.608 -7.575,3.284c-1.932,-0.103 -4.507,-0.34 -5.659,-0.538l-2.132,-0.375l-1.801,-3.835l-1.806,-3.878l1.763,0.082c0.966,0.052 3.505,0.335 5.581,0.59Z" style="fill:#12a163;fill-rule:nonzero;"/><path d="M224.223,135.832c-15.397,2.798 -28.811,10.253 -37.228,20.692c-2.763,3.376 -2.794,3.464 -2.087,4.476c1.829,2.693 6.024,2.859 11.031,0.436c1.58,-0.741 5.281,-2.921 8.262,-4.846c10.069,-6.458 14.978,-8.658 19.152,-8.658c1.214,0.022 2.067,0.172 1.922,0.358c-0.185,0.191 -2.177,1.32 -4.462,2.442c-18.991,9.652 -29.59,16.217 -37.753,23.247c-4.007,3.442 -10.164,9.806 -9.795,10.099c0.098,0.115 5.443,-1.927 11.895,-4.484c29.585,-11.782 43.655,-18.642 58.431,-28.627c6.677,-4.485 14.881,-10.843 17.668,-13.673l0.896,-0.869l-4.979,-0.79c-6.681,-1.047 -14.967,-1.562 -20.098,-1.193c-2.319,0.154 -4.972,0.307 -5.887,0.334c-0.91,0.068 -4.067,0.536 -6.968,1.056Z" style="fill:#12a163;fill-rule:nonzero;"/><path d="M209.5,177.908c-12.191,3.422 -22.848,8.474 -32.6,15.485c-3.337,2.432 -6.653,5.03 -6.628,5.238c0.031,0.25 8.773,-1.318 20.592,-3.681c13.444,-2.729 25.173,-4.448 25.264,-3.698c0.081,0.665 -1.536,1.791 -4.005,2.766c-1.271,0.534 -7.264,2.402 -13.308,4.191c-6.004,1.784 -12.552,3.888 -14.497,4.715c-8.001,3.209 -11.346,4.882 -12.29,6.052c-0.866,1.119 -0.851,1.244 -0.118,2.126c1.954,2.339 11.818,2.789 16.12,0.747c1.539,-0.736 2.48,-0.892 4.613,-0.855c10.297,0.229 23.904,-2.183 37.794,-6.74c4.054,-1.336 39.766,-14.918 40.065,-15.207c0.51,-0.611 -7.154,-5.636 -12.29,-8.054c-6.599,-3.127 -13.966,-5.02 -22.108,-5.721c-5.612,-0.502 -20.786,1.043 -26.604,2.636Z" style="fill:#12a163;fill-rule:nonzero;"/><path d="M189.011,217.178c-8.451,1.912 -19.245,5.84 -26.393,9.537c-5.301,2.755 -13.085,7.753 -11.228,7.232c9.115,-2.626 26.306,-5.092 36.716,-5.299c5.373,-0.103 16.306,0.218 16.676,0.511c0.087,0.031 -5.816,0.917 -13.123,1.93c-7.308,1.013 -14.795,2.259 -16.704,2.702c-8.219,2.095 -15.452,4.409 -20.958,6.851c-2.578,1.115 -2.691,1.213 -2.54,2.462c0.212,1.748 2.64,3.522 5.359,3.911c1.146,0.156 6.498,-0.113 12.359,-0.655c8.258,-0.749 10.71,-0.835 12.262,-0.432c4.912,1.262 6.618,1.562 10.021,1.74c9.411,0.505 19.452,-2.402 31.661,-9.12c2.033,-1.134 7.294,-4.221 11.685,-6.908c4.39,-2.687 10.078,-6.037 12.662,-7.449l4.694,-2.596l-3.478,-1.141c-10.644,-3.439 -20.967,-5.269 -32.836,-5.729c-4.03,-0.187 -22.854,1.548 -26.835,2.453Z" style="fill:#12a163;fill-rule:nonzero;"/><path d="M154.432,255.581c-0.648,0.163 -2.669,0.704 -4.449,1.174c-4.496,1.136 -10.063,3.416 -13.203,5.402l-2.641,1.63l2.128,0.333c3.314,0.485 7.448,0.49 17.525,-0.057c10.621,-0.528 15.063,-0.392 19.569,0.624c2.965,0.696 8.183,2.766 8.244,3.265c0.03,0.25 -6.865,0.876 -24.773,2.246c-7.779,0.564 -12.304,1.113 -17.283,2.055c-6.608,1.266 -15.24,3.749 -15.895,4.546c-0.649,0.839 2.075,3.338 4.746,4.366c3.205,1.3 6.643,1.77 17.642,2.631c9.355,0.724 12.716,1.245 16.517,2.642c15.59,5.668 31.546,3.352 52.961,-7.65c5.224,-2.703 19.559,-10.82 19.997,-11.337c0.623,-0.709 -11.991,-5.936 -20.786,-8.585c-17.071,-5.151 -31.555,-6.519 -49.197,-4.674c-5.44,0.576 -10.413,1.221 -11.102,1.389Z" style="fill:#12a163;fill-rule:nonzero;"/></g></svg>