<?xml version="1.0" encoding="UTF-8" standalone="no" ?>
<!DOCTYPE svg PUBLIC "-//W3C//DTD SVG 1.1//EN"
  "http://www.w3.org/Graphics/SVG/1.1/DTD/svg11.dtd">
<svg
  id="leaf1"
  width="100%"
  height="100%"
  viewBox="0 0 657 380"
  version="1.1"
  xmlns="http://www.w3.org/2000/svg"
  xmlns:xlink="http://www.w3.org/1999/xlink"
  xml:space="preserve"
  style="fill-rule:evenodd;clip-rule:evenodd;stroke-linejoin:round;stroke-miterlimit:1.41421;"
><g><path
      d="M652.218,138.651c-19.76,6.084 -40.619,6.303 -74.172,0.789c-5.258,-0.819 -10.446,-1.856 -11.591,-2.246c-2.522,-0.791 -5.04,-2.8 -4.986,-3.849c0.14,-2.759 8.218,-6.999 17.052,-8.932c4.241,-0.948 5.757,-0.982 14.577,-0.371c13.003,0.824 15.208,-0.172 5.963,-2.742c-3.448,-0.893 -6.919,-1.345 -13.889,-1.698c-9.062,-0.458 -9.355,-0.417 -11.984,0.889c-6.038,3.07 -7.756,3.647 -8.771,2.988c-2.421,-1.617 -2.031,-5.858 0.896,-9.584c2.368,-3.034 4.64,-4.192 7.892,-4.028c1.743,0.088 4.097,-0.402 6.709,-1.376c7.302,-2.73 12.052,-3.376 21.113,-2.918c11.269,0.57 18.102,2.465 28.821,8.097c9.019,4.717 19.741,13.725 25.184,21.194l1.743,2.357l-4.557,1.43Z"
      style="fill:#12a163;fill-rule:nonzero;"
    /><path
      d="M609.076,202.463c-2.663,-0.301 -7.915,-1.23 -11.718,-2.031c-3.803,-0.801 -8.889,-1.556 -11.386,-1.682c-8.365,-0.423 -18.342,-3.472 -28.273,-8.567c-7.264,-3.743 -14.084,-8.182 -24.688,-16.078c-20.478,-15.256 -23.339,-17.393 -27.74,-20.161c-2.596,-1.625 -4.669,-3.224 -4.649,-3.61c0.073,-1.435 2.676,-2.244 6.8,-2.036c4.996,0.252 10.565,1.807 25.154,6.915c6.181,2.139 11.454,3.789 11.698,3.58c0.91,-0.729 -1.972,-3.586 -5.713,-5.601c-2.209,-1.219 -8.204,-3.569 -13.355,-5.323c-12.712,-4.24 -22.888,-7.963 -24.583,-8.99c-1.637,-1.023 -1.518,-1.073 4.178,-2.002c10.452,-1.685 23.648,-1.24 34.821,1.206c33.809,7.353 63.07,31.962 73.041,61.407l1.214,3.603l-4.801,-0.63Z"
      style="fill:#12a163;fill-rule:nonzero;"
    /><path
      d="M591.978,48.87c-5.784,17.526 -15.998,32.836 -29.944,44.804c-10.291,8.832 -22.628,15.513 -27.548,14.932c-2.141,-0.274 -2.31,-0.393 -2.4,-2.058c-0.117,-2.275 2.501,-6.791 6.189,-10.589c2.954,-3.115 8.688,-7.086 10.082,-7.016c1.336,0.068 0.983,-1.002 -0.507,-1.464c-2.871,-0.809 -12.283,4.47 -24.58,13.809c-7.213,5.557 -8.771,6.419 -10.978,6.307c-5.402,-0.273 -4.034,-8.836 2.221,-13.888c1.578,-1.248 3.443,-2.427 4.094,-2.615c0.65,-0.189 2.94,-2.84 5.454,-6.476c14.445,-20.63 39.242,-36.42 67.589,-43.011c3.065,-0.731 3.077,-0.952 0.328,7.265Z"
      style="fill:#12a163;fill-rule:nonzero;"
    /><path
      d="M557.061,215.273c-1.311,2.867 -5.734,6.24 -9.937,7.577c-2.722,0.859 -4.537,1.044 -9.184,0.809c-7.202,-0.364 -10.233,-1.458 -17.208,-6.292c-49.793,-34.225 -56.837,-38.841 -71.687,-46.841c-7.824,-4.158 -19.487,-9.562 -23.046,-10.572c-2.295,-0.669 -2.427,-1.506 -0.234,-1.118c1.04,0.163 5.847,0.683 10.604,1.034c26.151,2.207 52.805,11.688 80.645,28.755l2.259,1.387l-3.034,-3.308c-9.595,-10.556 -25.014,-19.967 -52.802,-32.328c-7.175,-3.185 -13.264,-5.983 -13.488,-6.16c-0.834,-0.762 15.063,1.536 23.644,3.408c29.893,6.491 55.96,20.646 71.622,38.979c8.956,10.524 10.321,12.309 11.367,14.63c1.522,3.287 1.665,7.334 0.479,10.04Z"
      style="fill:#12a163;fill-rule:nonzero;"
    /><path
      d="M531.93,42.184c-0.828,4.827 -4.065,15.786 -6.258,21.099c-10.039,24.449 -28.549,43.712 -51.715,53.774c-6.195,2.731 -6.192,2.675 -4.11,-3.915c1.864,-5.716 6.083,-13.084 14.056,-24.413c8.848,-12.501 12.45,-19.181 14.134,-25.958c0.869,-3.331 0.683,-3.119 -8.876,9.623c-17.371,23.194 -27.85,34.562 -39.71,43.314l-5.688,4.195l0.461,-2.19c0.237,-1.206 5.049,-9.927 10.713,-19.38c10.703,-18.052 11.554,-19.891 14.424,-31.643c6.029,-24.597 22.727,-47.16 44.219,-59.798c6.542,-3.819 15.822,-7.667 16.3,-6.757c0.743,1.421 2.401,10.026 2.941,15.421c0.56,5.009 -0.045,21.469 -0.891,26.628Z"
      style="fill:#12a163;fill-rule:nonzero;"
    /><path
      d="M516.63,254.456c-0.117,-0.006 -6.018,-1.909 -13.119,-4.26c-20.908,-6.811 -23.579,-8.108 -41.034,-19.836c-41.888,-28.236 -62.801,-39.53 -86.649,-46.933c-2.809,-0.861 -5.21,-1.757 -5.431,-1.99c-0.663,-0.697 30.948,1.786 38.219,3.094c15.875,2.739 29.483,6.525 42.435,11.773c2.682,1.076 4.914,1.853 5.036,1.748c0.484,-0.363 -5.633,-4.877 -9.089,-6.768c-6.348,-3.419 -19.898,-8.365 -38.873,-14.249c-13.302,-4.103 -13.188,-4.042 -10.256,-4.447c10.025,-1.319 26.048,-0.344 36.69,2.242c34.455,8.381 63.656,31.881 76.808,61.763c3.233,7.412 6.366,17.919 5.263,17.863Z"
      style="fill:#12a163;fill-rule:nonzero;"
    /><path
      d="M518.21,128.59c-25.418,0.542 -54.792,5.587 -79.773,13.566c-47.952,15.34 -88.725,37.24 -123.58,66.412l-9.976,8.349l2.246,0.501c1.269,0.23 6.621,1.497 11.916,2.705c8.922,2.056 10.078,2.225 14.463,1.893c24.605,-1.745 48.519,3.227 83.672,17.343c3.481,1.393 6.791,2.723 7.419,2.976c1.883,0.759 -1.633,-2.241 -8.376,-7.064c-13.935,-9.945 -33.835,-18.255 -54.458,-22.673c-3.457,-0.728 -6.64,-1.11 -8.742,-0.995c-4.498,0.271 -7.936,-0.844 -8.307,-2.689c-0.422,-2.013 0.916,-4.27 4.01,-6.714c3.945,-3.121 8.626,-4.71 12.922,-4.438c23.85,1.648 26.865,1.911 32.727,3.425c25.354,6.427 47.401,21.763 64.063,44.463c6.316,8.619 13.32,22.033 16.504,31.545l1.456,4.556l-3.31,-0.167c-10.165,-0.514 -29.681,-4.931 -43.87,-9.909c-10.699,-3.75 -14.279,-5.48 -36.384,-17.388c-28.339,-15.266 -36.415,-19.05 -50.004,-23.223c-3.382,-1.056 -5.227,-1.426 -5.249,-0.984c-0.051,0.993 1.039,17.317 1.147,17.489c0.055,0.058 2.702,0.69 5.816,1.29c25.247,5.094 50.66,19.493 68.941,39.01l4.972,5.286l-1.658,0.525c-3.549,1.094 -12.134,2.707 -16.997,3.292c-16.866,1.859 -32.95,0.935 -62.819,-3.728c-4.448,-0.723 -27.907,-4.991 -28.718,-5.087c-1.214,-0.172 -18.529,13.056 -21.411,15.899c-1.966,2.003 -16.089,8.441 -15.976,8.502c0.052,0.114 50.004,-13.045 52.075,-12.553c7.193,1.692 19.691,6.695 28.533,11.458c12.301,6.598 21.291,13.029 36.692,26.202c1.061,0.884 0.882,0.986 -3.565,2.532c-2.603,0.809 -6.516,2.16 -8.771,2.987c-5.694,2.037 -14.038,3.496 -21.977,3.87c-9.806,0.445 -21.139,-1.124 -45.797,-6.354c-24.719,-5.178 -35.591,-6.668 -45.745,-6.24c-10.564,0.462 -11.569,0.743 -16.545,4.697c-5.522,4.369 -8.69,8.249 -13.917,17.115c-9.047,15.259 -13.026,20.204 -15.11,18.826c-1.239,-0.838 -1.616,-2.572 -1.441,-7.156c0.1,-3.094 -0.044,-3.71 -0.755,-3.469c-0.473,0.142 -0.871,-0.044 -0.851,-0.43c0.067,-1.325 4.422,-19.366 6.262,-25.748c0.996,-3.546 1.728,-6.497 1.673,-6.555c-3.65,-1.513 -4.614,-3.166 -8.173,-14.469l-2.416,-7.426l-2.111,0.28c-1.173,0.162 -2.575,0.258 -3.156,0.228c-0.697,-0.035 -0.947,0.284 -0.8,0.845c0.093,0.448 0.99,3.426 1.991,6.63c3.098,10.062 3.726,16.015 3.255,30.987c-0.379,13.151 -0.385,13.262 -1.903,15.62c-1.9,3.003 -4.584,4.25 -8.65,4.045c-3.427,-0.173 -5,-1.304 -5.565,-3.933c-0.19,-0.84 0.289,-4.523 1.061,-8.247c0.772,-3.724 1.262,-7.628 1.147,-8.796c-0.58,-4.622 -3.339,-6.477 -10.193,-6.824c-9.584,-0.484 -12.265,0.709 -29.367,12.904c-6.529,4.706 -13.774,9.762 -16.124,11.304c-13.19,8.574 -26.096,13.843 -36.63,14.86c-13.341,1.263 -29.007,-6.723 -43.704,-22.295c-4.64,-4.938 -13.178,-15.662 -13.13,-16.601c0.014,-0.276 0.888,-0.287 1.983,-0.066c5.418,1.104 8.972,-1.206 22.517,-14.467c15.018,-14.735 24.271,-21.461 35.621,-25.923c9.327,-3.624 21.734,-4.823 31.544,-3.054c2.829,0.475 8.921,2.055 13.509,3.449c11.18,3.443 17.243,4.468 22.28,3.893c6.559,-0.72 9.637,-2.833 9.834,-6.697c0.43,-8.445 -20.6,-22.014 -35.235,-22.808c-3.427,-0.174 -8.13,0.695 -12.933,2.39c-2.966,1.067 -8.218,3.568 -19.763,9.57c-14.772,7.609 -21.656,10.139 -29.966,10.937c-9.889,0.939 -24.019,-4.036 -35.527,-12.476c-5.391,-3.924 -20.563,-17.031 -20.529,-17.693c0.011,-0.221 1.62,-2.077 3.522,-3.973c1.905,-1.951 5.562,-6.304 8.121,-9.661c2.559,-3.356 6.427,-8.418 8.609,-11.24c6.424,-8.364 12.452,-12.375 21.573,-14.239c2.648,-0.53 5.97,-0.583 12.592,-0.249c9.351,0.473 15.934,1.58 28.176,4.744c9.085,2.286 10.714,2.313 13.272,0.118c6.211,-5.331 -0.885,-13.492 -16.846,-19.113c-9.15,-3.284 -12.386,-3.78 -32.923,-5.316c-23.9,-1.816 -28.106,-2.693 -38.308,-8.188c-10.659,-5.685 -19.492,-14.045 -26.055,-24.669c-1.561,-2.514 -4.8,-8.654 -7.224,-13.646c-2.367,-4.989 -4.587,-9.418 -4.858,-9.819c-0.878,-1.04 1.962,-4.217 8.771,-9.849c17.992,-14.806 38.941,-20.222 56.648,-14.568c14.042,4.417 24.031,12.945 39.282,33.637c8.228,11.096 11.691,15.144 15.069,17.418c2.817,1.858 6.326,2.699 8.175,1.852c1.19,-0.493 1.328,-0.929 1.214,-3.259c-0.218,-3.719 -3.314,-9.243 -10.893,-19.365c-3.434,-4.6 -7.073,-9.764 -8.089,-11.531l-1.873,-3.249l1.044,-20.477c0.827,-16.227 1.223,-20.579 1.815,-20.77c1.065,-0.334 15.295,4.978 20.402,7.616c19.124,9.82 29.283,24.167 32.539,45.969c0.708,4.407 2.27,25.182 2.137,27.776c-0.005,0.11 2.079,1.488 4.681,3.003c5.034,2.911 12.559,8.382 15.779,11.477c1.053,1.05 2.056,1.93 2.172,1.936c0.116,0.006 -0.183,-2.112 -0.574,-4.732c-3.189,-19.695 -0.449,-34.608 8.225,-44.85c2.168,-2.546 2.997,-3.943 2.809,-4.838c-0.275,-1.453 0.799,-57.953 1.103,-58.214c0.795,-0.734 15.731,12.416 21.794,19.141c20.77,23.24 32.976,51.137 36.103,82.339c0.82,7.899 0.06,26.233 -1.354,33.41c-1.563,7.834 -3.287,14.222 -3.809,14.195c-0.291,-0.014 -0.89,-0.819 -1.365,-1.784l-0.842,-1.758l-2.262,5.53c-3.853,9.323 -7.198,14.411 -20.744,31.102l-4.35,5.369l-0.293,9.172c-0.275,8.839 -0.24,9.284 1.031,10.621c1.824,1.918 6.852,2.67 8.787,1.274c0.786,-0.569 2.714,-4.124 4.687,-8.562c1.901,-4.165 5.54,-11.562 8.119,-16.467c2.579,-4.905 5.785,-11.826 7.188,-15.352c8.333,-21.825 19.586,-35.809 30.841,-38.395c3.181,-0.724 4.083,-1.288 7.023,-4.127c4.045,-3.946 19.218,-16.017 27.801,-22.169c45.084,-32.196 99.648,-53.898 152.696,-60.679c16.59,-2.15 28.155,-2.839 42.823,-2.706c9.604,0.098 11.966,0.605 3.745,0.798Zm-175.143,134.36c-1.836,-1.697 -4.446,-3.047 -4.939,-2.518c-0.121,0.104 -0.51,2.022 -0.794,4.165l-0.612,4.009l9.932,0.502l-0.764,-2.142c-0.408,-1.127 -1.712,-2.964 -2.823,-4.016Zm-17.599,53.949c-4.088,-0.926 -8.549,-1.372 -18.423,-1.871l-10.931,-1.325l-9.9,4.422c-4.24,2.055 -11.456,5.398 -15.928,7.441c-4.472,2.042 -8.113,3.795 -8,3.856c0.055,0.058 2.54,-0.702 5.506,-1.769c7.648,-2.657 16.446,-5.035 24.383,-6.515c12.169,-2.263 17.486,-2.603 30.268,-2.012c13.071,0.605 13.617,0.19 3.025,-2.227Zm-103.61,-90.066c-0.814,-2.31 -1.451,-4.666 -1.478,-5.277c0.028,-0.551 -1.563,-3.62 -3.554,-6.82c-2.05,-3.202 -4.237,-7.131 -4.969,-8.772c-0.734,-1.587 -1.483,-2.898 -1.712,-2.964c-0.639,-0.033 -0.994,4.653 -1.066,14.056l-0.043,8.852l4.127,9.284l4.13,9.228l2.136,-4.208c2.594,-5.181 3.78,-7.888 3.875,-8.603c0.075,-0.328 -0.574,-2.463 -1.446,-4.776Zm-13.697,32.233c-0.787,-1.7 -1.588,-3.124 -1.762,-3.133c-0.174,-0.009 -0.883,1.339 -1.546,2.91c-1.391,3.306 -1.518,2.358 1.888,10.942l0.831,1.979l0.836,-3.832c1.272,-5.525 1.324,-5.411 -0.247,-8.866Zm-21.155,63.176c-11.287,-4.775 -18.594,-6.528 -29.923,-7.045c-15.799,-0.799 -30.05,3.461 -33.527,9.981c-1.483,2.803 -1.335,4.471 0.68,7.229c2.174,3.042 6.96,5.11 13.103,5.697c7.069,0.69 9.665,0.046 23.829,-5.934c14.164,-5.98 18.644,-7.026 27.043,-6.159c3.07,0.321 6.193,0.756 6.995,1.017c3.039,0.929 -3.124,-2.703 -8.2,-4.786Zm-8.328,-102.848c-0.122,0.104 1.066,1.935 2.644,4.118c1.58,2.127 2.939,4.022 3.05,4.138c0.052,0.113 0.586,-0.081 1.132,-0.496c0.847,-0.621 0.579,-1.078 -2.81,-4.292c-2.111,-1.989 -3.894,-3.573 -4.016,-3.468Zm-23.006,13.778c-1.482,-4.059 -4.222,-12 -6.084,-17.738c-1.92,-5.742 -3.455,-9.914 -3.544,-9.31c-0.031,0.607 -0.493,1.691 -1.05,2.326c-1.556,1.969 -3.796,1.358 -8.678,-2.264c-9.595,-7.125 -27.754,-19.885 -33.618,-23.668c-21.658,-13.821 -40.728,-22.422 -50.893,-22.935c-3.833,-0.194 -3.178,0.669 1.141,1.607c15.551,3.386 37.622,15.956 57.888,33.083c12.842,10.831 29.483,27.111 42.714,41.725c2.977,3.304 5.243,5.687 5.091,5.237c-0.096,-0.392 -1.482,-4.059 -2.967,-8.063Zm-3.806,26.701c-7.203,-3.795 -21.991,-6.147 -35.868,-5.796c-11.02,0.273 -23.09,1.71 -25.724,3.127c-7.477,3.883 -0.77,10.53 11.254,11.137c4.763,0.241 7.587,-0.335 17.949,-3.685c4.618,-1.482 10.054,-3.034 12.113,-3.428c4.177,-0.84 13.252,-0.658 19.082,0.356c4.273,0.714 4.711,0.127 1.194,-1.711Zm-5.858,-93.04c-2.212,-10.293 -4.54,-14.893 -7.619,-15.049c-3.485,-0.176 -4.768,3.301 -3.79,10.378c0.336,2.562 0.919,5.967 1.308,7.481l0.731,2.804l5.486,2.048l5.544,2.051l-0.288,-2.339c-0.168,-1.281 -0.813,-4.634 -1.372,-7.374Z"
      style="fill:#12a163;fill-rule:nonzero;"
    /><path
      d="M462.104,59.406c-2.339,20.744 -11.319,39.271 -24.924,51.421c-4.396,3.984 -4.515,4.033 -5.986,3.184c-3.907,-2.19 -4.555,-7.756 -1.7,-14.64c0.868,-2.169 3.516,-7.292 5.882,-11.434c7.934,-13.986 10.49,-20.719 10.074,-26.273c-0.151,-1.613 -0.443,-2.734 -0.687,-2.525c-0.246,0.264 -1.609,3.017 -2.934,6.16c-11.465,26.148 -19.494,40.849 -28.407,52.351c-4.364,5.645 -12.556,14.417 -12.999,13.952c-0.168,-0.119 2.125,-7.418 5.021,-16.236c13.358,-40.44 21.448,-59.787 33.794,-80.357c5.54,-9.293 13.521,-20.787 17.159,-24.753l1.113,-1.272l1.588,6.554c2.114,8.795 3.651,19.774 3.651,26.636c0.016,3.1 0.069,6.644 0.123,7.864c-0.004,1.217 -0.336,5.461 -0.768,9.368Z"
      style="fill:#12a163;fill-rule:nonzero;"
    /><path
      d="M405.355,82.823c-3.521,16.534 -9.45,31.175 -18.18,44.79c-3.033,4.661 -6.298,9.31 -6.589,9.295c-0.348,-0.017 0.951,-11.794 3.044,-27.736c2.439,-18.137 3.65,-33.902 2.604,-33.955c-0.929,-0.047 -2.325,2.206 -3.429,5.581c-0.613,1.74 -2.6,9.885 -4.474,18.091c-1.871,8.15 -4.13,17.056 -5.081,19.719c-3.644,10.939 -5.626,15.542 -7.151,16.904c-1.462,1.254 -1.636,1.246 -2.93,0.35c-3.43,-2.387 -5.035,-15.472 -2.637,-21.382c0.865,-2.115 0.988,-3.381 0.724,-6.217c-1.341,-13.68 0.641,-32.007 5.564,-50.905c1.446,-5.516 16.684,-54.272 17.055,-54.696c0.794,-0.735 8.509,9.007 12.365,15.621c4.983,8.497 8.335,18.129 10.116,28.899c1.252,7.423 0.624,27.755 -1.001,35.641Z"
      style="fill:#12a163;fill-rule:nonzero;"
    /><path
      d="M353.062,113.659c-1.805,11.419 -6.166,26.14 -10.569,35.988c-3.284,7.305 -9.426,18.117 -8.89,15.599c2.727,-12.368 4.428,-35.469 3.679,-49.34c-0.392,-7.159 -1.923,-21.679 -2.366,-22.144c-0.052,-0.113 -0.689,7.823 -1.364,17.639c-0.675,9.816 -1.655,19.893 -2.077,22.472c-2.081,11.128 -4.562,20.963 -7.393,28.512c-1.286,3.532 -1.411,3.692 -3.153,3.604c-2.44,-0.124 -5.137,-3.193 -5.945,-6.775c-0.33,-1.511 -0.49,-8.657 -0.323,-16.507c0.214,-11.056 0.089,-14.327 -0.622,-16.355c-2.236,-6.422 -2.82,-8.665 -3.405,-13.177c-1.636,-12.478 1.388,-26.104 9.468,-42.96c1.366,-2.809 5.115,-10.09 8.395,-16.177c3.28,-6.087 7.35,-13.961 9.046,-17.527l3.125,-6.483l1.924,4.525c5.817,13.851 9.376,27.422 11.194,43.174c0.659,5.346 0.132,30.553 -0.724,35.932Z"
      style="fill:#12a163;fill-rule:nonzero;"
    /><path
      d="M303.369,163.165c-0.161,0.877 -0.708,3.616 -1.18,6.027c-1.126,6.085 -3.727,13.701 -6.162,18.06l-1.992,3.663l-0.672,-2.801c-1.001,-4.367 -1.419,-9.867 -1.665,-23.326c-0.326,-14.182 -0.957,-20.08 -2.811,-25.984c-1.258,-3.882 -4.64,-10.638 -5.337,-10.673c-0.349,-0.018 -0.528,9.215 -0.642,33.17c-0.006,10.403 -0.316,16.474 -1.124,23.184c-1.094,8.909 -3.671,20.621 -4.709,21.565c-1.096,0.94 -4.825,-2.458 -6.512,-5.918c-2.118,-4.147 -3.11,-8.679 -5.396,-23.238c-1.932,-12.382 -2.987,-16.807 -5.298,-21.738c-9.393,-20.23 -7.776,-41.674 5.315,-71.171c3.22,-7.197 13.023,-27.01 13.696,-27.64c0.919,-0.894 9.406,15.416 13.946,26.879c8.824,22.248 12.158,41.397 11.361,65.041c-0.255,7.292 -0.654,13.967 -0.818,14.9Z"
      style="fill:#12a163;fill-rule:nonzero;"
    /></g></svg>
