<?xml version="1.0" encoding="UTF-8" standalone="no" ?>
<!DOCTYPE svg PUBLIC "-//W3C//DTD SVG 1.1//EN"
  "http://www.w3.org/Graphics/SVG/1.1/DTD/svg11.dtd">
<svg
  id="leaf5"
  width="100%"
  height="100%"
  viewBox="0 0 244 137"
  version="1.1"
  xmlns="http://www.w3.org/2000/svg"
  xmlns:xlink="http://www.w3.org/1999/xlink"
  xml:space="preserve"
  style="fill-rule:evenodd;clip-rule:evenodd;stroke-linejoin:round;stroke-miterlimit:1.41421;"
><g><g><path
        d="M28.208,136.293c0,0 17.748,-42.159 72.601,-72.43c54.853,-30.272 116.864,-9.793 116.864,-9.793c0,0 -36.555,-13.378 -70.605,-7.793c-34.051,5.584 -80.1,19.433 -122.334,86.841c0,0 -0.017,2.018 3.474,3.175Z"
        style="fill:#68a13b;fill-rule:nonzero;"
      /><path
        d="M58.341,92.667c0,0 -28.514,13.969 -58.341,-6.018c0,0 24.506,-10.204 58.832,4.123l-0.491,1.895Z"
        style="fill:#68a13b;fill-rule:nonzero;"
      /><path
        d="M66.003,85.317c0,0 -31.427,4.533 -53.671,-23.649c0,0 26.457,-2.183 54.721,21.996l-1.05,1.653Z"
        style="fill:#68a13b;fill-rule:nonzero;"
      /><path
        d="M71.337,79.949c0,0 -30.805,-7.7 -40.727,-42.206c0,0 25.315,7.994 42.323,41.074l-1.596,1.132Z"
        style="fill:#68a13b;fill-rule:nonzero;"
      /><path
        d="M77.39,75.235c0,0 -19.291,-13.339 -22.472,-47.399c0,0 26.301,26.276 25.691,45.705l-3.219,1.694Z"
        style="fill:#68a13b;fill-rule:nonzero;"
      /><path
        d="M84.038,71.523c0,0 6.347,-24.009 -4.209,-49.112c0,0 -13.129,15.554 -0.649,51.771l4.858,-2.659Z"
        style="fill:#68a13b;fill-rule:nonzero;"
      /><path
        d="M94.213,64.934c0,0 -7.598,-10.183 -3.821,-32.078c3.776,-21.895 13.32,-27.511 13.32,-27.511c0,0 -3.138,19.913 -2.408,31.728c0.73,11.817 -2.635,27.246 -7.091,27.861Z"
        style="fill:#68a13b;fill-rule:nonzero;"
      /><path
        d="M102.141,60.67c0,0 -0.354,-17.657 7.433,-36.491c7.787,-18.834 24.715,-24.179 24.715,-24.179c0,0 -9.954,12.08 -11.979,23.308c-2.024,11.228 -5.092,23.07 -15.907,35.054c-10.813,11.984 -4.262,2.308 -4.262,2.308Z"
        style="fill:#68a13b;fill-rule:nonzero;"
      /><path
        d="M119.385,53.132c0,0 0.507,-14.149 11.083,-29.606c10.575,-15.458 29.838,-16.154 29.838,-16.154c0,0 -7.148,3.203 -12.191,9.985c-5.043,6.781 -12.934,27.484 -24.301,34.775c-11.366,7.291 -4.429,1 -4.429,1Z"
        style="fill:#68a13b;fill-rule:nonzero;"
      /><path
        d="M133.393,49.305c0,0 3.41,-13.649 18.119,-23.107c14.709,-9.457 26.498,-7.162 26.498,-7.162c0,0 -12.157,2.537 -17.427,8.248c-5.271,5.711 -13.62,17.449 -24.013,21.959l-3.177,0.062Z"
        style="fill:#68a13b;fill-rule:nonzero;"
      /><path
        d="M148.69,47.329c0,0 2.726,-10.035 19.707,-18.02c16.98,-7.985 33.84,-5.259 33.84,-5.259c0,0 -8.693,-0.104 -17.042,4.81c-8.349,4.913 -20.813,15.459 -32.523,17.733l-3.982,0.736Z"
        style="fill:#68a13b;fill-rule:nonzero;"
      /><path
        d="M168.111,45.537c0,0 12.261,-11.23 28.199,-11.776c15.938,-0.547 21.113,1.426 21.113,1.426c0,0 -15.367,3.222 -21.086,5.784c-5.719,2.562 -15.928,6.362 -23.129,5.38c-7.202,-0.98 -5.097,-0.814 -5.097,-0.814Z"
        style="fill:#68a13b;fill-rule:nonzero;"
      /><path
        d="M182.786,46.938c0,0 32.436,-11.057 61.15,17.613c0,0 -31.379,-15.459 -64.124,-16.866c-32.744,-1.408 2.974,-0.747 2.974,-0.747Z"
        style="fill:#68a13b;fill-rule:nonzero;"
      /></g><path
      d="M57.877,135.856c0,0 -10.715,-19.814 -0.897,-43.064c0,0 6.888,11.007 0.897,43.064Z"
      style="fill:#68a13b;fill-rule:nonzero;"
    /><path
      d="M188.655,64.519c0,0 -22.508,0.883 -39.05,-18.178c0,0 12.916,-1.331 39.05,18.178Z"
      style="fill:#68a13b;fill-rule:nonzero;"
    /><path
      d="M67.571,84.584c0,0 8.318,5.694 -0.38,26.443c0,0 -4.897,-11.904 -2.108,-24.406l2.488,-2.037Z"
      style="fill:#68a13b;fill-rule:nonzero;"
    /><path
      d="M170.332,47.302c0,0 8.571,7.827 28.83,7.628c0,0 -11.237,-8.745 -25.763,-9.617l-3.067,1.989Z"
      style="fill:#68a13b;fill-rule:nonzero;"
    /><path
      d="M134.765,50.209c0,0 1.085,9.037 23.471,10.673c0,0 -8.172,-8.869 -20.5,-11.823l-2.971,1.15Z"
      style="fill:#68a13b;fill-rule:nonzero;"
    /><path
      d="M74.667,80.697c0,0 8.812,13.009 0.331,35.321c0,0 -9.253,-17.447 -1.927,-34.639l1.596,-0.682Z"
      style="fill:#68a13b;fill-rule:nonzero;"
    /><path
      d="M79.188,76.846c0,0 -3.243,25.739 14.964,46.279c0,0 4.043,-29.772 -13.27,-47.787l-1.694,1.508Z"
      style="fill:#68a13b;fill-rule:nonzero;"
    /><path
      d="M83.59,73.429c0,0 19.545,1.592 33.444,22.721c0,0 -24.251,-1.364 -35.503,-21.794l2.059,-0.927Z"
      style="fill:#68a13b;fill-rule:nonzero;"
    /><path
      d="M96.24,65.273c0,0 15.615,-1.77 29.809,12.696c0,0 -19.28,2.676 -31.284,-11.648l1.475,-1.048Z"
      style="fill:#68a13b;fill-rule:nonzero;"
    /><path
      d="M104.877,60.092c0,0 18.535,2.69 30.514,23.664c0,0 -23.034,-2.755 -32.533,-22.902l2.019,-0.762Z"
      style="fill:#68a13b;fill-rule:nonzero;"
    /><path
      d="M122.457,53.186c0,0 18.534,2.69 30.513,23.664c0,0 -23.033,-2.756 -32.532,-22.902l2.019,-0.762Z"
      style="fill:#68a13b;fill-rule:nonzero;"
    /></g></svg>
