<svg
  width="115"
  height="171"
  viewBox="0 0 115 171"
  fill="none"
  xmlns="http://www.w3.org/2000/svg"
>
<path
    d="M69.0456 26.5341C58.7699 22.2676 53.9097 6.55254 70.215 8.27441C85.6285 9.82709 98.1119 31.6098 114.715 26.9211C105.371 37.153 84.9679 44.8167 70.9978 45.3891C64.0564 45.451 52.739 44.2182 56.477 34.3059C58.6434 27.7857 64.9702 28.5302 70.2991 27.235"
    fill="#59998E"
  />
<path
    d="M99.5095 29.4295C91.7969 30.2391 83.988 29.8583 76.5918 27.4129C71.2723 25.6555 66.3982 23.386 60.6914 23.5513C49.8614 23.8657 47.0315 39.5933 45.3949 47.4847C41.745 65.0713 34.3462 81.5295 29.4109 98.7803C23.8313 118.282 19.2302 138.01 10.6724 156.501C10.0619 157.82 12.0366 158.942 12.6518 157.612C19.3554 143.124 23.7801 127.879 27.9819 112.515C32.4288 96.2535 37.6828 80.5241 43.2814 64.6404C47.5115 52.6331 47.6476 22.6429 66.2495 26.3085C70.8495 27.2148 75.1502 29.4748 79.6695 30.7106C86.0126 32.4467 93.0861 32.3756 99.5488 31.6976C100.992 31.5475 100.968 29.2777 99.5095 29.4295Z"
    fill="#2C605B"
  />
<path
    d="M69.6011 25.4988C71.2978 22.0728 73.9791 19.3073 76.0144 16.0941C76.3913 15.4999 75.4395 14.9702 75.0643 15.5612C73.0281 18.776 70.347 21.5375 68.651 24.966C68.3407 25.5934 69.2891 26.1294 69.6011 25.4988Z"
    fill="#2C605B"
  />
<path
    d="M69.6336 26.2873C73.6906 24.7471 77.9131 23.7098 81.9701 22.1696C82.6208 21.9226 82.3333 20.8725 81.6753 21.1217C77.6192 22.6603 73.3958 23.6992 69.3388 25.2394C68.6882 25.4864 68.9772 26.5374 69.6336 26.2873Z"
    fill="#2C605B"
  />
<path
    d="M70.716 26.8256C72.8249 30.5812 74.4881 34.5636 76.8719 38.1632C77.2578 38.7481 78.1992 38.1978 77.8117 37.612C75.4289 34.0108 73.7656 30.0285 71.6559 26.2744C71.3111 25.6606 70.372 26.2143 70.716 26.8256Z"
    fill="#2C605B"
  />
<path
    d="M71.8771 27.4312C70.1891 31.4282 68.8964 35.5555 67.6609 39.7106C67.4607 40.383 68.5196 40.6439 68.7183 39.9705C69.9248 35.9116 71.1776 31.8703 72.8256 27.9632C73.0966 27.3241 72.1485 26.784 71.8771 27.4312Z"
    fill="#2C605B"
  />
<path
    d="M74.6205 27.758C80.1644 28.6442 84.6307 25.4684 89.3174 23.0283C89.9417 22.7019 89.3863 21.7659 88.7646 22.0875C84.3922 24.3646 80.0768 27.5272 74.8814 26.6991C74.1957 26.5893 73.926 27.6454 74.6205 27.758Z"
    fill="#2C605B"
  />
<path
    d="M83.4772 30.7395C84.8683 32.2566 86.312 33.7241 87.7031 35.2412C88.1775 35.7612 88.9412 34.9822 88.4682 34.4671C87.078 32.9485 85.6358 31.4818 84.2423 29.9654C83.7664 29.4445 83.0051 30.2228 83.4772 30.7395Z"
    fill="#2C605B"
  />
<path
    d="M82.286 36.4226C83.0662 37.4847 84.2049 38.1899 84.9821 39.2462C85.3952 39.8088 86.3373 39.261 85.922 38.695C85.1433 37.6338 84.0031 36.9277 83.2258 35.8714C82.8119 35.3104 81.8698 35.8582 82.286 36.4226Z"
    fill="#2C605B"
  />
<path
    d="M65.3392 32.6527C64.5717 34.385 64.1732 36.2015 63.8201 38.0559C63.69 38.7406 64.7454 39.0078 64.8774 38.3159C65.2118 36.5654 65.5636 34.8247 66.2893 33.1856C66.5716 32.5487 65.6234 32.0086 65.3392 32.6527Z"
    fill="#2C605B"
  />
<path
    d="M66.327 18.0796C67.8835 16.6628 69.4342 15.2302 71.1635 14.0249C71.7377 13.6246 71.1866 12.6848 70.6108 13.0842C68.8033 14.3435 67.1785 15.8302 65.5522 17.312C65.0347 17.7857 65.8112 18.5501 66.327 18.0796Z"
    fill="#2C605B"
  />
<path
    d="M79.5163 19.5339C80.2656 18.2535 81.3176 17.2907 82.6732 16.6812C83.3145 16.3914 82.7541 15.4568 82.1204 15.7405C80.5995 16.4258 79.4074 17.564 78.567 18.9994C78.2113 19.6076 79.1615 20.1405 79.5163 19.5339Z"
    fill="#2C605B"
  />
<path
    d="M92.8579 24.3647C92.1632 25.2137 91.2583 25.851 90.5661 26.6993C90.125 27.2408 90.8973 28.009 91.3392 27.4659C92.0324 26.6161 92.9373 25.9788 93.6311 25.1314C94.0738 24.5908 93.3015 23.8225 92.8579 24.3647Z"
    fill="#2C605B"
  />
<path
    d="M94.1978 34.5352C94.5588 35.0645 94.9195 35.5978 95.2805 36.127C95.674 36.7058 96.617 36.1565 96.2203 35.5759C95.8594 35.0467 95.4977 34.5149 95.1377 33.9841C94.7416 33.406 93.8011 33.9547 94.1978 34.5352Z"
    fill="#2C605B"
  />
</svg>
