<svg
  width="52"
  height="96"
  viewBox="0 0 52 96"
  fill="none"
  xmlns="http://www.w3.org/2000/svg"
>
<path
    d="M24.3097 13.7505C30.3902 12.9863 35.2678 5.35093 26.3571 3.88262C17.9447 2.45478 8.13211 12.1985 -0.000136789 7.28217C3.46683 14.0814 13.1824 21.1329 20.5177 23.4783C24.195 24.5256 30.3853 25.5247 29.8487 19.7144C29.651 15.9353 26.1823 15.4061 23.5417 13.9395"
    fill="#b3d99a"
  />
<path
    d="M7.70847 10.8364C11.686 12.3934 15.8887 13.3323 20.1738 13.1145C23.2556 12.9585 26.1757 12.4656 29.1822 13.3873C34.8876 15.1369 34.0922 23.9027 33.8081 28.3326C33.1764 38.2055 34.7006 48.027 34.8006 57.9094C34.9139 69.0814 34.4745 80.2305 36.317 91.301C36.4485 92.0906 35.2358 92.3979 35.1036 91.6013C33.6607 82.928 33.5387 74.1852 33.5525 65.412C33.5672 56.1265 33.0756 47.0055 32.4235 37.7521C31.9317 30.7574 36.2419 14.811 25.8276 14.0393C23.2523 13.8484 20.6381 14.4201 18.0575 14.416C14.4352 14.411 10.6891 13.3396 7.35615 12.0351C6.61152 11.7445 6.95585 10.5426 7.70847 10.8364Z"
    fill="#789058"
  />
<path
    d="M24.166 13.1195C23.7656 11.0521 22.7458 9.19166 22.1345 7.18783C22.0211 6.81721 22.604 6.67501 22.7169 7.04369C23.3284 9.04849 24.3488 10.9068 24.7484 12.9754C24.8215 13.3539 24.2395 13.5 24.166 13.1195Z"
    fill="#789058"
  />
<path
    d="M24.0335 13.5335C22.1041 12.1227 20.0133 10.9548 18.0838 9.54401C17.7744 9.31771 18.0805 8.80207 18.3936 9.03055C20.3227 10.4404 22.4138 11.6093 24.3432 13.0201C24.6527 13.2463 24.3456 13.7622 24.0335 13.5335Z"
    fill="#789058"
  />
<path
    d="M23.38 13.6612C21.7112 15.3475 20.246 17.2193 18.4541 18.7826C18.1637 19.0368 17.7441 18.607 18.0355 18.3525C19.8272 16.7883 21.2924 14.9165 22.9614 13.2312C23.2342 12.9556 23.6521 13.3868 23.38 13.6612Z"
    fill="#789058"
  />
<path
    d="M22.6749 13.8131C22.9872 16.1824 23.0706 18.5631 23.1195 20.9503C23.1276 21.3367 22.5271 21.3204 22.52 20.9338C22.4724 18.602 22.3977 16.2727 22.0934 13.957C22.0429 13.578 22.6253 13.4298 22.6749 13.8131Z"
    fill="#789058"
  />
<path
    d="M21.1702 13.5858C18.0966 13.2462 16.1888 10.9071 14.0565 8.92633C13.7726 8.66178 14.2043 8.24587 14.4875 8.50751C16.4767 10.3557 18.3063 12.6659 21.1864 12.9853C21.5666 13.0272 21.5555 13.6275 21.1702 13.5858Z"
    fill="#789058"
  />
<path
    d="M16.0311 13.8749C15.0707 14.4772 14.0895 15.0456 13.1291 15.648C12.8012 15.8548 12.5095 15.3295 12.8359 15.1251C13.7961 14.5218 14.7763 13.9536 15.7379 13.352C16.0668 13.1449 16.3574 13.6695 16.0311 13.8749Z"
    fill="#789058"
  />
<path
    d="M15.8332 17.067C15.2636 17.517 14.5559 17.7251 13.9888 18.1724C13.6872 18.4109 13.267 17.9823 13.5702 17.7424C14.1388 17.2926 14.8475 17.0843 15.4147 16.6369C15.7164 16.3995 16.1367 16.8281 15.8332 17.067Z"
    fill="#789058"
  />
<path
    d="M25.3839 17.5414C25.5384 18.5736 25.4845 19.5964 25.4011 20.6328C25.3701 21.0155 24.7706 21.0032 24.8015 20.6164C24.8798 19.6379 24.9473 18.6621 24.8015 17.6856C24.7446 17.3061 25.3271 17.1579 25.3839 17.5414Z"
    fill="#789058"
  />
<path
    d="M26.989 9.65788C26.3694 8.67802 25.7552 7.69065 25.013 6.79781C24.7665 6.50133 25.1966 6.08279 25.444 6.37902C26.2199 7.31196 26.8655 8.33891 27.5126 9.36346C27.7182 9.69064 27.1941 9.98312 26.989 9.65788Z"
    fill="#789058"
  />
<path
    d="M19.7721 8.50282C19.5613 7.71335 19.1433 7.04831 18.5125 6.52658C18.2143 6.27897 18.6484 5.86453 18.9435 6.10776C19.651 6.69395 20.1178 7.47264 20.3543 8.35773C20.4543 8.73268 19.8719 8.8768 19.7721 8.50282Z"
    fill="#789058"
  />
<path
    d="M11.981 9.11862C12.2258 9.67097 12.6133 10.1417 12.8569 10.6933C13.012 11.0454 12.4896 11.3405 12.3343 10.9875C12.0904 10.4349 11.703 9.96418 11.4583 9.4128C11.3022 9.06099 11.8246 8.76585 11.981 9.11862Z"
    fill="#789058"
  />
<path
    d="M9.78317 14.3241C9.51414 14.5524 9.24461 14.7829 8.97559 15.0112C8.68201 15.261 8.2615 14.8315 8.55701 14.5812C8.82604 14.3529 9.0958 14.1233 9.36459 13.894C9.65937 13.6449 10.0787 14.0737 9.78317 14.3241Z"
    fill="#789058"
  />
</svg>
