<?xml version="1.0" encoding="UTF-8" standalone="no"?><!DOCTYPE svg PUBLIC "-//W3C//DTD SVG 1.1//EN" "http://www.w3.org/Graphics/SVG/1.1/DTD/svg11.dtd"><svg width="100%" height="100%" viewBox="0 0 240 243" version="1.1" xmlns="http://www.w3.org/2000/svg" xmlns:xlink="http://www.w3.org/1999/xlink" xml:space="preserve" style="fill-rule:evenodd;clip-rule:evenodd;stroke-linejoin:round;stroke-miterlimit:1.41421;"><path d="M1.598,45.02c3.739,-6.339 12.278,-15.7 18.007,-19.704c9.119,-6.341 17.612,-7.359 26.597,-3.187c6.019,2.789 11,7.189 20.579,18.243c8.391,9.615 10.852,11.781 13.818,12.135c1.648,0.196 2.157,0.015 2.761,-1.136c1.182,-2.254 -0.735,-5.641 -8.369,-14.818c-6.527,-7.888 -8.356,-10.956 -9.974,-16.914c-1.304,-4.799 -1.443,-6.779 -0.756,-11.002c0.466,-2.832 2.203,-7.297 3.233,-8.35c0.66,-0.651 4.418,-0.169 9.09,1.182c10.992,3.198 18.07,9.005 22.615,18.548c2.055,4.337 4.31,13.816 5.828,24.396c0.748,5.25 1.8,11.62 2.373,14.169c2.397,11.029 7.435,19.451 11.036,18.473c3.86,-1.048 4.493,-8.992 1.587,-19.84c-4.046,-15.046 -3.607,-26.931 1.373,-35.454c1.435,-2.494 6.001,-7.255 7.226,-7.588c1.273,-0.302 10.718,7.91 15.905,13.801c6.438,7.269 9.685,12.914 12.252,21.191c2.675,8.678 3.171,15.199 1.712,23.624c-1.339,7.836 -3.613,13.993 -9.546,25.609c-3.686,7.27 -4.442,9.622 -4.312,13.623c0.147,4.211 1.787,6.729 4.716,7.093c1.733,0.216 1.881,0.176 3.208,-0.958c2.616,-2.256 3.799,-5.969 7.108,-22.112c2.979,-14.42 5.275,-22.258 8.274,-28.096c3.884,-7.711 6.706,-10.237 13.335,-11.952c5.887,-1.513 12.743,-1.657 22.088,-0.416l4.88,0.649l0.386,2.3c3.226,18.189 3.388,27.592 0.679,37.431c-1.123,4.084 -5.379,11.895 -8.602,15.733c-4.736,5.752 -11.736,12.119 -24.493,22.239c-6.402,5.045 -8.09,7.049 -10.633,12.506c-2.277,4.827 -3.187,8.079 -2.742,9.719c1.097,4.039 6.616,4.988 9.954,1.72c0.507,-0.482 1.898,-3.135 3.135,-5.919c4.182,-9.552 9.32,-17.345 14.581,-22.338c5.335,-5.012 8.275,-6.369 16.84,-7.708c7.53,-1.186 13.77,0.512 23.759,6.473c4.478,2.691 8.192,5.504 8.441,6.424c0.087,0.32 -0.309,1.501 -0.935,2.573c-0.578,1.101 -3.131,6.818 -5.603,12.686c-5.432,12.725 -7.164,16.33 -10.132,20.958c-4.163,6.54 -7.398,10.038 -11.732,12.718c-2.355,1.456 -3.336,1.808 -8.476,2.989c-6.216,1.474 -7.799,1.517 -12.698,0.357c-2.467,-0.575 -3.809,-1.112 -8.268,-3.294c-6.339,-3.087 -11.283,-2.947 -16.182,0.444c-2.75,1.907 -3.27,2.048 -3.596,0.848c-0.423,-1.559 2.215,-4.466 6.386,-7.015c2.164,-1.275 4.115,-2.02 10.727,-3.944c10.859,-3.164 15.647,-5.495 22.593,-11.031c6.403,-5.045 12.248,-12.73 11.585,-15.17c-0.575,-2.119 -4.019,-2.472 -9.428,-0.96c-9.492,2.621 -20.386,9.916 -29.553,19.748c-4.571,4.892 -6.675,6.537 -9.2,7.222c-3.526,0.958 -5.727,-0.248 -7.961,-4.365c-0.967,-1.798 -1.513,-3.367 -2.135,-6.247c-0.935,-4.47 -0.994,-7.33 -0.24,-11.743c1.776,-10.487 8.147,-21.664 19.125,-33.491c2.855,-3.137 6.226,-7.016 7.411,-8.669c5.459,-7.494 9.439,-17.935 9.77,-25.668c0.126,-2.912 -0.805,-6.781 -1.804,-7.669c-2.952,-2.505 -14.331,10.633 -21.914,25.274c-2.694,5.197 -3.353,6.879 -4.576,12.064c-1.877,7.766 -3.627,12.621 -6.15,17.128c-2.365,4.206 -4.529,6.512 -7.174,7.488c-2.311,0.885 -4.379,0.459 -5.802,-1.259c-1.402,-1.637 -3.468,-7.045 -5.304,-13.803c-4.029,-14.836 -3.083,-26.472 3.461,-43.321c2.193,-5.577 3.063,-8.389 3.372,-10.921c0.817,-6.534 -2.741,-19.78 -6.985,-26.013c-2.39,-3.517 -3.496,-2.014 -4.765,6.232c-1.077,7.334 -1.122,11.426 -0.152,20.867c1.841,17.491 1.539,24.744 -1.192,29.222c-1.22,1.963 -2.173,2.565 -4.624,2.93c-5.998,0.813 -12.739,-4.785 -18.486,-15.376c-3.64,-6.654 -4.856,-10.103 -10.54,-29.857c-5.64,-19.595 -6.601,-22.254 -8.992,-25.039c-1.332,-1.528 -2.831,-1.765 -3.562,-0.493c-1.872,3.085 -0.114,10.293 5.783,23.935c3.662,8.495 4.52,13.415 2.567,14.59c-1.175,0.662 -1.777,0.354 -8.001,-3.925c-22.299,-15.328 -41.827,-22.949 -53.819,-21.023c-3.205,0.527 -2.874,0.866 1.373,1.387c6.921,0.826 15.275,3.409 23.052,7.094c4.81,2.301 17.034,9.887 22.135,13.698c13.221,9.935 28.631,24.558 36.99,35.083c12.127,15.3 21.079,31.676 28.59,52.437c2.458,6.847 7.33,25.963 8.479,33.423c1.409,9.15 1.938,15.061 1.478,16.302c-0.992,2.803 -3.568,4.619 -5.744,4.094c-0.984,-0.248 -1.145,-0.548 -1.867,-3.058c-0.677,-2.349 -0.919,-2.798 -1.883,-3.267c-0.868,-0.408 -1.421,-0.387 -2.703,0.176c-2.49,1.106 -2.981,2.527 -3.385,9.55c-0.47,8.544 -0.995,11.306 -2.886,14.911c-2.462,4.877 -7.692,9.689 -13.428,12.492c-3.167,1.548 -10.158,3.103 -13.675,3.07c-4.127,-0.081 -8.754,-0.972 -12.927,-2.543c-4.03,-1.482 -11.812,-6.068 -13.56,-7.955l-0.968,-1.068l1.811,-0.964c6.671,-3.615 10.193,-10.755 12.496,-25.464c1.034,-6.465 2.15,-9.988 4.713,-14.935c3.481,-6.7 8.453,-12.172 14.648,-16.216c2.434,-1.606 3.753,-2.179 7.417,-3.217c2.525,-0.685 5.771,-1.352 7.492,-1.476c2.506,-0.165 3.333,-0.347 4.661,-1.18c2.843,-1.717 3.901,-5.01 2.9,-8.989c-0.538,-2.13 -2.082,-3.557 -4.379,-4.092c-1.617,-0.377 -2.504,-0.265 -5.993,0.683c-3.935,1.068 -4.184,1.179 -6.477,3.304c-1.304,1.213 -5.342,5.573 -8.929,9.682c-11.39,13.098 -18.888,19.686 -26.336,23.083c-8.905,4.05 -19.249,0.891 -30.071,-9.31c-3.904,-3.663 -8.797,-9.204 -8.572,-9.695c0.116,-0.16 0.546,-0.191 1.02,-0.062c2.792,0.744 5.321,-1.832 11.584,-11.648c10.226,-15.917 16.233,-22.271 25.179,-26.462c6.33,-2.964 11.903,-3.576 21.307,-2.265c5.624,0.748 9.996,0.849 12.123,0.314c4.057,-1.058 6.742,-4.235 5.982,-7.034c-1.184,-4.359 -8.979,-9.284 -16.682,-10.499c-2.462,-0.405 -3.322,-0.343 -6.552,0.534c-4.863,1.321 -6.37,2.374 -20.1,14.047c-14.248,12.114 -20.019,14.497 -29.725,12.367c-5.425,-1.189 -10.337,-3.72 -17.603,-9.046c-3.441,-2.544 -6.258,-4.699 -6.291,-4.819c-0.032,-0.12 0.578,-1.101 1.3,-2.113c0.758,-1.022 3.802,-6.4 6.839,-11.948c7.156,-13.28 9.755,-16.476 16.3,-19.971c1.81,-0.964 3.782,-1.628 7.686,-2.517c5.931,-1.353 10.338,-1.562 18.798,-0.94c5.723,0.378 6.699,0.156 8.098,-2.027c3.658,-5.76 -6.851,-11.58 -20.479,-11.271c-1.912,0.004 -7.841,0.627 -13.111,1.328c-13.348,1.779 -17.433,1.857 -23.182,0.499c-8.351,-1.983 -16.302,-8.068 -21.834,-16.7c-1.207,-1.948 -7.311,-12.828 -7.452,-13.348c-0.054,-0.2 0.67,-1.642 1.595,-3.225Zm60.834,70.775c1.544,1.427 4.121,1.672 7.813,0.884c3.051,-0.657 4.047,-1.099 9.239,-4.141c10.608,-6.144 14.408,-7.562 20.817,-7.886c1.928,-0.094 3.43,-0.287 3.386,-0.447c-0.26,-0.96 -5.309,-2.38 -9.72,-2.771c-9.311,-0.82 -26.571,3.137 -30.516,6.957c-2.488,2.436 -2.957,5.698 -1.019,7.404Zm30.067,41.73c1.867,1.297 4.728,1.851 7.79,1.535c2.67,-0.296 5.746,-2.033 11.901,-6.668c3.062,-2.377 6.616,-4.845 7.866,-5.528c2.864,-1.637 7.207,-2.816 10.123,-2.792c3.15,0.003 3.15,0.003 0.589,-1.062c-8.216,-3.394 -18.034,-3.733 -26.946,-0.883c-6.706,2.164 -10.405,4.543 -12.588,8.099c-1.82,2.985 -1.391,5.444 1.265,7.299Zm24.913,48.584c1.412,1.677 3.255,2.594 4.517,2.251c1.596,-0.434 3.409,-2.858 4.964,-6.673c2.56,-6.277 5.603,-9.895 11.694,-13.739c5.652,-3.553 5.932,-5.604 0.846,-5.983c-7.97,-0.584 -17.42,4.688 -21.276,11.918c-2.989,5.578 -3.195,9.37 -0.745,12.226Z" style="fill:#12a163;fill-rule:nonzero;"/></svg>