<?xml version="1.0" encoding="UTF-8" standalone="no" ?>
<!DOCTYPE svg PUBLIC "-//W3C//DTD SVG 1.1//EN"
  "http://www.w3.org/Graphics/SVG/1.1/DTD/svg11.dtd">
<svg
  width="100%"
  height="100%"
  viewBox="0 0 13810 43548"
  version="1.1"
  xmlns="http://www.w3.org/2000/svg"
  style="fill-rule:evenodd;clip-rule:evenodd;stroke-linecap:round;stroke-linejoin:round;stroke-miterlimit:1.5;"
>
    <g transform="matrix(5.55556,0,0,5.55556,-2774.35,-73.8948)">
        <g id="line" transform="matrix(-1,0,0,1,2998.46,0)">
            <path
        d="M54.932,341.865C-36.003,373.173 541.705,35.496 1052.29,45.635C1562.88,55.776 1904.78,694.556 1540.21,1059.99C1175.64,1425.41 596.367,1823.76 1397.51,2014.85C1704.8,2075.65 2203.33,2090.61 2115.53,1743.17C2043.8,1459.33 1396.62,2040.14 1199.62,2537.2C1002.61,3034.26 1273.33,3339.89 1827.54,3314.63C2381.76,3289.38 2734,3882.54 2209.39,4250.76C1935.65,4442.89 1383.98,4704.9 998.771,4711.61C562.568,4719.2 319.909,4445.69 570.172,4222.71C735.696,4075.24 982.209,4158.4 1026.45,4449.89C1077.98,4789.35 807.401,5068.41 759.161,5479.73C733.39,5699.46 1226.07,5928.61 1368.6,6228.85C1511.13,6529.08 1415.19,6769.02 1253.5,7205.08C1091.81,7641.14 1336.41,7726.65 1400.11,7819.75"
        style="fill:none;stroke:rgb(193,193,193);stroke-width:64.22px;"
      />
        </g>
    </g>
</svg>
