<?xml version="1.0" encoding="UTF-8" standalone="no" ?>
<!DOCTYPE svg PUBLIC "-//W3C//DTD SVG 1.1//EN"
  "http://www.w3.org/Graphics/SVG/1.1/DTD/svg11.dtd">
<svg
  id="line"
  width="100%"
  height="100%"
  viewBox="0 0 2999 7866"
  version="1.1"
  xmlns="http://www.w3.org/2000/svg"
  xmlns:xlink="http://www.w3.org/1999/xlink"
  xml:space="preserve"
  style="fill-rule:evenodd;clip-rule:evenodd;stroke-linecap:round;stroke-linejoin:round;stroke-miterlimit:1.5;"
><path
    id="line"
    d="M54.932,341.865c-90.935,31.308 486.773,-306.369 997.359,-296.23c510.584,10.141 852.489,648.921 487.92,1014.35c-364.569,365.424 -943.844,763.775 -142.699,954.863c307.288,60.801 805.816,75.758 718.019,-271.676c-71.729,-283.847 -429.138,35.243 -384.007,450.471c10.109,93.017 372.833,1344.02 832.17,878.549c459.337,-465.462 575.705,891.572 0,1173.3c-575.703,281.727 -434.077,961.624 -832.17,600.28c-398.091,-361.345 -808.432,-73.494 -673.693,440.963c134.739,514.457 997.22,520.276 997.22,912.243c0,391.967 -385.46,528.161 -547.146,964.224c-161.687,436.064 -171.495,563.452 -107.796,656.545"
    style="fill:none;stroke:#c1c1c1;stroke-width:64.22px;"
  /></svg>
