<?xml version="1.0" encoding="UTF-8" standalone="no" ?>
<svg
  width="300px"
  height="300px"
  viewBox="0 0 168 143"
  version="1.1"
  xmlns="http://www.w3.org/2000/svg"
  xmlns:xlink="http://www.w3.org/1999/xlink"
  xml:space="preserve"
  style="fill-rule:evenodd;clip-rule:evenodd;stroke-linecap:round;stroke-linejoin:round;stroke-miterlimit:1.5;"
><path
    id="bigStar"
    d="M92.398,25.067c0,0 3.713,-1.633 4.162,-3.347c0.449,-1.714 1.714,-7.1 1.714,-7.1c0,0 1.287,6.689 2.084,7.903c0.796,1.214 3.303,2.054 3.792,2.544c0,0 -2.352,1.435 -2.856,1.754c-0.505,0.32 -1.027,0.805 -1.388,2.122c-0.36,1.318 -1.632,6.828 -1.632,6.828c0,0 -1.328,-6.047 -1.562,-6.828c-0.235,-0.781 -0.688,-1.708 -1.397,-2.122c-0.71,-0.414 -2.917,-1.754 -2.917,-1.754Zm3.55,0.042c0,0 0.915,-0.621 1.568,-1.376c0.459,-0.53 0.704,-1.219 0.771,-1.401c0.154,0.315 0.275,0.775 0.689,1.401c0.413,0.626 0.684,0.814 1.652,1.376c0,0 -1.693,0.878 -2.403,2.758c0,0 -0.355,-1.671 -2.277,-2.758Z"
    style="fill:#fff;"
  /><path
    id="star"
    d="M107.826,40.108c0,0 1.987,-0.874 2.227,-1.79c0.24,-0.917 0.917,-3.798 0.917,-3.798c0,0 0.688,3.577 1.114,4.227c0.426,0.649 1.767,1.099 2.029,1.361c0,0 -1.258,0.767 -1.528,0.938c-0.27,0.171 -0.549,0.431 -0.742,1.135c-0.193,0.705 -0.873,3.653 -0.873,3.653c0,0 -0.711,-3.235 -0.836,-3.653c-0.126,-0.418 -0.368,-0.913 -0.747,-1.135c-0.38,-0.221 -1.561,-0.938 -1.561,-0.938Zm1.899,0.022c0,0 0.49,-0.332 0.839,-0.736c0.246,-0.283 0.377,-0.652 0.412,-0.749c0.083,0.169 0.148,0.414 0.369,0.749c0.221,0.335 0.366,0.436 0.884,0.736c0,0 -0.906,0.47 -1.286,1.476c0,0 -0.19,-0.895 -1.218,-1.476Z"
    style="fill:#fff;"
  /><path
    id="feuille1"
    d="M43.399,106.358c0,0 0.319,-4.224 2.551,-8.209c2.231,-3.985 6.615,-7.891 8.129,-6.376c1.514,1.514 -4.144,13.788 -9.803,16.817l-0.877,-2.232Z"
    style="fill:none;stroke:#fff;stroke-width:2.31px;"
  /><path
    id="feuille2"
    d="M41.247,101.576c0,0 -5.42,-1.993 -9.484,2.072c-4.065,4.065 -5.181,7.014 -4.384,8.528c0.797,1.515 8.289,-1.594 11.397,-4.463c3.109,-2.869 3.109,-4.065 3.109,-4.065l-0.638,-2.072Z"
    style="fill:#fff;"
  /><path
    id="feuille3"
    d="M37.999,89.481c0,0 -5.678,-2.291 -10.759,0c-5.081,2.292 -8.768,8.468 -6.177,8.668c2.59,0.199 12.752,-0.897 16.936,-8.668Z"
    style="fill:none;stroke:#fff;stroke-width:2.31px;"
  /><path
    id="feuille4"
    d="M38.774,91.596c0,0 5.181,1.514 8.209,-6.297c3.029,-7.81 4.464,-17.136 1.754,-16.817c-2.71,0.319 -7.253,3.109 -9.006,7.014c-1.754,3.905 -2.87,8.448 -2.631,9.803c0.24,1.355 1.674,6.297 1.674,6.297Z"
    style="fill:#fff;"
  /><path
    id="feuille5"
    d="M31.84,74.46c0,0 -4.065,-3.427 -12.194,0.717c-8.13,4.145 -8.05,10.919 -7.014,11.796c1.036,0.877 18.65,-4.941 19.208,-12.513Z"
    style="fill:#fff;"
  /><path
    id="feuille6"
    d="M30.729,71.691c-0.797,5.38 19.627,-27.397 12.055,-24.11c-7.572,3.288 -11.258,18.73 -12.055,24.11Z"
    style="fill:none;stroke:#fff;stroke-width:2.31px;"
  /><path
    id="feuille7"
    d="M23.288,63.88c1.968,2.668 -2.02,4.744 -5.251,6.187c-3.23,1.442 -15.689,7.846 -17.104,7.846c-2.736,0 0.731,-8.163 7.968,-12.107c7.223,-3.937 12.419,-4.594 14.387,-1.926Z"
    style="fill:#fff;"
  /><path
    id="feuille8"
    d="M21.258,64.771c0,0 -13.271,-13.541 -6.37,-33.559c0,0 2.086,-6.77 5.616,0.515c3.531,7.285 3.818,19.722 3.484,23.863c-0.333,4.141 -0.493,6.302 -0.8,9.181l-1.93,0Z"
    style="fill:#fff;"
  /><path
    id="hand"
    d="M128.268,133.178c-0.153,-4.795 -3.899,-17.399 -3.899,-17.399c1.273,0.551 2.5,1.129 3.38,1.914c-0.765,-1.842 -24.166,-9.189 -26.209,-10.273c-2.043,-1.084 -11.538,-6.44 -13.769,-7.014c-2.232,-0.574 -5.101,-1.466 -7.2,-2.955c-2.098,-1.489 -10.455,-8.135 -10.455,-8.135c3.85,-3.705 11.324,3.045 10.977,3.17c0.523,-0.051 4.203,0.883 5.977,1.665c1.773,0.781 4.174,0.319 4.174,0.319c0.431,0.873 11.442,9.192 11.442,9.192c-2.231,-0.956 -15.047,-12.178 -16.976,-14.346c-1.928,-2.168 -5.149,-7.269 -7.763,-10.712c-2.614,-3.443 -6.091,-9.079 -6.091,-9.079c3.363,-2.604 6.888,0.286 6.888,0.286c1.535,0.75 5.66,6.296 6.966,7.602c1.306,1.306 3.823,3.69 4.694,7.99c0.872,4.299 5.321,7.458 5.321,7.458l9.756,6.759c0.53,0.656 -4.945,-3.707 -9.756,-6.759c-3.66,-2.321 -5.164,-6.758 -5.547,-8.225c-0.383,-1.466 -2.63,-12.8 -3.108,-15.111c-0.479,-2.312 -0.319,-5.579 2.311,-6.248c2.63,-0.668 5.422,9.386 4.789,11.081c-0.634,1.696 -1.396,5.893 -1.6,9.532c-0.245,4.347 4.595,7.087 8.97,9.775c4.155,2.553 7.956,4.544 7.927,4.363c-16.642,-8.672 -16.706,-10.84 -16.897,-14.138c-0.191,-3.299 2.09,-11.176 2.345,-12.677c0.255,-1.502 2.054,-11.187 2.054,-11.187c6.122,0.573 3.252,9.883 3.635,12.407c0.382,2.524 -0.364,9.384 -0.51,10.164c-0.146,0.781 3.507,2.168 7.46,2.806c3.953,0.637 12.37,4.846 12.37,4.846c2.996,-7.843 -3.252,-14.028 -5.165,-16.515c-1.913,-2.486 -3.762,-7.332 -3.698,-10.457c0.063,-3.124 3.664,-0.753 5.348,1.134c1.683,1.888 4.117,4.036 8.476,8.022c4.358,3.985 8.717,8.094 10.959,11.457c2.241,3.362 7.93,16.261 9.258,21.082c1.327,4.821 1.948,12.721 1.948,12.721"
    style="fill:none;stroke:#fff;stroke-width:0.88px;"
  /><path
    id="tige"
    class="tige"
    d="M20.088,63.344c2.318,0.45 12.924,5.293 20.585,35.045c7.553,29.335 20.587,33.766 20.587,33.766c10.698,6.176 22.833,9.428 35.185,9.428c19.961,0 37.992,-8.329 50.804,-21.698c12.117,-12.643 19.566,-29.795 19.566,-48.672c0,-38.838 -31.532,-70.37 -70.37,-70.37c-12.352,0 -27.445,4.106 -38.298,10.905"
    style="fill:none;stroke:#fff;stroke-width:2.4px;"
  /><path
    id="ring"
    d="M98.001,99.803c0,0 3.068,-2.089 3.134,-2.807"
    style="fill:none;stroke:#fff;stroke-width:1.06px;"
  /><path
    id="nail1"
    d="M115.925,66.264c0,0 -1.798,1.575 -3.689,-3.559c-0.686,-1.861 -1.957,-3.685 -0.457,-4.374c1.207,-0.555 3.558,3.036 4.146,3.95c0.587,0.914 1.208,3.297 0,3.983Z"
    style="fill:#fff;"
  /><path
    id="nail2"
    d="M94.967,66.312c0,0 0.816,-8.61 1.754,-8.651c0.939,-0.041 1.551,-0.123 1.837,1.714c0.285,1.836 0.693,8.039 -3.591,6.937Z"
    style="fill:#fff;"
  /><path
    id="nail3"
    d="M86.925,69.426c0,0 -2.06,-8.4 -1.187,-8.747c0.873,-0.347 1.814,-0.311 2.869,1.219c1.334,1.934 3.438,7.614 -1.682,7.528Z"
    style="fill:#fff;"
  /><path
    id="nail4"
    d="M75.398,75.071c0,0 -5.103,-5.764 -4.465,-6.454c0.637,-0.69 1.071,-1.789 2.665,-0.834c2.231,1.338 6.785,5.444 1.8,7.288Z"
    style="fill:#fff;"
  /><path
    id="nail5"
    d="M75.402,94.029c0,0 -6.36,-4.317 -6.087,-4.801c0.272,-0.483 0.228,-0.989 1.88,-0.506c1.963,0.574 6.806,2.959 4.207,5.307Z"
    style="fill:#fff;"
  /></svg>
