<?xml version="1.0" encoding="UTF-8" standalone="no" ?>
<!DOCTYPE svg PUBLIC "-//W3C//DTD SVG 1.1//EN"
  "http://www.w3.org/Graphics/SVG/1.1/DTD/svg11.dtd">
<svg
  width="100%"
  height="100%"
  viewBox="0 0 933 793"
  version="1.1"
  xmlns="http://www.w3.org/2000/svg"
  xmlns:xlink="http://www.w3.org/1999/xlink"
  xml:space="preserve"
  xmlns:serif="http://www.serif.com/"
  style="fill-rule:evenodd;clip-rule:evenodd;stroke-linecap:round;stroke-linejoin:round;stroke-miterlimit:1.5;"
>
    <g transform="matrix(5.55556,0,0,5.55556,-1827.93,-341.449)">
        <g>
            <g transform="matrix(1.16806,0,0,1.16806,-76.0563,-14.5438)">
                <path
          d="M421.425,86.685C421.425,86.685 425.138,85.052 425.587,83.338C426.036,81.624 427.301,76.238 427.301,76.238C427.301,76.238 428.588,82.926 429.384,84.141C430.181,85.355 432.687,86.195 433.177,86.685C433.177,86.685 430.825,88.12 430.321,88.439C429.816,88.759 429.294,89.244 428.933,90.561C428.572,91.878 427.301,97.389 427.301,97.389C427.301,97.389 425.973,91.342 425.738,90.561C425.504,89.78 425.051,88.853 424.341,88.439C423.632,88.025 421.425,86.685 421.425,86.685ZM424.056,86.742C424.056,86.742 425.399,86.113 426.182,85.096C426.964,84.078 427.16,82.921 427.327,82.573C427.394,82.832 428.03,84.489 428.375,84.998C428.72,85.506 429.136,86.173 430.453,86.673C430.453,86.673 429.026,87.349 428.388,88.39C427.749,89.431 427.604,90.027 427.312,91.09C427.312,91.09 427.074,89.643 426.12,88.362C425.633,87.707 424.706,87.109 424.056,86.742Z"
          style="fill:white;"
        />
            </g>
            <g transform="matrix(0.705548,0,0,0.705548,136.129,37.9611)">
                <path
          d="M421.425,86.685C421.425,86.685 425.138,85.052 425.587,83.338C426.036,81.624 427.301,76.238 427.301,76.238C427.301,76.238 428.588,82.926 429.384,84.141C430.181,85.355 432.687,86.195 433.177,86.685C433.177,86.685 430.825,88.12 430.321,88.439C429.816,88.759 429.294,89.244 428.933,90.561C428.572,91.878 427.301,97.389 427.301,97.389C427.301,97.389 425.973,91.342 425.738,90.561C425.504,89.78 425.051,88.853 424.341,88.439C423.632,88.025 421.425,86.685 421.425,86.685ZM424.056,86.742C424.056,86.742 425.399,86.113 426.182,85.096C426.964,84.078 427.16,82.921 427.327,82.573C427.394,82.832 428.03,84.489 428.375,84.998C428.72,85.506 429.136,86.173 430.453,86.673C430.453,86.673 429.026,87.349 428.388,88.39C427.749,89.431 427.604,90.027 427.312,91.09C427.312,91.09 427.074,89.643 426.12,88.362C425.633,87.707 424.706,87.109 424.056,86.742Z"
          style="fill:white;"
        />
            </g>
            <path
        id="feuille1"
        d="M372.426,167.976C372.426,167.976 372.745,163.752 374.976,159.767C377.208,155.782 381.592,151.876 383.106,153.39C384.62,154.905 378.961,167.179 373.303,170.208L372.426,167.976Z"
        style="fill:none;stroke:white;stroke-width:2.31px;"
      />
            <path
        id="feuille2"
        d="M370.274,163.194C370.274,163.194 364.854,161.201 360.789,165.266C356.725,169.331 355.609,172.28 356.406,173.794C357.203,175.309 364.695,172.2 367.803,169.331C370.912,166.462 370.912,165.266 370.912,165.266L370.274,163.194Z"
        style="fill:white;"
      />
            <path
        id="feuille3"
        d="M367.026,151.099C367.026,151.099 361.347,148.808 356.266,151.099C351.185,153.39 347.499,159.567 350.089,159.767C352.68,159.966 362.842,158.87 367.026,151.099Z"
        style="fill:none;stroke:white;stroke-width:2.31px;"
      />
            <path
        id="feuille4"
        d="M367.801,153.214C367.801,153.214 372.982,154.728 376.01,146.917C379.039,139.106 380.474,129.781 377.764,130.1C375.054,130.419 370.511,133.209 368.757,137.114C367.004,141.019 365.888,145.562 366.127,146.917C366.366,148.272 367.801,153.214 367.801,153.214Z"
        style="fill:white;"
      />
            <path
        id="feuille5"
        d="M360.867,136.078C360.867,136.078 356.802,132.651 348.673,136.795C340.543,140.94 340.623,147.714 341.659,148.591C342.695,149.468 360.309,143.649 360.867,136.078Z"
        style="fill:white;"
      />
            <g id="feuille6" transform="matrix(1,0,0,1,0.498137,0)">
                <path
          d="M359.258,133.309C358.461,138.689 378.884,105.912 371.313,109.199C363.741,112.487 360.055,127.929 359.258,133.309Z"
          style="fill:none;stroke:white;stroke-width:2.31px;"
        />
            </g>
            <path
        id="feuille7"
        d="M352.315,125.497C354.283,128.165 350.295,130.242 347.064,131.685C343.833,133.127 331.374,139.531 329.96,139.531C327.224,139.531 330.691,131.368 337.927,127.424C345.151,123.487 350.347,122.83 352.315,125.497Z"
        style="fill:white;"
      />
            <path
        id="feuille8"
        d="M350.285,126.389C350.285,126.389 337.014,112.848 343.915,92.83C343.915,92.83 346,86.06 349.531,93.345C353.062,100.63 353.349,113.067 353.015,117.208C352.682,121.349 352.522,123.51 352.215,126.389L350.285,126.389Z"
        style="fill:white;"
      />
            <g
        id="Main"
        transform="matrix(6.01952e-17,0.983421,-0.983421,6.1915e-17,565.859,-320.776)"
      >
                <path
          d="M524.263,110.394C519.388,110.55 506.571,114.359 506.571,114.359C507.131,113.065 507.719,111.817 508.517,110.922C506.645,111.7 499.173,135.495 498.071,137.573C496.969,139.65 491.523,149.305 490.939,151.575C490.356,153.844 489.448,156.762 487.934,158.895C486.42,161.029 479.662,169.527 479.662,169.527C475.894,165.612 482.758,158.012 482.885,158.365C482.834,157.833 483.784,154.09 484.578,152.287C485.372,150.484 484.903,148.043 484.903,148.043C485.791,147.604 494.25,136.407 494.25,136.407C493.278,138.676 481.866,151.709 479.662,153.67C477.457,155.631 472.271,158.905 468.769,161.564C465.268,164.222 459.537,167.757 459.537,167.757C456.889,164.338 459.828,160.753 459.828,160.753C460.591,159.193 466.231,154.997 467.558,153.67C468.886,152.342 471.311,149.782 475.683,148.896C480.055,148.011 483.267,143.486 483.267,143.486L490.14,133.566C490.806,133.027 486.37,138.594 483.267,143.486C480.906,147.207 476.394,148.737 474.903,149.126C473.412,149.516 461.887,151.801 459.537,152.287C457.187,152.774 453.864,152.611 453.184,149.937C452.505,147.262 462.728,144.424 464.452,145.068C466.176,145.712 470.445,146.486 474.144,146.694C478.565,146.943 481.35,142.022 484.084,137.573C486.68,133.348 488.705,129.482 488.52,129.513C479.703,146.435 477.498,146.5 474.144,146.694C470.79,146.889 462.78,144.569 461.253,144.31C459.727,144.05 449.878,142.221 449.878,142.221C450.461,135.996 459.927,138.914 462.494,138.525C465.06,138.136 472.036,138.895 472.83,139.044C473.624,139.192 475.034,135.478 475.683,131.458C476.331,127.438 480.61,118.879 480.61,118.879C472.635,115.832 466.346,122.186 463.818,124.131C461.289,126.076 456.361,127.957 453.184,127.892C450.007,127.827 452.418,124.165 454.337,122.454C456.257,120.742 458.442,118.267 462.494,113.835C466.546,109.402 470.725,104.97 474.144,102.691C477.563,100.411 490.68,94.627 495.582,93.277C500.484,91.927 508.517,91.296 508.517,91.296"
          style="fill:none;stroke:white;stroke-width:1.53px;"
        />
            </g>
            <path
        id="tige"
        d="M349.114,124.962C351.432,125.412 362.039,130.254 369.7,160.007C377.253,189.342 390.287,193.773 390.287,193.773C400.985,199.949 413.12,203.201 425.472,203.201C445.433,203.201 463.464,194.872 476.276,181.503C488.393,168.859 495.842,151.708 495.842,132.831C495.842,93.992 464.31,62.461 425.472,62.461C413.12,62.461 398.027,66.567 387.174,73.366"
        style="fill:none;stroke:white;stroke-width:2px;"
      />
            <path
        id="bague"
        d="M427.027,161.421C427.027,161.421 430.096,159.332 430.161,158.614"
        style="fill:none;stroke:white;stroke-width:1.06px;"
      />
            <path
        id="ongle1"
        d="M444.951,127.882C444.951,127.882 443.154,129.457 441.262,124.323C440.577,122.462 439.305,120.638 440.805,119.949C442.013,119.394 444.364,122.985 444.951,123.899C445.539,124.813 446.159,127.196 444.951,127.882Z"
        style="fill:white;"
      />
            <path
        id="ongle2"
        d="M423.993,127.93C423.993,127.93 424.81,119.319 425.748,119.279C426.687,119.238 427.299,119.156 427.584,120.993C427.87,122.829 428.278,129.032 423.993,127.93Z"
        style="fill:white;"
      />
            <g
        id="ongle3"
        transform="matrix(0.944385,-0.328843,0.328843,0.944385,-26.5294,149.656)"
      >
                <path
          d="M423.993,127.93C423.993,127.93 424.81,119.319 425.748,119.279C426.687,119.238 427.564,119.581 428.057,121.373C428.681,123.639 428.8,129.694 423.993,127.93Z"
          style="fill:white;"
        />
            </g>
            <g
        id="ongle4"
        transform="matrix(0.709753,-0.704451,0.704451,0.709753,13.3089,344.801)"
      >
                <path
          d="M424.201,127.814C424.201,127.814 424.639,120.128 425.578,120.087C426.517,120.046 427.599,119.572 428.057,121.373C428.698,123.894 429.038,130.017 424.201,127.814Z"
          style="fill:white;"
        />
            </g>
            <g
        id="ongle5"
        transform="matrix(0.32632,-0.491281,0.832989,0.553289,159.436,293.482)"
      >
                <path
          d="M424.507,127.814C424.507,127.814 424.639,120.128 425.578,120.087C426.517,120.046 427.189,119.73 428.057,121.373C429.088,123.326 430.262,128.68 424.507,127.814Z"
          style="fill:white;"
        />
            </g>
        </g>
    </g>
</svg>
