<svg width="933" height="793" viewBox="0 0 933 793" fill="none" xmlns="http://www.w3.org/2000/svg">
<path fill-rule="evenodd" clip-rule="evenodd" d="M484.257 140.271C484.257 140.271 508.352 129.674 511.265 118.551C514.179 107.429 522.388 72.4778 522.388 72.4778C522.388 72.4778 530.739 115.878 535.905 123.762C541.077 131.64 557.339 137.091 560.518 140.271C560.518 140.271 545.256 149.583 541.985 151.653C538.708 153.729 535.321 156.877 532.978 165.423C530.636 173.969 522.388 209.731 522.388 209.731C522.388 209.731 513.77 170.491 512.245 165.423C510.727 160.355 507.787 154.339 503.18 151.653C498.579 148.966 484.257 140.271 484.257 140.271ZM501.33 140.641C501.33 140.641 510.045 136.559 515.126 129.959C520.201 123.353 521.473 115.845 522.556 113.587C522.991 115.268 527.118 126.02 529.357 129.323C531.596 132.62 534.295 136.948 542.842 140.193C542.842 140.193 533.582 144.58 529.442 151.335C525.295 158.09 524.354 161.958 522.459 168.856C522.459 168.856 520.915 159.466 514.724 151.153C511.564 146.903 505.548 143.022 501.33 140.641Z" fill="black"/>
<path fill-rule="evenodd" clip-rule="evenodd" d="M580.208 209.227C580.208 209.227 594.762 202.826 596.522 196.107C598.282 189.389 603.241 168.277 603.241 168.277C603.241 168.277 608.285 194.492 611.405 199.255C614.529 204.013 624.352 207.306 626.273 209.227C626.273 209.227 617.054 214.851 615.078 216.102C613.099 217.356 611.053 219.257 609.638 224.419C608.223 229.582 603.241 251.183 603.241 251.183C603.241 251.183 598.035 227.481 597.114 224.419C596.197 221.358 594.421 217.725 591.638 216.102C588.859 214.479 580.208 209.227 580.208 209.227ZM590.521 209.45C590.521 209.45 595.785 206.985 598.855 202.998C601.92 199.008 602.688 194.473 603.343 193.109C603.605 194.124 606.098 200.619 607.45 202.614C608.803 204.605 610.433 207.22 615.596 209.18C615.596 209.18 610.002 211.829 607.501 215.91C604.997 219.99 604.428 222.326 603.284 226.493C603.284 226.493 602.351 220.821 598.611 215.8C596.703 213.233 593.069 210.889 590.521 209.45Z" fill="black"/>
<path fill-rule="evenodd" clip-rule="evenodd" d="M241.105 591.752C241.105 591.752 242.877 568.285 255.272 546.146C267.672 524.007 292.027 502.307 300.438 510.718C308.849 519.135 277.411 587.324 245.977 604.152L241.105 591.752Z" stroke="black" stroke-width="12.8333" stroke-miterlimit="1.5" stroke-linecap="round" stroke-linejoin="round"/>
<path fill-rule="evenodd" clip-rule="evenodd" d="M229.149 565.185C229.149 565.185 199.038 554.113 176.455 576.696C153.877 599.28 147.677 615.663 152.105 624.074C156.533 632.491 198.155 615.219 215.422 599.28C232.694 583.341 232.694 576.696 232.694 576.696L229.149 565.185Z" fill="black"/>
<path fill-rule="evenodd" clip-rule="evenodd" d="M211.105 497.991C211.105 497.991 179.555 485.263 151.327 497.991C123.099 510.718 102.621 545.035 117.01 546.146C131.405 547.252 187.86 541.163 211.105 497.991Z" stroke="black" stroke-width="12.8333" stroke-miterlimit="1.5" stroke-linecap="round" stroke-linejoin="round"/>
<path fill-rule="evenodd" clip-rule="evenodd" d="M215.41 509.741C215.41 509.741 244.194 518.152 261.016 474.757C277.844 431.363 285.816 379.557 270.761 381.329C255.705 383.102 230.466 398.602 220.721 420.296C210.983 441.991 204.783 467.229 206.11 474.757C207.438 482.285 215.41 509.741 215.41 509.741Z" fill="black"/>
<path fill-rule="evenodd" clip-rule="evenodd" d="M176.888 414.541C176.888 414.541 154.305 395.502 109.144 418.524C63.977 441.552 64.4214 479.185 70.177 484.057C75.9325 488.929 173.788 456.602 176.888 414.541Z" fill="black"/>
<path fill-rule="evenodd" clip-rule="evenodd" d="M170.717 399.157C166.289 429.046 279.75 246.951 237.689 265.213C195.622 283.479 175.144 369.268 170.717 399.157Z" stroke="black" stroke-width="12.8333" stroke-miterlimit="1.5" stroke-linecap="round" stroke-linejoin="round"/>
<path fill-rule="evenodd" clip-rule="evenodd" d="M129.377 355.757C140.31 370.579 118.155 382.118 100.205 390.135C82.2548 398.146 13.0381 433.724 5.18254 433.724C-10.0175 433.724 9.24371 388.374 49.4437 366.463C89.5771 344.59 118.444 340.94 129.377 355.757Z" fill="black"/>
<path fill-rule="evenodd" clip-rule="evenodd" d="M118.099 360.713C118.099 360.713 44.3717 285.485 82.7106 174.274C82.7106 174.274 94.2939 136.663 113.911 177.135C133.527 217.607 135.122 286.702 133.266 309.707C131.416 332.713 130.527 344.718 128.822 360.713H118.099Z" fill="black"/>
<path d="M712.601 740.748C711.749 714.113 690.938 644.088 690.938 644.088C698.008 647.148 704.826 650.36 709.716 654.72C705.466 644.493 575.463 603.67 564.11 597.649C552.762 591.628 500.012 561.874 487.61 558.684C475.214 555.498 459.271 550.538 447.618 542.266C435.959 533.994 389.531 497.072 389.531 497.072C410.92 476.486 452.442 513.987 450.514 514.681C453.42 514.402 473.87 519.593 483.72 523.931C493.571 528.269 506.907 525.706 506.907 525.706C509.306 530.558 570.48 576.773 570.48 576.773C558.084 571.463 486.878 509.114 476.164 497.072C465.451 485.025 447.563 456.692 433.036 437.559C418.514 418.431 399.201 387.12 399.201 387.12C417.88 372.653 437.467 388.71 437.467 388.71C445.99 392.879 468.914 423.693 476.164 430.943C483.42 438.198 497.406 451.447 502.247 475.333C507.082 499.219 531.804 516.768 531.804 516.768M531.804 516.768L586.002 554.318C588.947 557.957 558.532 533.721 531.804 516.768ZM531.804 516.768C511.475 503.869 503.116 479.218 500.99 471.072C498.86 462.926 486.376 399.959 483.72 387.12C481.06 374.281 481.95 356.126 496.56 352.411C511.174 348.701 526.68 404.554 523.161 413.973C519.643 423.392 515.414 446.716 514.278 466.925M514.278 466.925C512.917 491.079 539.803 506.295 564.11 521.232C587.193 535.415 608.315 546.478 608.145 545.467C515.693 497.296 515.337 485.249 514.278 466.925ZM514.278 466.925C513.212 448.601 525.887 404.838 527.302 396.495C528.723 388.158 538.716 334.349 538.716 334.349C572.726 337.534 556.783 389.251 558.909 403.276C561.034 417.295 556.887 455.408 556.073 459.746C555.264 464.084 575.556 471.787 597.519 475.333C619.482 478.874 666.244 502.251 666.244 502.251C682.891 458.68 648.176 424.321 637.549 410.509C626.923 396.692 616.646 369.768 617.001 352.411C617.357 335.053 637.364 348.226 646.712 358.71C656.065 369.2 669.587 381.138 693.801 403.276C718.021 425.413 742.235 448.245 754.686 466.925C767.143 485.604 798.743 557.269 806.119 584.05C813.495 610.832 816.942 654.72 816.942 654.72" stroke="black" stroke-width="8.35909" stroke-miterlimit="1.5" stroke-linecap="round" stroke-linejoin="round"/>
<path d="M111.594 352.785C124.472 355.285 183.399 382.185 225.961 547.479C267.922 710.452 340.333 735.068 340.333 735.068C399.766 769.38 467.183 787.446 535.805 787.446C646.7 787.446 746.872 741.174 818.05 666.902C885.367 596.657 926.75 501.374 926.75 396.502C926.75 180.729 751.572 5.55682 535.805 5.55682C467.183 5.55682 383.333 28.3679 323.038 66.1402" stroke="black" stroke-width="11.1111" stroke-miterlimit="1.5" stroke-linecap="round" stroke-linejoin="round"/>
<path d="M544.444 555.335C544.444 555.335 561.494 543.729 561.855 539.74" stroke="black" stroke-width="5.88889" stroke-miterlimit="1.5" stroke-linecap="round" stroke-linejoin="round"/>
<path fill-rule="evenodd" clip-rule="evenodd" d="M644.022 369.007C644.022 369.007 634.039 377.757 623.527 349.235C619.722 338.896 612.655 328.763 620.989 324.935C627.7 321.851 640.761 341.801 644.022 346.879C647.289 351.957 650.733 365.196 644.022 369.007Z" fill="black"/>
<path fill-rule="evenodd" clip-rule="evenodd" d="M527.589 369.274C527.589 369.274 532.127 321.435 537.338 321.213C542.555 320.985 545.955 320.529 547.539 330.735C549.127 340.935 551.394 375.396 527.589 369.274Z" fill="black"/>
<path fill-rule="evenodd" clip-rule="evenodd" d="M482.917 386.574C482.917 386.574 471.472 339.903 476.32 337.98C481.172 336.049 486.4 336.246 492.26 344.748C499.674 355.496 511.36 387.047 482.917 386.574Z" fill="black"/>
<path fill-rule="evenodd" clip-rule="evenodd" d="M418.88 417.932C418.88 417.932 390.527 385.912 394.069 382.075C397.611 378.239 400.023 372.135 408.877 377.444C421.271 384.876 446.575 407.689 418.88 417.932Z" fill="black"/>
<path fill-rule="evenodd" clip-rule="evenodd" d="M418.898 523.262C418.898 523.262 383.569 499.276 385.081 496.587C386.594 493.898 386.35 491.093 395.527 493.774C406.434 496.963 433.339 510.217 418.898 523.262Z" fill="black"/>
</svg>
