<svg width="205" height="265" viewBox="0 0 205 265" fill="none" xmlns="http://www.w3.org/2000/svg">
<path d="M147.374 98.0871C155.253 92.1291 160.382 85.1974 164.523 76.013C167.347 69.0397 169.847 52.5523 162.818 47.0307C159.445 51.0142 158.483 57.0981 155.11 61.0824C150.075 66.7381 146.088 61.6984 149.601 55.8014C151.944 51.8708 159.043 47.779 159.274 42.9222C159.457 38.7045 153.457 33.1307 150.456 30.3439C145.661 34.4781 144.657 42.8685 142.419 48.8586C141.64 50.7249 140.04 56.7622 138.278 58.043C134.362 60.7032 133.463 55.5064 134.091 52.219C135.739 45.5432 141.019 40.0351 144.141 34.2375C147.115 28.6869 144.555 25.1631 140.128 20.8596C137.974 22.239 129.389 37.7632 126.587 35.7615C121.966 32.3418 135.669 22.1974 133.449 17.5435C131.917 13.9682 123.031 11.0025 119.791 9.73705C117.924 8.95833 115.713 7.64067 113.852 8.52847C111.844 9.66247 109.12 17.028 108.048 19.385C105.074 24.9357 102.933 31.3186 100.697 37.3088C103.786 37.1532 117.967 39.6111 115.578 44.1801C113.042 48.9936 103.121 44.4136 100.466 42.1656C96.847 46.0023 90.0247 60.2466 92.7836 64.5548C98.6478 73.7087 110.641 65.8747 117.949 65.9011C123.982 65.8337 123.014 70.2519 118.806 73.403C115.527 76.1105 111.164 76.1723 107.337 75.89C105.424 75.7481 99.7786 74.0488 98.1635 75.0833C96.9388 76.0192 95.4384 82.4488 95.59 83.8707C97.0889 93.088 116.09 99.7491 123.795 101.345C131.009 102.648 141.213 103.401 147.33 98.724" fill="black"/>
<path d="M117.622 18.8654C119.63 37.7432 126.474 55.2357 134.335 72.3671C138.459 81.3517 142.344 90.4611 148.433 98.3293C153.976 105.491 161.37 110.906 169.167 115.366C183.688 123.673 199.985 128.402 214.911 135.92C227.743 142.385 241.397 150.661 249.246 163.08C249.738 163.859 248.462 164.506 247.973 163.732C239.06 149.629 222.603 141.012 207.939 134.106C192.167 126.676 175.27 121.774 160.782 111.797C146.236 101.78 139.39 86.805 132.252 71.2501C124.618 54.6169 118.174 37.4819 116.225 19.1678C116.127 18.2616 117.523 17.9477 117.622 18.8654Z" fill="black"/>
<path d="M126.11 17.374C125.254 22.4125 121.998 26.6675 119.413 30.9445C119.126 31.4185 118.401 30.961 118.686 30.4876C121.179 26.3612 124.426 22.1965 125.251 17.3365C125.344 16.7989 126.202 16.8299 126.11 17.374Z" fill="black"/>
<path d="M109.179 31.6581C113.477 34.3585 116.937 38.1436 121.239 40.8424C121.709 41.1366 121.252 41.8631 120.783 41.569C116.481 38.8709 113.02 35.0858 108.722 32.3847C108.253 32.0905 108.711 31.3648 109.179 31.6581Z" fill="black"/>
<path d="M135.189 35.6574C134.429 42.5712 130.145 48.7722 126.318 54.3681C126.005 54.8241 125.279 54.3689 125.591 53.9113C129.333 48.4395 133.59 42.3766 134.332 35.6208C134.391 35.0728 135.25 35.1071 135.189 35.6574Z" fill="black"/>
<path d="M114.284 55.1213C119.114 58.0562 123.711 61.7169 129.531 62.2677C130.08 62.32 130.045 63.1776 129.493 63.1251C123.506 62.5581 118.808 58.8727 113.829 55.8471C113.355 55.56 113.812 54.8343 114.284 55.1213Z" fill="black"/>
<path d="M146.67 48.0494C145.244 57.7962 140.14 66.1969 135.175 74.517C134.891 74.9936 134.166 74.5344 134.448 74.0601C139.326 65.886 144.411 57.593 145.812 48.0119C145.892 47.4697 146.75 47.5015 146.67 48.0494Z" fill="black"/>
<path d="M120.69 76.9297C123.836 78.2598 126.186 80.6694 129.412 81.9383C132.778 83.261 136.385 83.8795 139.746 85.1769C140.261 85.3759 140.008 86.1964 139.493 85.9974C136.555 84.8626 133.406 84.15 130.402 83.1879C126.62 81.9757 124.008 79.2592 120.436 77.7501C119.931 77.5353 120.181 76.7147 120.69 76.9297Z" fill="black"/>
<path d="M151.409 68.4052C151.589 72.1449 150.303 75.5329 148.875 78.9368C147.181 82.9791 145.711 87.2198 143.366 90.9405C143.07 91.4085 142.344 90.9517 142.638 90.4836C144.74 87.1506 146.011 83.4105 147.571 79.8092C149.157 76.15 150.747 72.4384 150.55 68.3693C150.524 67.8143 151.382 67.8559 151.409 68.4052Z" fill="black"/>
<path d="M145.347 75.696C144.501 77.1156 143.655 78.5344 142.81 79.9541C142.526 80.4299 141.8 79.9715 142.083 79.4972C142.929 78.0776 143.774 76.658 144.62 75.2391C144.904 74.7633 145.63 75.2217 145.347 75.696Z" fill="black"/>
<path d="M143.568 66.7386C142.927 69.576 141.202 71.8932 139.719 74.3383C139.432 74.8124 138.706 74.354 138.992 73.8814C140.436 71.5002 142.124 69.2494 142.748 66.4849C142.87 65.9446 143.689 66.203 143.568 66.7386Z" fill="black"/>
<path d="M138.961 61.4589C138.213 62.7152 137.465 63.9699 136.717 65.2262C136.433 65.702 135.707 65.2436 135.989 64.7693C136.738 63.5138 137.486 62.2592 138.233 61.002C138.517 60.5262 139.243 60.9846 138.961 61.4589Z" fill="black"/>
<path d="M122.758 56.5071C120.168 54.3883 117.017 53.2506 114.143 51.5939C113.663 51.317 114.122 50.5914 114.599 50.8673C117.473 52.5232 120.623 53.6609 123.213 55.7796C123.637 56.1269 123.184 56.8569 122.758 56.5071Z" fill="black"/>
<path d="M112.922 58.5247C114.342 59.3697 115.761 60.2164 117.18 61.0622C117.657 61.3453 117.198 62.071 116.724 61.7888C115.305 60.9437 113.885 60.0971 112.466 59.2513C111.989 58.9681 112.448 58.2425 112.922 58.5247Z" fill="black"/>
<path d="M105.471 50.3266C106.909 50.9562 108.342 51.5953 109.698 52.3882C110.177 52.6674 109.719 53.3931 109.242 53.1147C107.948 52.3594 106.588 51.747 105.216 51.1469C104.715 50.9259 104.965 50.1044 105.471 50.3266Z" fill="black"/>
<path d="M124.992 71.0453C126.056 71.6796 127.124 72.2995 128.264 72.7874C128.768 73.0037 128.519 73.8252 128.011 73.6078C126.8 73.0893 125.666 72.4447 124.537 71.771C124.06 71.487 124.519 70.7622 124.992 71.0453Z" fill="black"/>
<path d="M135.522 89.1345C129.658 88.6345 124.127 87.0219 118.725 84.7194C118.22 84.5039 118.47 83.6833 118.978 83.899C124.316 86.1751 129.757 87.7838 135.56 88.2771C136.109 88.3246 136.075 89.1814 135.522 89.1345Z" fill="black"/>
<path d="M124.583 91.057C126.135 91.29 127.602 91.8764 129.14 92.1736C129.683 92.2791 129.423 93.0976 128.886 92.994C127.421 92.7105 126.023 92.1361 124.544 91.9144C124.003 91.8332 124.036 90.9748 124.583 91.057Z" fill="black"/>
<path d="M102.202 81.058C101.027 82.8284 101.037 85.4805 103.066 86.6096C103.55 86.8794 103.091 87.6042 102.61 87.3362C100.179 85.9855 100.05 82.7476 101.474 80.6019C101.781 80.1409 102.507 80.5969 102.202 81.058Z" fill="black"/>
<path d="M100.146 52.4426C97.7464 54.4841 95.9153 57.1424 97.7446 60.2109C98.0283 60.6864 97.2632 61.074 96.9811 60.6017C94.9563 57.2065 96.8683 54.1049 99.5652 51.8108C99.9858 51.4519 100.566 52.0837 100.146 52.4426Z" fill="black"/>
<path d="M110.803 28.1885C113.669 30.3161 116.621 32.3066 119.682 34.1455C120.158 34.4311 119.699 35.1568 119.226 34.8721C116.165 33.0332 113.213 31.0443 110.347 28.915C109.906 28.5865 110.359 27.8582 110.803 28.1885Z" fill="black"/>
<path d="M121.577 21.3586C121.315 21.7949 121.056 22.2313 120.796 22.6678C120.513 23.1444 119.787 22.686 120.069 22.2109C120.328 21.7745 120.59 21.3381 120.849 20.9017C121.134 20.4252 121.859 20.8843 121.577 21.3586Z" fill="black"/>
<path d="M127.472 24.872C125.909 27.4942 124.335 30.1071 122.623 32.6353C122.313 33.093 121.585 32.6377 121.895 32.1784C123.608 29.6502 125.181 27.0374 126.745 24.4152C127.028 23.9393 127.755 24.3986 127.472 24.872Z" fill="black"/>
<path d="M130.879 37.7758C129.328 40.4041 127.908 43.1071 126.358 45.7347C126.076 46.2123 125.351 45.7531 125.631 45.2779C127.182 42.6495 128.601 39.9465 130.152 37.3189C130.434 36.843 131.16 37.3014 130.879 37.7758Z" fill="black"/>
<path d="M140.429 34.017C139.803 35.4146 139.041 36.7456 138.415 38.1416C138.191 38.6403 137.369 38.3907 137.595 37.8888C138.222 36.4904 138.984 35.161 139.61 33.7641C139.833 33.2646 140.654 33.5143 140.429 34.017Z" fill="black"/>
<path d="M132.457 51.146C131.577 52.6224 130.686 54.0903 129.657 55.4703C129.328 55.9118 128.599 55.4573 128.93 55.0134C129.958 53.6342 130.848 52.1663 131.729 50.6891C132.013 50.2133 132.739 50.6717 132.457 51.146Z" fill="black"/>
<path d="M150.92 47.721C149.974 49.3079 149.046 50.8996 148.253 52.5693C148.016 53.069 147.292 52.6066 147.526 52.1124C148.32 50.4436 149.247 48.851 150.193 47.2641C150.477 46.7899 151.202 47.2483 150.92 47.721Z" fill="black"/>
<path d="M151.497 38.0715C154.055 38.0019 155.056 40.4285 154.765 42.661C154.693 43.2061 153.835 43.1726 153.907 42.6243C154.139 40.8605 153.565 38.8712 151.459 38.9281C150.904 38.9435 150.945 38.0862 151.497 38.0715Z" fill="black"/>
<path d="M161.657 56.1276C163.219 58.4711 163.764 61.0397 162.689 63.7051C162.482 64.2167 161.661 63.9654 161.869 63.4522C162.871 60.9707 162.342 58.6902 160.895 56.5186C160.586 56.0589 161.353 55.6722 161.657 56.1276Z" fill="black"/>
<path d="M156.302 71.4416C155.635 73.2876 154.813 75.0573 153.82 76.749C153.539 77.2273 152.815 76.769 153.093 76.2921C154.049 74.6636 154.841 72.9639 155.483 71.1872C155.67 70.6682 156.49 70.9203 156.302 71.4416Z" fill="black"/>
<path d="M149.585 88.3016C148.82 90.6624 147.432 92.6632 145.853 94.5519C145.5 94.9753 144.924 94.3372 145.274 93.9193C146.752 92.1509 148.05 90.2587 148.765 88.0488C148.936 87.5203 149.754 87.7755 149.585 88.3016Z" fill="black"/>
<path d="M118.228 95.2154C120.795 96.3008 123.382 97.094 126.171 97.3309C126.72 97.3784 126.686 98.2352 126.133 98.1883C123.277 97.9453 120.608 97.1484 117.975 96.0358C117.469 95.821 117.72 95.0004 118.228 95.2154Z" fill="black"/>
<path d="M112.117 85.3585C113.033 85.6843 113.95 86.0078 114.867 86.3313C115.39 86.5153 115.136 87.3357 114.614 87.1517C113.698 86.8275 112.781 86.504 111.864 86.1789C111.341 85.9933 111.595 85.1729 112.117 85.3585Z" fill="black"/>
<path d="M100.772 64.1722C102.966 64.9887 105.099 64.2747 107.256 63.718C107.791 63.5795 107.972 64.4189 107.436 64.5566C105.128 65.1521 102.855 65.8631 100.517 64.9925C100.001 64.7999 100.253 63.9787 100.772 64.1722Z" fill="black"/>
<path d="M119.008 13.582C117.929 11.9349 115.014 12.886 114.507 14.5738C114.347 15.1052 113.528 14.85 113.687 14.321C114.431 11.846 118.292 10.929 119.772 13.1911C120.075 13.6529 119.308 14.0396 119.008 13.582Z" fill="black"/>
<path d="M144.494 135.321C145.593 125.655 140.664 117.725 131.48 113.583C122.05 109.296 105.166 105.226 96.1628 112.513C99.4141 117.113 108.348 119.44 113.554 121.878C115.765 123.195 124.06 125.475 118.624 127.894C116.225 129.128 111.556 126.347 109.2 125.274C104.731 123.276 98.192 118.048 93.4811 117.572C89.0164 117.242 78.4928 124.287 76.3964 128.364C81.461 132.715 90.521 128.127 95.7324 132.23C101.779 137.165 91.5341 138.717 87.7078 138.434C83.8807 138.152 77.8849 134.246 74.9946 135.186C71.8589 135.98 66.0493 145.169 65.0774 147.919C67.3823 147.96 74.1471 146.665 75.9195 148.72C79.1186 152.291 72.4004 152.95 69.9487 153.152C64.9467 153.168 64.058 151.307 62.3066 155.922C61.0403 159.163 61.0034 163.136 60.3763 166.424C59.9433 168.828 58.2848 172.168 58.2423 174.473C58.6498 179.377 61.4415 178.045 65.5605 177.836C71.3468 177.624 85.3825 180.327 87.6207 174.337C88.8863 171.095 83.7854 155.073 90.8542 156.621C97.9213 158.169 92.666 172.017 92.7751 175.744C98.8084 175.678 108.359 171.381 109.222 164.904C109.657 162.5 105.576 143.09 113.4 151.747C115.517 154.34 119.98 170.316 124.607 159.757C125.972 156.909 125.669 154.065 127.28 151.362C129.037 148.413 130.699 146.741 133.046 144.478C135.639 142.36 144.062 137.725 144.595 135.712" fill="black"/>
<path d="M65.3305 172.356C84.1008 143.024 120.006 126.693 154.269 127.776C171.607 128.323 188.697 131.778 204.565 138.742C219.816 145.433 234.212 153.997 248.495 162.509C249.289 162.982 248.526 164.191 247.736 163.72C234.924 156.087 222.034 148.572 208.568 142.14C193.018 134.712 177.304 131.167 160.164 129.584C124.549 126.297 86.1316 142.504 66.5416 173.117C66.0438 173.893 64.8334 173.131 65.3305 172.356Z" fill="black"/>
<path d="M116.138 134.459C109.611 131.616 103.007 128.956 96.4935 126.082C96.0924 125.905 96.2919 125.249 96.6955 125.427C103.209 128.299 109.814 130.96 116.34 133.804C116.744 133.978 116.543 134.636 116.138 134.459Z" fill="black"/>
<path d="M105.316 139.085C104.338 145.365 102.034 151.295 99.863 157.237C99.7113 157.652 99.0546 157.45 99.2064 157.033C101.356 151.152 103.661 145.271 104.63 139.054C104.698 138.622 105.386 138.648 105.316 139.085Z" fill="black"/>
<path d="M91.2591 146.6C86.546 145.155 81.9262 143.409 77.0719 142.473C76.6367 142.389 76.8451 141.734 77.2746 141.817C82.1282 142.752 86.7479 144.499 91.4618 145.944C91.8861 146.073 91.6809 146.73 91.2591 146.6Z" fill="black"/>
<path d="M78.6363 158.059C79.4265 162.691 77.5367 167.211 76.6094 171.678C76.52 172.112 75.8644 171.903 75.9528 171.475C76.8536 167.131 78.732 162.704 77.9652 158.204C77.8911 157.769 78.5607 157.621 78.6363 158.059Z" fill="black"/>
<path d="M73.1117 163.085C70.1828 161.795 66.8887 162.655 63.8375 161.887C63.4066 161.779 63.6134 161.124 64.0394 161.232C67.0979 162.001 70.3665 161.132 73.3136 162.43C73.7156 162.607 73.5169 163.263 73.1117 163.085Z" fill="black"/>
<path d="M130.044 130.613C127.226 136.803 124.672 145.658 118.5 149.341C118.12 149.568 117.81 148.956 118.189 148.73C124.124 145.188 126.687 136.345 129.388 130.41C129.569 130.011 130.228 130.21 130.044 130.613Z" fill="black"/>
<path d="M137.158 129.003C132.123 123.357 126.122 118.854 119.676 114.94C119.298 114.71 119.664 114.129 120.041 114.359C126.546 118.309 132.584 122.844 137.664 128.54C137.959 128.869 137.453 129.333 137.158 129.003Z" fill="black"/>
<path d="M124.061 121.58C125.899 122.709 127.518 124.136 129.097 125.597C129.423 125.898 128.914 126.359 128.591 126.06C127.056 124.64 125.482 123.261 123.696 122.162C123.319 121.93 123.685 121.349 124.061 121.58Z" fill="black"/>
<path d="M117.674 117.774C118.575 118.31 119.475 118.847 120.376 119.385C120.757 119.613 120.39 120.193 120.011 119.966C119.11 119.429 118.21 118.892 117.309 118.355C116.928 118.128 117.294 117.548 117.674 117.774Z" fill="black"/>
<path d="M131.036 116.582C133.137 118.172 135.239 119.76 137.153 121.577C137.474 121.881 136.966 122.343 136.647 122.04C134.777 120.266 132.723 118.716 130.67 117.163C130.321 116.897 130.683 116.313 131.036 116.582Z" fill="black"/>
<path d="M122.261 135.296C121.155 138.905 119.014 141.931 117.077 145.128C116.848 145.507 116.267 145.141 116.496 144.764C118.4 141.62 120.516 138.646 121.604 135.092C121.734 134.669 122.389 134.872 122.261 135.296Z" fill="black"/>
<path d="M132.292 139.71C131.556 140.623 130.656 141.381 129.921 142.292C129.646 142.634 129.062 142.271 129.339 141.929C130.074 141.016 130.975 140.258 131.71 139.347C131.984 139.006 132.567 139.368 132.292 139.71Z" fill="black"/>
<path d="M108.963 141.687C108.427 143.738 107.982 145.809 107.167 147.775C106.998 148.181 106.342 147.98 106.511 147.572C107.326 145.608 107.772 143.536 108.308 141.484C108.42 141.053 109.075 141.259 108.963 141.687Z" fill="black"/>
<path d="M99.5609 146.571C99.0269 148.802 97.8857 150.813 97.2256 153.003C97.0977 153.428 96.4419 153.223 96.5689 152.8C97.2298 150.61 98.3703 148.599 98.9043 146.367C99.0082 145.935 99.6622 146.143 99.5609 146.571Z" fill="black"/>
<path d="M103.401 159.679C102.941 160.981 102.145 162.1 101.437 163.273C101.208 163.652 100.627 163.286 100.856 162.909C101.533 161.789 102.307 160.72 102.746 159.477C102.893 159.059 103.549 159.262 103.401 159.679Z" fill="black"/>
<path d="M105.782 134.625C104.06 133.799 102.209 133.296 100.438 132.593C100.028 132.432 100.229 131.775 100.64 131.938C102.47 132.661 104.37 133.19 106.147 134.043C106.547 134.235 106.176 134.814 105.782 134.625Z" fill="black"/>
<path d="M91.2545 126.179C93.0925 126.956 94.7417 128.07 96.445 129.094C96.8253 129.323 96.4582 129.903 96.0804 129.675C94.4299 128.683 92.8326 127.587 91.0518 126.834C90.648 126.664 90.8475 126.006 91.2545 126.179Z" fill="black"/>
<path d="M102.482 124.38C104.317 125.155 105.977 126.263 107.745 127.172C108.14 127.375 107.771 127.954 107.38 127.753C105.667 126.872 104.058 125.787 102.278 125.035C101.874 124.863 102.075 124.206 102.482 124.38Z" fill="black"/>
<path d="M85.241 140.739C86.6634 141.113 88.0166 141.701 89.439 142.075C89.8681 142.188 89.6621 142.843 89.2363 142.731C87.8138 142.357 86.4607 141.769 85.0382 141.395C84.6083 141.283 84.8152 140.627 85.241 140.739Z" fill="black"/>
<path d="M80.9256 146.479C81.7827 146.969 82.7335 147.24 83.6435 147.611C84.0516 147.777 83.8497 148.434 83.4408 148.267C82.475 147.874 81.4709 147.582 80.5609 147.061C80.1763 146.84 80.5433 146.26 80.9256 146.479Z" fill="black"/>
<path d="M75.5968 138.489C76.9529 138.787 78.3027 139.119 79.6819 139.295C80.1175 139.35 80.0916 140.036 79.652 139.98C78.2147 139.796 76.8079 139.455 75.394 139.144C74.9602 139.048 75.1677 138.394 75.5968 138.489Z" fill="black"/>
<path d="M67.8166 156.693C69.2948 156.923 70.7797 157.109 72.2569 157.341C72.6895 157.409 72.6643 158.096 72.2269 158.027C70.7488 157.795 69.264 157.609 67.7859 157.378C67.3532 157.312 67.3784 156.625 67.8166 156.693Z" fill="black"/>
<path d="M64.9488 165.137C65.4408 165.126 65.9284 165.194 66.4196 165.181C66.8622 165.17 66.8298 165.856 66.3897 165.867C65.8985 165.879 65.4099 165.812 64.9188 165.823C64.4755 165.833 64.5079 165.147 64.9488 165.137Z" fill="black"/>
<path d="M74.0996 166.509C74.5768 169.224 73.2073 171.734 72.6934 174.338C72.6064 174.774 71.9532 174.565 72.0376 174.136C72.5244 171.668 73.8804 169.226 73.4293 166.655C73.3528 166.219 74.0232 166.072 74.0996 166.509Z" fill="black"/>
<path d="M83.6248 159.284C83.7115 160.525 83.5045 161.74 83.1546 162.928C83.0292 163.353 82.3734 163.149 82.4987 162.725C82.8334 161.588 83.0213 160.44 82.9395 159.254C82.9086 158.813 83.5945 158.848 83.6248 159.284Z" fill="black"/>
<path d="M105.481 166.245C104.905 168.613 103.442 169.566 101.52 170.85C101.154 171.096 100.844 170.483 101.209 170.239C102.967 169.062 104.296 168.218 104.824 166.042C104.931 165.611 105.586 165.817 105.481 166.245Z" fill="black"/>
<path d="M92.2738 121.033C90.3268 121.008 88.2059 121.646 86.788 123.022C86.4701 123.33 86.0072 122.823 86.3243 122.515C87.8717 121.014 90.1788 120.32 92.3038 120.348C92.7464 120.353 92.7156 121.04 92.2738 121.033Z" fill="black"/>
<path d="M105.49 112.263C103.909 112 102.004 112.197 100.944 113.539C100.672 113.884 100.088 113.521 100.363 113.175C101.581 111.632 103.662 111.268 105.52 111.577C105.95 111.65 105.926 112.337 105.49 112.263Z" fill="black"/>
<path d="M122.565 152.777C123.056 154.996 122.393 157.698 120.123 158.63C119.718 158.796 119.4 158.187 119.811 158.019C121.803 157.201 122.322 154.857 121.895 152.921C121.8 152.49 122.47 152.344 122.565 152.777Z" fill="black"/>
<path d="M72.0341 142.193C70.9038 143.026 70.1204 144.147 70.1439 145.591C70.152 146.035 69.4652 146.002 69.4586 145.561C69.4318 143.952 70.3038 142.62 71.5695 141.688C71.9242 141.428 72.3913 141.931 72.0341 142.193Z" fill="black"/>
<path d="M61.4047 171.773C60.9618 173.052 61.0734 174.592 62.6966 174.782C63.1341 174.832 63.1065 175.518 62.6667 175.467C60.6004 175.225 60.1427 173.323 60.7489 171.57C60.8943 171.152 61.5502 171.354 61.4047 171.773Z" fill="black"/>
</svg>
