<svg
  width="199"
  height="274"
  viewBox="0 0 199 274"
  fill="none"
  xmlns="http://www.w3.org/2000/svg"
>
<path
    d="M138.438 87.9347C142.022 80.8901 158.09 81.8782 161.946 88.371C165.41 93.8605 157.617 95.7733 153.821 94.9387C149.507 94.1693 145.481 91.5184 141.586 89.9054C140.45 89.2588 139.201 88.7596 138.099 88.3725"
    fill="black"
  />
<path
    d="M122.005 98.5891C125.658 94.1707 147.418 95.357 146.526 102.85C145.489 110.229 123.069 103.855 121.779 98.8807"
    fill="black"
  />
<path
    d="M128.445 93.2902C126.167 89.8905 128.254 72.0989 134.44 76.189C139.489 79.631 129.932 90.465 128.332 93.4355"
    fill="black"
  />
<path
    d="M147.968 153.528C151.184 148.771 162.711 134.787 168.775 142.054C173.017 147.444 163.22 152.248 159.542 153.375C154.974 154.747 151.796 154.623 147.336 153.741"
    fill="black"
  />
<path
    d="M135.198 156.733C135.986 153.602 140.974 136.891 146.137 140.187C150.277 142.691 144.392 150.293 142.11 152.031C139.94 153.624 137.041 154.653 135.423 156.44"
    fill="black"
  />
<path
    d="M131.52 157.859C131.835 161.377 134.89 164.678 137.52 166.715C139.421 168.186 150.001 172.638 148.658 166.221C147.805 161.586 135.141 160.429 131.778 157.826"
    fill="black"
  />
<path
    d="M119.573 158.194C120.133 155.354 129.135 142.22 130.799 147.014C132.576 151.664 122.373 156.388 119.573 158.194Z"
    fill="black"
  />
<path
    d="M111.951 158.371C111.424 161.469 113.719 166.053 115.639 168.709C117.524 171.104 125.106 175.807 125.935 169.903C126.685 164.404 115.572 160.942 112.243 158.599"
    fill="black"
  />
<path
    d="M99.9192 157.003C101.065 154.618 104.38 143.391 108.766 146.786C113.734 150.635 101.57 155.475 99.7408 156.63"
    fill="black"
  />
<path
    d="M95.3646 157.451C94.8827 159.883 96.2698 163.529 97.8303 165.44C99.457 167.867 108.057 171.255 107.33 165.548C106.915 161.253 98.2554 159.455 96.1082 157.092"
    fill="black"
  />
<path
    d="M-4.50789 119.162C-7.25184 117.272 -16.8886 106.768 -10.6037 104.388C-3.57468 101.649 -3.13621 116.484 -3.66338 119.582"
    fill="black"
  />
<path
    d="M3.29837 123.571C-1.20811 123.354 -6.23396 123.202 -10.5587 125.465C-14.6229 127.695 -17.1587 131.575 -10.8037 131.821C-5.22585 132.166 0.0825849 128.328 3.07206 123.863"
    fill="black"
  />
<path
    d="M13.7247 130.941C12.2447 128.626 5.72348 119.835 9.74182 118.27C12.4941 117.13 14.9362 121.826 15.2011 123.902C15.4986 126.236 14.9036 128.815 14.1298 131.022"
    fill="black"
  />
<path
    d="M1.60655 187.955C0.238747 185.493 -0.13275 178.425 3.05844 177.623C9.29558 175.908 4.58525 186.522 1.89807 188.181"
    fill="black"
  />
<path
    d="M56.959 204.632C55.7576 210.714 69.5765 220.949 71.231 214.281C72.4991 208.717 60.8524 206.244 57.5569 204.16"
    fill="black"
  />
<path
    d="M65.0137 202.686C64.6708 201.017 67.5988 190.893 71.039 193.091C74.1893 195.063 70.3081 199.773 68.6255 201.04C67.6539 201.691 65.7589 202.327 65.0468 202.945"
    fill="black"
  />
<path
    d="M76.9938 202.611C77.7765 204.62 79.4507 206.383 81.3176 207.596C83.1845 208.808 90.0636 211.095 89.2428 206.719C87.9982 201.08 79.6726 203.982 76.5219 202.012"
    fill="black"
  />
<path
    d="M87.1993 197.888C89.378 193.262 96.0819 182.79 102.136 185.841C109.18 189.427 99.7914 196.418 96.1472 197.803C93.1354 198.977 90.2823 199.34 87.265 198.405"
    fill="black"
  />
<path
    d="M34.0772 57.8574C34.5867 53.5756 41.409 37.8185 47.7795 44.3877C52.7669 49.4203 37.4957 56.7641 34.2234 57.9706"
    fill="black"
  />
<path
    d="M29.2242 70.4656C30.5633 67.5276 41.751 53.9829 44.1842 61.7118C46.2256 68.4359 33.1467 70.2303 29.2242 70.4656Z"
    fill="black"
  />
<path
    d="M27.4163 74.9121C25.1255 72.4359 15.0775 59.7465 11.1509 65.1211C8.12848 69.3275 16.5019 73.006 19.2603 73.9729C21.7592 74.9729 24.8378 74.3168 27.0773 75.3499"
    fill="black"
  />
<path
    d="M27.0161 84.1867C27.9827 81.4282 37.6346 69.2642 38.393 75.2278C39.1653 80.2694 30.3872 83.7571 26.7903 84.4783"
    fill="black"
  />
<path
    d="M26.0091 91.8256C23.9777 89.3163 12.2526 80.0031 10.1256 86.0707C8.57983 90.4843 17.1603 92.6861 19.6736 92.763C21.9274 92.8704 24.0825 92.201 25.8975 91.9714"
    fill="black"
  />
<path
    d="M80.2579 53.1714C82.7424 47.8485 90.9332 34.551 98.0755 38.9143C105.185 43.0181 94.5489 49.5099 90.7568 50.7821C87.4856 51.9891 83.7415 52.5965 80.4362 53.5436"
    fill="black"
  />
<path
    d="M72.9669 63.1888C74.7961 62.0335 76.3334 60.6534 78.3079 59.6108C80.2498 58.3102 89.3216 55.0485 89.6557 59.7496C89.8252 63.1538 81.7739 65.1 79.5522 65.2515C77.0726 65.4356 74.3811 64.9865 72.0269 64.1001"
    fill="black"
  />
<path
    d="M70.0741 68.4331C68.8343 64.9009 59.8389 51.1545 55.5912 58.1516C52.7473 62.7302 65.313 70.3566 69.3956 69.3098"
    fill="black"
  />
<path
    d="M68.089 79.7538C68.8623 77.5473 70.0414 75.4208 71.3657 73.407C73.1432 70.8096 81.0456 66.6412 79.3239 72.7901C78.1829 77.2833 72.1914 79.8901 68.2353 79.867"
    fill="black"
  />
<path
    d="M67.5978 85.2188C65.1468 83.5541 63.5196 81.1255 60.8413 79.7528C58.2761 78.2339 48.8698 76.795 52.5616 81.9924C54.9523 85.2459 64.1173 87.9015 67.5167 85.624"
    fill="black"
  />
<path
    d="M76.422 57.2168C73.7906 55.1788 68.1679 48.2506 70.2174 44.6949C73.2538 39.5652 75.7849 48.0731 76.0498 50.1464C76.3137 52.2217 77.3089 54.8629 76.9082 56.8902"
    fill="black"
  />
<path
    d="M52.3635 119.537C50.9516 138.409 40.0941 152.711 29.9468 167.911C24.2282 176.477 18.6285 185.117 12.7202 193.556C7.02169 201.693 -0.298236 208.471 -6.25412 216.403C-6.81017 217.143 -5.73868 218.114 -5.18004 217.368C0.77791 209.435 8.04873 202.626 13.7942 194.521C19.3956 186.619 24.6594 178.48 30.009 170.407C40.5573 154.486 52.3038 139.556 53.7812 119.815C53.8499 118.9 52.4327 118.608 52.3635 119.537Z"
    fill="black"
  />
<path
    d="M-4.96026 217.538C-0.272645 211.521 4.57676 205.642 9.58692 199.89C14.4529 194.301 19.2351 188.537 25.6472 184.681C36.463 178.178 49.7884 178.103 61.1967 173.118C62.0443 172.749 61.594 171.375 60.7397 171.748C49.1267 176.821 36.1187 177.334 24.8578 183.471C18.8127 186.766 14.3994 192.299 9.89776 197.35C4.35995 203.564 -0.920955 210.005 -6.03388 216.571C-6.60387 217.303 -5.53284 218.273 -4.96026 217.538Z"
    fill="black"
  />
<path
    d="M3.60482 206.866C9.91576 201.465 18.2665 202.659 25.8761 203.847C33.694 205.068 40.9484 205.278 48.8643 205.269C67.0002 205.25 85.8248 203.062 100.191 190.829C100.892 190.233 100.108 189.017 99.4014 189.62C82.7957 203.761 61.6104 203.561 41.0815 203.882C29.0237 204.071 13.2229 196.749 2.817 205.655C2.11728 206.254 2.89993 207.469 3.60482 206.866Z"
    fill="black"
  />
<path
    d="M1.61241 208.475C5.30505 197.175 4.85397 188.646 -4.46086 180.476C-13.6222 172.439 -28.2 173.521 -37.2925 180.914C-38.0103 181.497 -37.2241 182.711 -36.5031 182.124C-26.9047 174.321 -13.4002 174.556 -4.13243 182.686C4.12277 189.927 3.30867 198.667 0.195219 208.196C-0.0925664 209.079 1.32721 209.351 1.61241 208.475Z"
    fill="black"
  />
<path
    d="M26.5184 175.859C26.9992 171.966 28.2723 168.264 28.5851 164.343C28.8974 160.422 28.0473 156.439 27.1093 152.658C25.1714 144.849 21.0489 137.903 15.5507 132.101C4.53048 120.476 -14.799 113.317 -30.7144 114.782C-31.6395 114.868 -31.55 116.309 -30.6197 116.224C-15.7271 114.853 0.739542 121.238 12.0045 130.746C18.4382 136.175 22.5989 143.363 25.2072 151.273C26.7541 155.966 27.4182 160.923 27.027 165.847C26.7642 169.133 25.5076 172.301 25.1027 175.579C24.9876 176.497 26.4043 176.785 26.5184 175.859Z"
    fill="black"
  />
<path
    d="M17.9157 190.71C25.8777 179.442 36.8562 170.068 48.8667 163.348C62.3765 155.79 77.9149 155.943 92.8834 157.242C105.754 158.358 118.551 160.196 131.469 158.674C143.615 157.244 154.88 152.341 165.001 145.627C165.778 145.112 164.987 143.902 164.212 144.418C152.722 152.038 140.302 156.648 126.522 157.703C112.326 158.789 98.0516 155.887 83.8936 155.175C70.7368 154.513 58.1824 156.483 46.6143 162.956C35.1025 169.396 24.445 178.982 16.8421 189.743C16.3094 190.496 17.3799 191.469 17.9157 190.71Z"
    fill="black"
  />
<path
    d="M33.2336 166.256C41.2848 155.443 49.6752 145.973 60.9819 138.424C72.5656 130.689 85.618 125.435 97.5863 118.353C106.274 113.212 113.366 106.316 121.109 99.938C129.095 93.3613 138.987 86.6164 149.802 89.4879C150.702 89.7271 150.979 88.3089 150.082 88.0707C130.846 82.9639 115.671 104.386 101.825 113.944C89.2748 122.607 74.8389 128.124 61.8846 136.129C49.6734 143.674 40.6499 153.891 32.16 165.292C31.6065 166.032 32.678 167.003 33.2336 166.256Z"
    fill="black"
  />
<path
    d="M48.5936 139.772C53.519 132.76 59.6502 126.713 64.42 119.583C69.3878 112.155 70.6543 103.811 69.8948 95.0768C69.0293 85.1153 67.2397 76.0873 71.5917 66.5931C76.2165 56.5065 85.7112 48.4538 94.7636 42.4928C95.5435 41.9795 94.7521 40.7712 93.9743 41.283C79.9098 50.5424 66.4928 64.1385 67.1291 82.0698C67.5218 93.1373 70.4274 103.05 65.9406 113.801C61.9602 123.34 53.3782 130.462 47.5185 138.806C46.9893 139.559 48.0587 140.532 48.5936 139.772Z"
    fill="black"
  />
<path
    d="M21.5264 139.854C30.0367 128.198 27.9677 115.604 27.1855 102.041C26.1347 83.8069 27.6835 57.8861 45.1626 47.2211C45.9605 46.7337 45.1655 45.5274 44.3733 46.0113C31.3098 53.9816 26.6996 71.4853 25.8093 85.8303C25.2767 94.4197 25.7571 102.913 26.4292 111.478C27.2152 121.493 26.5596 130.525 20.4523 138.889C19.9066 139.634 20.9776 140.606 21.5264 139.854Z"
    fill="black"
  />
<path
    d="M91.6956 94.0014C85.4184 104.708 78.0445 114.225 69.75 123.415C63.1971 130.675 56.0029 138.827 46.5026 142.086C45.6215 142.389 46.0769 143.76 46.9597 143.457C56.2274 140.278 63.3007 132.585 69.759 125.553C78.5832 115.947 86.3814 105.914 92.9877 94.6474C93.46 93.8421 92.1648 93.2023 91.6956 94.0014Z"
    fill="black"
  />
<path
    d="M72.5391 48.9678C72.9747 51.7516 74.8222 53.9183 75.7524 56.5192C76.0663 57.3958 77.4368 56.9415 77.1229 56.0623C76.2454 53.6067 74.3892 51.486 73.9804 48.8732C73.8376 47.962 72.3942 48.0452 72.5391 48.9678Z"
    fill="black"
  />
<path
    d="M72.7082 64.1987C76.0307 62.6026 79.8202 62.5591 83.2891 61.4043C84.1739 61.1102 83.7168 59.7396 82.832 60.0337C79.3631 61.1884 75.5752 61.2315 72.2511 62.8281C71.4226 63.2266 71.8694 64.6024 72.7082 64.1987Z"
    fill="black"
  />
<path
    d="M69.6857 68.4026C66.7291 66.4234 62.7571 65.2015 61.3587 61.6251C61.0201 60.7594 59.6485 61.2133 59.9881 62.0821C61.5679 66.12 65.6945 67.4567 69.0397 69.6948C69.8124 70.2116 70.4486 68.9132 69.6857 68.4026Z"
    fill="black"
  />
<path
    d="M68.2184 79.6593C71.2799 78.4637 73.3407 75.9538 75.7131 73.7999C76.4035 73.1735 75.3207 72.2147 74.639 72.8339C72.4686 74.8033 70.5624 77.1954 67.7623 78.2891C66.8956 78.6272 67.3496 79.9989 68.2184 79.6593Z"
    fill="black"
  />
<path
    d="M57.1198 82.6748C60.2825 83.9341 63.562 84.8253 66.7944 85.8778C67.6777 86.1655 67.9495 84.7458 67.0739 84.4606C63.965 83.4479 60.808 82.5933 57.7658 81.3827C56.9068 81.0412 56.2531 82.3307 57.1198 82.6748Z"
    fill="black"
  />
<path
    d="M129.235 93.0234C130.056 88.7692 130.62 84.3714 132.696 80.5047C133.137 79.6824 131.843 79.0395 131.404 79.8588C129.266 83.8417 128.664 88.3616 127.818 92.7439C127.641 93.6577 129.059 93.9403 129.235 93.0234Z"
    fill="black"
  />
<path
    d="M122.719 98.1824C127.273 101.347 133.166 100.853 138.446 100.782C139.378 100.769 139.282 99.3272 138.352 99.3402C133.539 99.4047 127.852 100.003 123.685 97.1083C122.929 96.5833 121.956 97.6522 122.719 98.1824Z"
    fill="black"
  />
<path
    d="M135.956 156.909C137.901 153.168 140.236 149.658 143.071 146.531C143.698 145.84 142.622 144.876 141.997 145.565C139.078 148.783 136.666 152.412 134.664 156.263C134.235 157.09 135.528 157.735 135.956 156.909Z"
    fill="black"
  />
<path
    d="M132.018 158.641C134.862 162.049 138.4 164.774 142.729 165.952C143.627 166.197 143.904 164.779 143.008 164.535C139.087 163.466 135.806 160.939 133.228 157.852C132.637 157.143 131.421 157.927 132.018 158.641Z"
    fill="black"
  />
<path
    d="M119.736 158.855C121.472 156.387 123.663 154.364 126.015 152.494C126.74 151.918 125.955 150.705 125.226 151.284C122.779 153.229 120.468 155.319 118.662 157.889C118.131 158.642 119.201 159.615 119.736 158.855Z"
    fill="black"
  />
<path
    d="M111.931 159.219C114.041 162.205 115.797 165.647 119.154 167.415C119.979 167.849 120.623 166.556 119.8 166.123C116.704 164.492 115.086 161.181 113.141 158.429C112.604 157.669 111.394 158.458 111.931 159.219Z"
    fill="black"
  />
<path
    d="M100.645 156.921C101.951 154.039 104.299 151.566 106.977 149.91C107.772 149.418 106.978 148.212 106.187 148.7C103.302 150.484 100.761 153.171 99.3528 156.275C98.9689 157.121 100.259 157.77 100.645 156.921Z"
    fill="black"
  />
<path
    d="M95.1644 157.354C96.1529 159.903 97.9601 161.961 100.194 163.505C100.951 164.028 101.923 162.958 101.16 162.431C99.1352 161.032 97.4335 159.218 96.5339 156.897C96.1983 156.03 94.8267 156.484 95.1644 157.354Z"
    fill="black"
  />
<path
    d="M29.778 70.2589C32.943 68.5956 36.522 67.7452 39.0206 65.0265C39.6521 64.3396 38.5754 63.3763 37.9465 64.0606C35.5652 66.6506 32.0104 67.4601 28.9886 69.049C28.1617 69.4832 28.9614 70.6879 29.778 70.2589Z"
    fill="black"
  />
<path
    d="M27.3352 74.1852C24.6438 72.6215 21.6812 71.5334 19.3614 69.3996C18.675 68.7671 17.7111 69.8448 18.3955 70.4737C20.814 72.6994 23.8826 73.847 26.6892 75.4773C27.4956 75.945 28.1363 74.6503 27.3352 74.1852Z"
    fill="black"
  />
<path
    d="M27.6041 84.2389C30.003 82.4045 32.3529 80.5158 34.3807 78.2659C35.0049 77.5728 33.9287 76.6084 33.3065 77.2999C31.3609 79.4579 29.1175 81.268 26.8147 83.029C26.0772 83.5919 26.8641 84.8044 27.6041 84.2389Z"
    fill="black"
  />
<path
    d="M25.3864 90.2907C22.7592 89.8187 20.2575 88.9352 17.7295 88.1019C16.8478 87.8111 16.576 89.2308 17.45 89.5191C19.979 90.3529 22.4791 91.2369 25.1068 91.7079C26.0222 91.8721 26.3054 90.4554 25.3864 90.2907Z"
    fill="black"
  />
<path
    d="M-3.86996 119.597C-5.30826 116.394 -6.75225 113.185 -7.7497 109.812C-8.01445 108.917 -9.3835 109.376 -9.1203 110.269C-8.12285 113.642 -6.67886 116.851 -5.24057 120.054C-4.86264 120.895 -3.48842 120.446 -3.86996 119.597Z"
    fill="black"
  />
<path
    d="M1.35273 123.398C-1.09935 125.961 -5.46256 125.884 -8.51536 127.447C-9.34535 127.871 -8.54563 129.076 -7.72597 128.656C-4.47214 126.991 -0.225714 127.137 2.42687 124.364C3.07284 123.689 1.99405 122.727 1.35273 123.398Z"
    fill="black"
  />
<path
    d="M14.4004 130.82C14.9664 127.91 13.3792 124.209 11.6511 121.925C11.0907 121.185 9.87828 121.972 10.4412 122.714C11.9352 124.689 13.4753 128.008 12.9831 130.541C12.8055 131.455 14.2227 131.737 14.4004 130.82Z"
    fill="black"
  />
<path
    d="M76.5596 202.481C78.7439 204.17 80.8879 205.655 83.574 206.415C84.4703 206.67 84.7451 205.251 83.8535 204.998C81.4258 204.311 79.4969 202.93 77.526 201.406C76.792 200.84 75.8235 201.912 76.5596 202.481Z"
    fill="black"
  />
<path
    d="M65.6164 203.686C66.9808 201.879 68.0742 199.927 68.9563 197.844C69.317 196.991 68.0274 196.34 67.6642 197.199C66.8332 199.161 65.8292 201.017 64.5423 202.72C63.9847 203.458 65.0562 204.429 65.6164 203.686Z"
    fill="black"
  />
<path
    d="M57.4266 205.153C58.5903 207.395 60.5782 208.823 62.5372 210.326C63.2722 210.89 64.2416 209.819 63.503 209.252C61.6427 207.825 59.7432 206.494 58.6364 204.363C58.2052 203.535 57.0006 204.335 57.4266 205.153Z"
    fill="black"
  />
<path
    d="M2.02648 188.569C2.7938 186.595 3.63916 184.624 3.84363 182.497C3.93141 181.579 2.51473 181.288 2.42644 182.217C2.23384 184.223 1.45773 186.062 0.734325 187.923C0.40001 188.783 1.68958 189.437 2.02648 188.569Z"
    fill="black"
  />
<path
    d="M86.7445 48.2766C88.2304 48.5349 89.7163 48.7932 91.2023 49.0515C91.6421 49.1279 91.778 48.4478 91.3366 48.3718C89.8507 48.1135 88.3647 47.8552 86.8788 47.597C86.4389 47.5205 86.302 48.2002 86.7445 48.2766Z"
    fill="black"
  />
<path
    d="M90.1034 45.4335C91.1722 45.6371 92.2338 45.8732 93.2691 46.2085C93.6934 46.347 93.8236 45.6653 93.4034 45.5289C92.3676 45.192 91.3055 44.9569 90.2377 44.7539C89.7979 44.6697 89.662 45.3499 90.1034 45.4335Z"
    fill="black"
  />
<path
    d="M94.602 43.9819C95.2501 44.2904 95.9293 44.4981 96.6286 44.6577C97.0643 44.758 97.1981 44.0767 96.7629 43.9781C96.123 43.8313 95.5059 43.6443 94.913 43.3622C94.5089 43.1705 94.1978 43.7902 94.602 43.9819Z"
    fill="black"
  />
<path
    d="M91.186 40.375C90.8517 41.4108 90.6445 42.4791 90.411 43.5407C90.3144 43.977 90.9951 44.1118 91.0907 43.675C91.3252 42.614 91.5314 41.5451 91.8657 40.5093C92.0031 40.0845 91.3219 39.9533 91.186 40.375Z"
    fill="black"
  />
<path
    d="M96.7585 41.3842C97.0195 41.1309 97.2551 40.9773 97.621 40.9174C98.0577 40.845 98.0178 40.1519 97.5759 40.2242C97.0261 40.3163 96.6406 40.5344 96.2422 40.9205C95.9213 41.2317 96.4402 41.6927 96.7585 41.3842Z"
    fill="black"
  />
<path
    d="M71.4766 45.6341C71.607 46.3065 71.7989 46.9645 71.9293 47.6369C72.0131 48.069 72.7067 48.0308 72.6224 47.592C72.492 46.9196 72.3001 46.2616 72.1697 45.5892C72.0848 45.1566 71.3912 45.1948 71.4766 45.6341Z"
    fill="black"
  />
<path
    d="M63.4726 61.5681C63.3488 62.824 63.3382 64.081 63.4025 65.3406C63.4258 65.7877 64.1178 65.7422 64.0955 65.2956C64.0333 64.0965 64.0367 62.8979 64.1533 61.703C64.1956 61.2616 63.516 61.122 63.4726 61.5681Z"
    fill="black"
  />
<path
    d="M58.4488 63.8487C59.5032 64.0374 60.5699 64.1082 61.6397 64.1134C62.0872 64.115 62.0401 63.4234 61.5946 63.4203C60.5827 63.4157 59.58 63.3459 58.5836 63.1681C58.1432 63.09 58.0064 63.7697 58.4488 63.8487Z"
    fill="black"
  />
<path
    d="M57.9596 58.9209C58.4393 59.4682 58.8643 60.0502 59.2578 60.6616C59.5002 61.0374 60.08 60.6581 59.8391 60.2818C59.412 59.6187 58.9442 58.9985 58.4231 58.4046C58.1284 58.0687 57.6686 58.5906 57.9596 58.9209Z"
    fill="black"
  />
<path
    d="M59.4137 58.256C59.6076 58.7289 59.9287 59.0794 60.2859 59.4376C60.6023 59.756 61.0631 59.2371 60.7488 58.9223C60.4821 58.6546 60.2174 58.393 60.07 58.0364C59.9019 57.6255 59.2436 57.8414 59.4137 58.256Z"
    fill="black"
  />
<path
    d="M66.0424 64.8605C66.3227 65.3495 66.6138 65.827 66.9472 66.2818C67.2109 66.641 67.7923 66.2638 67.5286 65.902C67.1951 65.4472 66.9035 64.9707 66.6238 64.4807C66.3994 64.0921 65.8206 64.4745 66.0424 64.8605Z"
    fill="black"
  />
<path
    d="M79.2401 61.2714C79.6815 60.4481 80.3879 59.8903 81.1233 59.3393C81.4794 59.0716 81.101 58.4896 80.7434 58.7579C79.9093 59.3849 79.1212 60.0259 78.6204 60.9604C78.4086 61.3558 79.0293 61.6648 79.2401 61.2714Z"
    fill="black"
  />
<path
    d="M80.3133 61.6971C81.2411 62.6324 82.4568 63.116 83.6208 63.6875C84.0219 63.8854 84.332 63.2651 83.9309 63.0672C82.8243 62.5231 81.6613 62.0711 80.7775 61.1822C80.4617 60.8628 80.0006 61.3818 80.3133 61.6971Z"
    fill="black"
  />
<path
    d="M85.1128 60.9278C85.6157 60.7723 86.1206 60.6875 86.6405 60.6219C87.0818 60.5661 87.0403 59.8735 86.5954 59.9288C86.016 60.0022 85.4512 60.0957 84.893 60.2688C84.4657 60.4027 84.686 61.0606 85.1128 60.9278Z"
    fill="black"
  />
<path
    d="M84.6607 59.5712C85.2147 59.3986 85.7857 59.2927 86.3402 59.119C86.7676 58.9852 86.5468 58.3283 86.121 58.4616C85.567 58.6342 84.9959 58.7401 84.4414 58.9138C84.014 59.0476 84.2348 59.7045 84.6607 59.5712Z"
    fill="black"
  />
<path
    d="M72.8814 76.8389C73.7403 76.7671 74.5822 76.6131 75.4235 76.4343C75.8613 76.3418 75.6368 75.6844 75.2043 75.7768C74.4198 75.9427 73.6353 76.0802 72.8368 76.1473C72.3918 76.1845 72.4349 76.8766 72.8814 76.8389Z"
    fill="black"
  />
<path
    d="M74.4961 75.2236C75.0129 75.159 75.5297 75.0944 76.0465 75.0298C76.4879 74.974 76.4459 74.2825 76.0014 74.3367C75.4846 74.4013 74.9678 74.4659 74.451 74.5305C74.0091 74.5873 74.0522 75.2794 74.4961 75.2236Z"
    fill="black"
  />
<path
    d="M58.1625 79.979C58.5094 80.6576 58.9024 81.3089 59.1578 82.0309C59.3063 82.4527 59.9646 82.2341 59.8152 81.8118C59.5401 81.0334 59.1171 80.331 58.7423 79.5997C58.5386 79.2007 57.9603 79.5846 58.1625 79.979Z"
    fill="black"
  />
<path
    d="M59.8421 80.4956C60.1834 81.1779 60.536 81.8503 60.9408 82.4985C61.1786 82.8784 61.7579 82.4975 61.5221 82.1186C61.1168 81.4715 60.7647 80.798 60.4235 80.1158C60.2213 79.7163 59.6441 80.1008 59.8421 80.4956Z"
    fill="black"
  />
<path
    d="M37.815 52.9025C38.95 53.413 40.2033 53.1209 41.3921 53.3844C41.8294 53.4815 41.9626 52.8013 41.5264 52.7047C40.4157 52.4583 39.1758 52.7545 38.1261 52.2827C37.7178 52.0993 37.4067 52.719 37.815 52.9025Z"
    fill="black"
  />
<path
    d="M40.1642 50.994C41.0594 51.271 41.9505 51.5588 42.8777 51.7045C43.3186 51.7737 43.4544 51.0935 43.012 51.0248C42.0848 50.8791 41.1927 50.5908 40.2985 50.3144C39.8716 50.1811 39.7399 50.8633 40.1642 50.994Z"
    fill="black"
  />
<path
    d="M42.0405 45.318C41.4875 46.1191 41.1951 46.9833 41.2417 47.9627C41.2629 48.4087 41.9555 48.3647 41.9347 47.9177C41.8975 47.1393 42.1145 46.4235 42.5568 45.7815C42.8064 45.4192 42.2932 44.952 42.0405 45.318Z"
    fill="black"
  />
<path
    d="M42.2722 48.8319C43.0216 49.1936 43.7912 49.4272 44.6218 49.5077C45.0616 49.5506 45.2022 48.8714 44.7561 48.8281C43.9855 48.7516 43.28 48.5475 42.5822 48.2117C42.1791 48.0179 41.869 48.6381 42.2722 48.8319Z"
    fill="black"
  />
<path
    d="M20.4318 69.8392C20.6661 70.2754 20.8181 70.7339 20.8932 71.2223C20.961 71.6606 21.653 71.6203 21.5862 71.1774C21.4925 70.5659 21.3053 70.0046 21.0132 69.4593C20.8007 69.065 20.2224 69.449 20.4318 69.8392Z"
    fill="black"
  />
<path
    d="M12.9174 66.3943C12.42 67.4931 12.8822 68.4787 13.7068 69.2618C14.0314 69.5714 14.4933 69.053 14.1697 68.7465C13.583 68.1883 13.1735 67.5081 13.5367 66.7039C13.7216 66.2977 13.1018 65.9865 12.9174 66.3943Z"
    fill="black"
  />
<path
    d="M40.6458 60.9251C41.4931 61.8047 41.8664 62.9604 41.2144 64.0659C40.987 64.451 41.6084 64.759 41.8347 64.376C42.649 62.9976 42.1613 61.4993 41.1098 60.4103C40.7986 60.0868 40.3377 60.6057 40.6458 60.9251Z"
    fill="black"
  />
<path
    d="M35.852 63.485C35.3998 64.3895 34.9477 65.294 34.4955 66.1985C34.2955 66.5986 34.9158 66.9086 35.1157 66.5086C35.5679 65.6041 36.0201 64.6995 36.4722 63.795C36.6722 63.395 36.0519 63.0849 35.852 63.485Z"
    fill="black"
  />
<path
    d="M35.2965 67.3096C36.1498 67.709 37.0558 67.8531 37.9929 67.7982C38.4389 67.7718 38.3949 67.0793 37.9478 67.1052C37.1302 67.1538 36.3508 67.0381 35.605 66.6898C35.2023 66.5002 34.8912 67.1199 35.2965 67.3096Z"
    fill="black"
  />
<path
    d="M31.4451 80.7131C32.3496 80.8422 33.2541 80.9713 34.1586 81.1005C34.5989 81.163 34.7369 80.4838 34.2929 80.4208C33.3884 80.2917 32.4839 80.1626 31.5795 80.0334C31.1386 79.9694 31.0001 80.6496 31.4451 80.7131Z"
    fill="black"
  />
<path
    d="M35.7525 75.4202C35.7521 76.2818 35.7604 77.1465 35.2726 77.8923C35.0276 78.266 35.6515 78.5714 35.8928 78.2024C36.4447 77.3594 36.4452 76.3505 36.4461 75.3768C36.4445 74.9276 35.753 74.9747 35.7525 75.4202Z"
    fill="black"
  />
<path
    d="M12.9069 85.1819C11.9748 86.4109 12.3194 87.87 13.4499 88.8371C13.789 89.1281 14.2535 88.6123 13.9129 88.3218C13.094 87.6204 12.7181 86.5733 13.4208 85.6455C13.6905 85.292 13.1766 84.8258 12.9069 85.1819Z"
    fill="black"
  />
<path
    d="M19.2419 89.0644C18.5887 89.4846 17.9572 89.9363 17.304 90.3565C16.9273 90.5984 17.3078 91.1788 17.684 90.938C18.3372 90.5178 18.9687 90.0661 19.6219 89.6459C19.9981 89.4025 19.6176 88.822 19.2419 89.0644Z"
    fill="black"
  />
<path
    d="M20.7249 89.8975C20.2222 90.5079 19.5685 90.8464 18.8056 91.0283C18.3705 91.1312 18.5924 91.7886 19.0249 91.6858C19.8947 91.4785 20.6683 91.0578 21.2398 90.3617C21.5245 90.0169 21.0086 89.5522 20.7249 89.8975Z"
    fill="black"
  />
<path
    d="M144.765 87.8308C146.294 86.4802 148.193 85.586 150.214 85.2966C150.652 85.233 150.612 84.5409 150.169 84.6035C147.953 84.9218 145.924 85.8868 144.248 87.3671C143.915 87.6628 144.434 88.1228 144.765 87.8308Z"
    fill="black"
  />
<path
    d="M157.273 88.5538C158.872 89.2898 158.139 91.2363 156.981 92.024C156.611 92.2757 156.99 92.8556 157.361 92.6055C158.953 91.5242 159.681 88.8986 157.584 87.9352C157.178 87.7465 156.866 88.3672 157.273 88.5538Z"
    fill="black"
  />
<path
    d="M146.478 89.0804C147.02 90.0179 147.617 90.9209 148.158 91.8584C148.383 92.2461 148.962 91.8646 148.74 91.4786C148.198 90.541 147.601 89.6381 147.059 88.7005C146.835 88.3128 146.255 88.6948 146.478 89.0804Z"
    fill="black"
  />
<path
    d="M151.712 90.889C151.975 91.3655 152.205 91.809 152.611 92.1848C152.939 92.4897 153.401 91.9729 153.074 91.6695C152.715 91.3367 152.524 90.9309 152.292 90.5102C152.074 90.1169 151.497 90.4998 151.712 90.889Z"
    fill="black"
  />
<path
    d="M152.969 87.5716C153.517 87.0868 154.064 86.6305 154.76 86.3762C155.18 86.2232 154.961 85.5647 154.54 85.7187C153.729 86.0149 153.092 86.541 152.455 87.1075C152.119 87.4047 152.64 87.8642 152.969 87.5716Z"
    fill="black"
  />
<path
    d="M130.807 86.2747C131.582 85.6933 132.357 85.1118 133.132 84.5303C133.488 84.2626 133.111 83.6811 132.752 83.9489C131.977 84.5303 131.202 85.1118 130.427 85.6933C130.071 85.961 130.449 86.544 130.807 86.2747Z"
    fill="black"
  />
<path
    d="M131.323 83.303C132.106 82.7153 132.885 82.1214 133.587 81.435C133.908 81.1212 133.389 80.6612 133.072 80.9719C132.413 81.6164 131.68 82.17 130.944 82.7221C130.587 82.9893 130.965 83.5723 131.323 83.303Z"
    fill="black"
  />
<path
    d="M129.966 99.9846C130.464 101.137 131.119 102.188 131.814 103.23C132.062 103.603 132.643 103.224 132.396 102.851C131.735 101.859 131.099 100.861 130.625 99.765C130.448 99.3572 129.788 99.5737 129.966 99.9846Z"
    fill="black"
  />
<path
    d="M135.431 100.516C135.977 101.59 136.188 102.787 136.556 103.925C136.694 104.35 137.351 104.131 137.214 103.706C136.825 102.506 136.588 101.269 136.011 100.137C135.809 99.7386 135.23 100.123 135.431 100.516Z"
    fill="black"
  />
<path
    d="M133.89 102.029C134.045 102.866 134.227 103.696 134.489 104.507C134.626 104.933 135.284 104.713 135.146 104.288C134.903 103.534 134.726 102.762 134.581 101.984C134.501 101.55 133.809 101.589 133.89 102.029Z"
    fill="black"
  />
<path
    d="M135.27 97.2521C134.448 98.1799 133.468 98.9376 132.557 99.7719C132.226 100.074 132.746 100.534 133.072 100.235C133.984 99.4013 134.965 98.6435 135.785 97.7153C136.082 97.3814 135.566 96.9182 135.27 97.2521Z"
    fill="black"
  />
<path
    d="M138.688 102.245C138.857 103.076 139.276 103.75 139.948 104.266C140.301 104.538 140.766 104.024 140.411 103.751C139.822 103.298 139.493 102.751 139.345 102.025C139.257 101.588 138.6 101.812 138.688 102.245Z"
    fill="black"
  />
<path
    d="M140.735 100.959C141.485 101.321 142.254 101.555 143.085 101.635C143.525 101.678 143.665 100.999 143.219 100.956C142.449 100.879 141.743 100.675 141.046 100.34C140.642 100.145 140.332 100.766 140.735 100.959Z"
    fill="black"
  />
<path
    d="M157.563 145.704C156.495 147.17 155.652 148.809 154.991 150.497C154.83 150.91 155.449 151.223 155.611 150.807C156.247 149.182 157.05 147.582 158.078 146.168C158.339 145.809 157.825 145.343 157.563 145.704Z"
    fill="black"
  />
<path
    d="M157.666 149.476C159.484 150.54 161.339 151.4 163.44 151.702C163.881 151.766 164.018 151.086 163.574 151.023C161.532 150.728 159.74 149.888 157.977 148.857C157.589 148.629 157.282 149.252 157.666 149.476Z"
    fill="black"
  />
<path
    d="M161.516 143.261C160.931 144.501 160.678 145.85 160.224 147.137C160.078 147.552 160.696 147.868 160.845 147.447C161.298 146.162 161.553 144.808 162.136 143.571C162.326 143.167 161.707 142.856 161.516 143.261Z"
    fill="black"
  />
<path
    d="M163.028 148.119C163.622 148.416 164.22 148.675 164.861 148.86C165.29 148.984 165.422 148.303 164.995 148.18C164.415 148.013 163.878 147.769 163.339 147.499C162.938 147.299 162.628 147.919 163.028 148.119Z"
    fill="black"
  />
<path
    d="M159.113 143.895C158.644 144.497 158.465 145.202 158.444 145.958C158.432 146.406 159.125 146.356 159.137 145.913C159.152 145.356 159.283 144.804 159.63 144.358C159.902 144.007 159.388 143.542 159.113 143.895Z"
    fill="black"
  />
<path
    d="M156.697 151.738C157.312 152.024 157.942 152.147 158.618 152.162C159.065 152.172 159.018 151.479 158.573 151.469C158.017 151.457 157.511 151.352 157.006 151.118C156.602 150.929 156.291 151.549 156.697 151.738Z"
    fill="black"
  />
<path
    d="M165.871 145.987C166.381 146.242 166.889 146.462 167.445 146.598C167.879 146.704 168.012 146.024 167.579 145.919C167.081 145.796 166.638 145.594 166.182 145.367C165.78 145.168 165.47 145.787 165.871 145.987Z"
    fill="black"
  />
<path
    d="M137.816 162.758C139.508 162.558 141.106 163.114 142.766 163.332C143.206 163.391 143.345 162.711 142.9 162.653C141.18 162.427 139.525 161.86 137.771 162.066C137.329 162.117 137.371 162.81 137.816 162.758Z"
    fill="black"
  />
<path
    d="M139.71 164.372C139.84 165.083 139.969 165.794 140.098 166.504C140.178 166.94 140.871 166.9 140.791 166.459C140.662 165.749 140.533 165.038 140.403 164.327C140.323 163.893 139.63 163.933 139.71 164.372Z"
    fill="black"
  />
<path
    d="M144.476 166.287C145.028 166.737 145.639 167.012 146.32 167.209C146.748 167.334 146.881 166.652 146.454 166.529C145.893 166.366 145.394 166.142 144.939 165.771C144.594 165.489 144.129 166.005 144.476 166.287Z"
    fill="black"
  />
<path
    d="M139.302 151.064C140.274 151.05 141.219 150.863 142.167 150.66C142.604 150.567 142.38 149.91 141.948 150.002C141.057 150.192 140.171 150.359 139.257 150.373C138.81 150.379 138.856 151.071 139.302 151.064Z"
    fill="black"
  />
<path
    d="M141.198 148.721C141.931 148.485 142.67 148.351 143.436 148.286C143.881 148.249 143.837 147.556 143.391 147.593C142.567 147.663 141.766 147.809 140.978 148.062C140.552 148.201 140.773 148.859 141.198 148.721Z"
    fill="black"
  />
<path
    d="M128.244 148.109C127.893 148.752 127.35 149.231 126.811 149.712C126.478 150.009 126.997 150.469 127.327 150.175C127.918 149.649 128.482 149.12 128.865 148.418C129.078 148.026 128.457 147.717 128.244 148.109Z"
    fill="black"
  />
<path
    d="M122.801 167.304C123.231 168.446 123.132 170.257 121.557 170.273C121.109 170.277 121.156 170.969 121.602 170.966C123.642 170.946 124.05 168.654 123.459 167.086C123.302 166.666 122.642 166.885 122.801 167.304Z"
    fill="black"
  />
<path
    d="M116.409 163.723C117.331 163.844 118.264 163.86 119.186 163.982C119.627 164.04 119.766 163.36 119.321 163.302C118.398 163.18 117.465 163.165 116.543 163.043C116.102 162.984 115.964 163.665 116.409 163.723Z"
    fill="black"
  />
<path
    d="M116.781 164.931C116.712 165.759 116.658 166.582 116.711 167.412C116.74 167.858 117.431 167.814 117.404 167.367C117.354 166.597 117.398 165.834 117.462 165.066C117.497 164.625 116.818 164.485 116.781 164.931Z"
    fill="black"
  />
<path
    d="M107.209 147.672C107.934 148.055 108.562 148.678 108.317 149.556C108.196 149.987 108.877 150.119 108.996 149.691C109.326 148.512 108.505 147.573 107.519 147.053C107.124 146.842 106.815 147.463 107.209 147.672Z"
    fill="black"
  />
<path
    d="M104.157 152.23C104.673 152.187 105.128 152.299 105.595 152.517C105.999 152.706 106.31 152.087 105.905 151.897C105.334 151.631 104.743 151.486 104.112 151.539C103.668 151.575 103.711 152.267 104.157 152.23Z"
    fill="black"
  />
<path
    d="M103.936 164.657C104.214 165.912 103.257 166.546 102.111 166.527C101.664 166.52 101.711 167.213 102.156 167.22C103.806 167.247 104.964 166.106 104.594 164.439C104.497 164 103.839 164.225 103.936 164.657Z"
    fill="black"
  />
<path
    d="M98.1688 161.856C98.2263 162.719 98.1738 163.579 98.1693 164.441C98.1668 164.888 98.8593 164.841 98.8623 164.396C98.8653 163.534 98.9184 162.673 98.8619 161.812C98.8313 161.366 98.1387 161.41 98.1688 161.856Z"
    fill="black"
  />
<path
    d="M93.3621 191.398C92.836 192.497 92.5306 193.673 92.1348 194.822C91.9911 195.238 92.6088 195.554 92.755 195.132C93.1509 193.986 93.4568 192.806 93.9824 191.708C94.1762 191.305 93.5549 190.994 93.3621 191.398Z"
    fill="black"
  />
<path
    d="M96.4623 188.749C96.0066 190.043 95.755 191.397 95.2998 192.69C95.153 193.105 95.7717 193.421 95.92 193C96.3768 191.706 96.6273 190.352 97.0825 189.059C97.2282 188.643 96.6106 188.328 96.4623 188.749Z"
    fill="black"
  />
<path
    d="M95.3498 194.219C96.2176 194.473 97.1061 194.608 97.9986 194.735C98.439 194.798 98.5769 194.119 98.133 194.056C97.2399 193.927 96.3519 193.793 95.4841 193.539C95.0551 193.412 94.9239 194.094 95.3498 194.219Z"
    fill="black"
  />
<path
    d="M101.264 188.576C101.719 189.415 101.817 190.314 101.538 191.226C101.407 191.653 102.088 191.784 102.217 191.36C102.55 190.274 102.382 189.186 101.844 188.196C101.629 187.803 101.051 188.187 101.264 188.576Z"
    fill="black"
  />
<path
    d="M86.0441 204.972C86.3884 205.769 86.2764 206.446 85.8047 207.162C85.5587 207.535 86.1816 207.84 86.425 207.472C86.9877 206.618 87.1105 205.7 86.7015 204.753C86.5257 204.344 85.8667 204.561 86.0441 204.972Z"
    fill="black"
  />
<path
    d="M69.5724 195.061C70.221 195.283 70.6356 195.733 70.7148 196.423C70.7661 196.866 71.4581 196.823 71.4078 196.378C71.2893 195.351 70.6648 194.708 69.7071 194.38C69.2843 194.236 69.1553 194.918 69.5724 195.061Z"
    fill="black"
  />
<path
    d="M61.345 208.082C62.3457 208.561 63.4187 208.806 64.47 209.145C64.8949 209.282 65.0251 208.601 64.6043 208.465C63.6125 208.144 62.6005 207.915 61.6561 207.462C61.252 207.268 60.9419 207.888 61.345 208.082Z"
    fill="black"
  />
<path
    d="M67.3477 211.191C67.8067 212.118 67.6099 212.977 66.8026 213.618C66.4553 213.894 66.8322 214.476 67.1826 214.199C68.3128 213.3 68.5675 212.101 67.9291 210.811C67.729 210.41 67.1512 210.796 67.3477 211.191Z"
    fill="black"
  />
<path
    d="M3.08203 179.7C3.41366 178.876 4.37033 179.071 4.93118 179.544C5.27286 179.832 5.73583 179.317 5.39415 179.029C4.50919 178.281 2.96851 178.13 2.46281 179.39C2.29596 179.801 2.91467 180.115 3.08203 179.7Z"
    fill="black"
  />
<path
    d="M13.1808 122.407C12.8795 123.009 12.5777 123.613 12.2765 124.216C12.0765 124.616 12.6967 124.926 12.8967 124.526C13.198 123.923 13.4998 123.319 13.8011 122.717C14.0011 122.317 13.3808 122.007 13.1808 122.407Z"
    fill="black"
  />
<path
    d="M92.4141 93.3292C90.263 88.8592 81.7637 71.754 86.035 68.0494C88.5597 66.1462 97.746 74.6637 99.04 77.0693C101.948 82.8274 98.2629 88.0397 93.5026 91.0166C92.9435 91.2849 92.604 91.7237 92.0459 91.9925"
    fill="black"
  />
<path
    d="M92.9242 92.6698C94.0624 90.7464 98.3132 88.4271 100.717 87.1327C108.78 82.1544 112.698 83.4352 120.391 87.9913C115.717 96.2947 100.032 95.7187 92.4147 93.3273"
    fill="black"
  />
<path
    d="M92.3173 92.5499C97.8614 81.7639 111.886 67.7255 125.181 75.9183C118.2 86.2934 105.152 90.9178 93.3132 92.6202"
    fill="black"
  />
<path
    d="M92.2658 92.1614C93.1432 81.9688 95.4508 69.0259 105.359 63.0215C109.871 68.9713 109.524 77.1187 105.33 82.9889C103.172 86.2282 97.691 92.8542 94.5792 93.2508"
    fill="black"
  />
<path
    d="M100.41 83.5718C104.693 77.9151 108.045 71.7814 111.003 65.3439C111.392 64.4994 110.101 63.8503 109.711 64.698C106.807 71.0192 103.546 77.0443 99.3364 82.6059C98.7767 83.3429 99.8482 84.314 100.41 83.5718Z"
    fill="black"
  />
<path
    d="M100.297 83.7172C105.56 78.2679 113.452 76.5247 118.248 70.4981C118.827 69.7719 117.753 68.8024 117.174 69.5322C112.395 75.5376 104.487 77.3014 99.2225 82.7513C98.5729 83.4227 99.6517 84.3845 100.297 83.7172Z"
    fill="black"
  />
<path
    d="M102.674 80.6488C107.295 75.5193 113.175 71.3225 115.327 64.4871C115.607 63.5997 114.187 63.3279 113.91 64.2076C111.859 70.719 105.992 74.8072 101.6 79.6829C100.975 80.3755 102.051 81.3388 102.674 80.6488Z"
    fill="black"
  />
<path
    d="M112.038 64.4751C111.985 63.5453 110.796 62.951 109.98 63.0508C109.068 63.162 108.546 64.1632 108.751 65.0025C108.776 65.2977 108.857 65.5824 109.01 65.8062C109.437 66.4372 110.269 66.4733 110.909 66.1756C111.582 65.8644 112.084 65.2395 112.038 64.4751Z"
    fill="black"
  />
<path
    d="M116.099 62.9377C116.068 62.9077 116.033 62.8906 116.001 62.8653C115.717 62.4028 115.221 62.1165 114.596 62.3724C113.765 62.7115 113.453 63.6372 113.825 64.4403C113.839 64.4693 113.857 64.4889 113.873 64.5173C113.903 64.5933 113.934 64.6708 113.976 64.737C114.156 65.0155 114.408 65.1452 114.678 65.185C115.136 65.3235 115.666 65.2381 116.1 64.9332C116.779 64.4535 116.641 63.4503 116.099 62.9377Z"
    fill="black"
  />
<path
    d="M118.83 70.184C118.835 70.1675 118.846 70.1571 118.851 70.1406C119.276 68.8221 117.973 67.7596 116.763 68.5292C116.44 68.735 116.329 69.0632 116.372 69.3857C116.292 69.5614 116.244 69.748 116.278 69.9485C116.465 71.038 117.605 71.364 118.331 70.8559C118.625 70.7551 118.846 70.4879 118.83 70.184Z"
    fill="black"
  />
<g opacity="0.6">
<path
      d="M94.3909 91.5267C94.7403 88.894 94.9295 86.623 94.101 84.0538C93.1138 80.9957 91.8976 78.0311 90.1816 75.3063C89.6837 74.516 88.476 75.3088 88.9718 76.0955C90.4774 78.4889 91.5446 81.0561 92.4667 83.7199C93.3831 86.3666 93.3349 88.5182 92.9736 91.2471C92.8518 92.1655 94.2681 92.4524 94.3909 91.5267Z"
      fill="black"
    />
</g>
<g opacity="0.6">
<path
      d="M95.1686 91.0758C96.8977 87.9167 99.0031 85.0052 100.361 81.6528C101.515 78.807 102.101 75.7266 102.942 72.7826C103.199 71.8874 101.779 71.6121 101.525 72.5031C100.588 75.7764 99.8455 79.0889 98.5635 82.2531C97.3926 85.1433 95.3683 87.7013 93.8764 90.4299C93.4289 91.2475 94.7221 91.8914 95.1686 91.0758Z"
      fill="black"
    />
</g>
<g opacity="0.6">
<path
      d="M95.6096 90.374C98.0957 87.7837 101.279 86.3634 104.521 84.9484C107.472 83.6625 110.296 82.2914 113.464 81.6133C114.375 81.419 113.908 80.0499 113.007 80.2427C109.497 80.9931 106.345 82.5823 103.076 84.0077C99.9373 85.3763 96.929 86.9123 94.5349 89.4065C93.8884 90.082 94.9668 91.0449 95.6096 90.374Z"
      fill="black"
    />
</g>
<g opacity="0.6">
<path
      d="M94.1423 92.5102C96.7153 90.6507 100.33 90.8042 103.377 90.6388C106.962 90.444 110.52 90.7412 114.104 90.7035C115.035 90.6937 114.939 89.2517 114.009 89.2621C109.833 89.306 105.705 89.0703 101.527 89.2915C98.7359 89.4388 95.6892 89.6119 93.3513 91.3008C92.5989 91.8445 93.3868 93.0549 94.1423 92.5102Z"
      fill="black"
    />
</g>
<path
    d="M92.3639 92.9393C93.0294 85.7391 91.6924 75.235 102.257 80.6119C117.497 88.5582 97.6602 91.0795 92.0249 93.3772"
    fill="black"
  />
<g opacity="0.4">
<path
      d="M93.8679 92.7565C94.4285 91.5367 95.0703 90.3588 95.6713 89.1592C96.4123 87.682 96.7176 85.9805 97.7135 84.6397C98.2654 83.8975 97.1939 82.9264 96.6394 83.6738C95.8084 84.7934 95.4069 86.0282 94.9248 87.326C94.3084 88.983 93.3146 90.5057 92.5767 92.1111C92.1871 92.9551 93.4777 93.6042 93.8679 92.7565Z"
      fill="black"
    />
</g>
<g opacity="0.4">
<path
      d="M93.9112 92.5673C96.1917 90.3469 98.9918 88.7363 101.088 86.319C101.698 85.615 100.624 84.6491 100.014 85.353C97.9212 87.7657 95.1155 89.3824 92.837 91.6013C92.1677 92.2525 93.2487 93.2128 93.9112 92.5673Z"
      fill="black"
    />
</g>
<path
    d="M92.9782 96.2211C89.2919 96.5216 86.4933 88.7433 87.7735 84.8248C91.2041 85.3772 90.4324 88.6377 92.285 90.7733C94.8456 93.8083 95.7156 91.3257 99.414 92.4358C105.815 94.5883 96.1191 97.6016 92.9782 96.2211Z"
    fill="black"
  />
<path
    d="M88.635 89.0203C88.931 91.1477 89.903 93.1661 91.6614 94.4562C93.4668 95.7788 95.6884 95.0253 97.6982 94.8326C98.6232 94.7447 98.534 93.3022 97.6033 93.391C96.3196 93.514 95.0339 93.8841 93.7372 93.7616C91.5495 93.5553 90.3366 90.7911 90.0763 88.9258C89.949 88.0094 88.5061 88.0941 88.635 89.0203Z"
    fill="black"
  />
<path
    d="M52.3854 117.395C49.3086 111.856 43.6302 106.056 37.3281 104.683C26.3311 102.128 18.0499 106.938 9.52705 112.963C20.8778 121.402 38.7074 123.286 51.1673 117.154"
    fill="black"
  />
<path
    d="M52.1692 117.226C47.883 114.609 42.0633 110.802 39.1841 106.819C34.3531 99.9226 36.4901 87.1978 39.9277 80.0399C50.112 88.6288 64.2757 105.211 52.3883 117.395"
    fill="black"
  />
<path
    d="M51.2927 116.544C52.7642 111.02 56.4481 105.807 61.8161 102.95C70.1958 98.92 81.3708 104.417 89.8852 106.102C84.1 118.105 61.908 122.311 51.1724 117.152"
    fill="black"
  />
<path
    d="M51.3396 116.933C46.8634 115.921 40.066 121.528 37.0813 124.478C32.9087 128.962 29.4078 140.279 28.5951 146.312C42.8733 148.253 60.3928 130.607 51.1205 116.764"
    fill="black"
  />
<path
    d="M50.7813 117.201C55.8813 113.785 65.1738 115.371 70.1165 118.497C73.5748 120.825 76.0152 124.467 79.134 127.234C82.0331 129.829 85.6614 131.938 88.5616 134.534C79.6218 138.834 71.064 139.921 62.1535 135.125C53.8508 130.449 52.9384 124.833 50.1239 116.691"
    fill="black"
  />
<g opacity="0.4">
<path
      d="M48.8058 116.431C46.3562 124.358 39.9903 130.12 34.9641 136.45C34.3863 137.177 35.4589 138.146 36.0382 137.416C41.2551 130.846 47.683 124.935 50.223 116.711C50.4979 115.822 49.0786 115.55 48.8058 116.431Z"
      fill="black"
    />
</g>
<g opacity="0.4">
<path
      d="M49.0758 116.99C47.9066 123.778 45.8343 130.336 44.1095 136.992C43.876 137.893 45.2932 138.17 45.5267 137.271C47.2516 130.615 49.3248 124.058 50.4931 117.27C50.6506 116.355 49.2334 116.07 49.0758 116.99Z"
      fill="black"
    />
</g>
<g opacity="0.4">
<path
      d="M49.8135 117.62C59.0466 118.985 66.7676 124.124 74.7511 128.592C75.5647 129.048 76.2075 127.755 75.3971 127.3C67.2905 122.762 59.4547 117.587 50.093 116.203C49.1756 116.066 48.8894 117.484 49.8135 117.62Z"
      fill="black"
    />
</g>
<g opacity="0.4">
<path
      d="M50.3473 118.127C57.5685 123.441 64.4399 129.173 72.2343 133.656C73.0432 134.121 73.684 132.827 72.8802 132.364C65.1996 127.946 58.429 122.288 51.3132 117.053C50.5694 116.504 49.5973 117.575 50.3473 118.127Z"
      fill="black"
    />
</g>
<g opacity="0.4">
<path
      d="M52.288 115.978C58.3178 109.023 67.238 105.555 76.361 105.781C77.2924 105.805 77.1913 104.363 76.2662 104.34C66.7912 104.104 57.4653 107.799 51.2122 115.013C50.603 115.717 51.6777 116.682 52.288 115.978Z"
      fill="black"
    />
</g>
<g opacity="0.4">
<path
      d="M51.5901 116.23C58.3012 113.1 65.3713 111.632 72.7751 111.772C73.7069 111.789 73.6069 110.348 72.6802 110.33C65.1576 110.188 57.9551 111.678 51.1329 114.859C50.2973 115.249 50.7461 116.623 51.5901 116.23Z"
      fill="black"
    />
</g>
<g opacity="0.4">
<path
      d="M51.0168 114.72C44.2179 109.839 40.5844 101.507 40.5534 93.2476C40.5501 92.3158 39.1087 92.4129 39.1119 93.3422C39.1436 101.931 42.9787 110.718 50.0505 115.795C50.8006 116.331 51.7731 115.262 51.0168 114.72Z"
      fill="black"
    />
</g>
<g opacity="0.4">
<path
      d="M51.0708 113.861C49.6792 109.657 48.5723 105.344 46.4638 101.422C46.0212 100.599 44.8166 101.398 45.254 102.211C47.2999 106.018 48.3489 110.238 49.7008 114.316C49.9929 115.203 51.3635 114.746 51.0708 113.861Z"
      fill="black"
    />
</g>
<g opacity="0.4">
<path
      d="M51.8018 115.126C53.0204 109.041 52.1902 102.951 49.9393 97.2043C49.6006 96.3386 48.2289 96.7924 48.5687 97.6612C50.7327 103.189 51.5572 108.99 50.384 114.848C50.2012 115.759 51.6184 116.041 51.8018 115.126Z"
      fill="black"
    />
</g>
<g opacity="0.4">
<path
      d="M48.1899 115.038C43.5096 115.998 38.747 116.465 34.0667 117.425C33.154 117.612 33.6225 118.98 34.5239 118.795C39.2042 117.836 43.9668 117.368 48.6471 116.408C49.5582 116.222 49.0913 114.853 48.1899 115.038Z"
      fill="black"
    />
</g>
<g opacity="0.4">
<path
      d="M49.1172 114.747C43.748 114.002 38.5037 112.583 33.1344 111.838C32.2166 111.71 31.9295 113.127 32.8551 113.255C38.2243 114 43.4686 115.419 48.8379 116.165C49.7563 116.292 50.0418 114.875 49.1172 114.747Z"
      fill="black"
    />
</g>
<g opacity="0.4">
<path
      d="M49.9076 114.928C45.3049 112.135 40.6112 109.518 35.545 107.663C34.6813 107.346 34.0255 108.635 34.899 108.955C39.9663 110.811 44.6605 113.426 49.2617 116.22C50.0587 116.704 50.699 115.407 49.9076 114.928Z"
      fill="black"
    />
</g>
<path
    d="M51.3245 116.935C55.1558 111.033 58.0217 104.739 60.4936 98.1657C60.8181 97.302 59.5296 96.6489 59.2015 97.5198C56.7295 104.093 53.8637 110.387 50.0323 116.289C49.5254 117.07 50.8232 117.707 51.3245 116.935Z"
    fill="black"
  />
<path
    d="M51.1132 117.249C55.9879 111.444 63.712 109.128 68.0781 102.784C68.599 102.027 67.5295 101.054 67.004 101.818C62.6528 108.14 54.9107 110.481 50.039 116.283C49.4401 116.995 50.5137 117.962 51.1132 117.249Z"
    fill="black"
  />
<path
    d="M53.2656 114.018C57.512 108.581 63.08 103.967 64.7602 97.0077C64.9792 96.1017 63.561 95.8242 63.343 96.7282C61.7352 103.382 56.2462 107.86 52.1915 113.053C51.6195 113.783 52.692 114.752 53.2656 114.018Z"
    fill="black"
  />
<path
    d="M61.4877 97.1806C61.3667 96.2571 60.1397 95.7496 59.3324 95.9068C58.4305 96.0826 57.9799 97.1184 58.2457 97.9412C58.2917 98.2342 58.3935 98.5113 58.561 98.7242C59.0329 99.3232 59.865 99.2998 60.4821 98.9571C61.1297 98.5973 61.5865 97.9394 61.4877 97.1806Z"
    fill="black"
  />
<path
    d="M65.4267 95.3563C65.3931 95.3279 65.3569 95.3149 65.3223 95.2912C65.0059 94.8488 64.4921 94.5997 63.8864 94.899C63.0817 95.2965 62.8379 96.2419 63.2638 97.0155C63.2804 97.0445 63.3005 97.0636 63.3171 97.09C63.3532 97.1649 63.3884 97.2393 63.4349 97.3013C63.6345 97.5664 63.8949 97.6786 64.1668 97.6982C64.6335 97.8036 65.155 97.6805 65.5664 97.3461C66.2139 96.8183 66.004 95.8296 65.4267 95.3563Z"
    fill="black"
  />
<path
    d="M68.6665 102.388C68.6717 102.373 68.6825 102.361 68.6862 102.344C69.0179 100.998 67.6404 100.031 66.4889 100.885C66.1814 101.112 66.0936 101.448 66.1593 101.767C66.0921 101.948 66.058 102.137 66.1066 102.335C66.3698 103.408 67.5311 103.651 68.2195 103.094C68.5053 102.974 68.7053 102.691 68.6665 102.388Z"
    fill="black"
  />
<path
    d="M62.7004 169.824C67.2369 169.503 72.9498 170.643 76.2475 173.894C82.0964 179.506 82.454 186.373 82.1729 193.861C72.6477 190.344 64.5231 180.359 63.3228 170.46"
    fill="black"
  />
<path
    d="M62.8902 169.89C66.1447 171.441 70.7161 173.449 74.2386 173.619C80.2789 173.82 87.0903 167.545 90.0456 162.671C80.8886 159.914 65.3653 157.895 62.7016 169.826"
    fill="black"
  />
<path
    d="M63.6426 170.154C66.3853 167.103 68.0755 162.842 67.6873 158.493C66.8247 151.871 59.1367 147.307 54.7851 142.845C49.8386 151.032 56.0125 166.03 63.3238 170.463"
    fill="black"
  />
<path
    d="M63.3874 170.273C65.7516 172.569 65.0454 178.855 64.4422 181.807C63.3817 186.074 57.9525 192.617 54.6447 195.474C47.8781 187.648 51.616 170.191 63.5755 170.339"
    fill="black"
  />
<path
    d="M63.4446 170.716C63.4973 166.309 58.9006 161.343 55.0822 159.596C52.3259 158.429 49.1795 158.391 46.2945 157.6C43.5967 156.874 40.9055 155.519 38.2081 154.792C39.1289 161.855 41.8305 167.428 48.2095 170.907C54.2773 174.067 58.0116 172.412 64.0095 170.912"
    fill="black"
  />
<g opacity="0.4">
<path
      d="M63.7832 170.746C59.8262 175.534 58.7749 181.752 56.8631 187.5C56.5702 188.38 57.99 188.652 58.2804 187.779C60.1059 182.295 61.0811 176.283 64.8583 171.712C65.4495 170.995 64.3759 170.028 63.7832 170.746Z"
      fill="black"
    />
</g>
<g opacity="0.4">
<path
      d="M63.3415 170.802C59.7187 174.167 56.5881 177.984 53.2626 181.633C52.6337 182.323 53.7099 183.287 54.3368 182.599C57.6628 178.952 60.7924 175.134 64.4156 171.768C65.0999 171.133 64.0169 170.174 63.3415 170.802Z"
      fill="black"
    />
</g>
<g opacity="0.4">
<path
      d="M64.4274 170.56C59.9113 165.462 53.7007 162.776 47.7795 159.674C46.953 159.241 46.3091 160.534 47.1335 160.966C52.9379 164.007 59.0312 166.633 63.461 171.635C64.0787 172.333 65.0368 171.249 64.4274 170.56Z"
      fill="black"
    />
</g>
<g opacity="0.4">
<path
      d="M63.5155 170.191C57.5323 167.949 51.4334 166.082 45.7225 163.174C44.8925 162.751 44.2465 164.043 45.0766 164.466C50.7869 167.372 56.8864 169.242 62.8695 171.483C63.7322 171.807 64.3869 170.518 63.5155 170.191Z"
      fill="black"
    />
</g>
<g opacity="0.4">
<path
      d="M64.7986 169.603C66.6875 162.947 65.2162 155.868 61.3366 150.205C60.8093 149.435 59.6 150.225 60.1268 150.994C63.813 156.377 65.1742 163.002 63.3803 169.323C63.1267 170.218 64.5461 170.494 64.7986 169.603Z"
      fill="black"
    />
</g>
<g opacity="0.4">
<path
      d="M64.9329 169.669C64.1633 164.242 62.2216 159.242 59.1398 154.71C58.6156 153.939 57.4053 154.729 57.93 155.499C60.8733 159.827 62.7555 164.58 63.4915 169.764C63.6219 170.679 65.0649 170.595 64.9329 169.669Z"
      fill="black"
    />
</g>
<g opacity="0.4">
<path
      d="M64.3887 170.747C70.3462 173.058 77.2014 171.961 82.5081 168.528C83.2926 168.021 82.4995 166.813 81.7187 167.318C76.8703 170.455 70.5041 171.577 65.0345 169.455C64.1734 169.12 63.5198 170.409 64.3887 170.747Z"
      fill="black"
    />
</g>
<g opacity="0.4">
<path
      d="M65.6996 170.417C68.6687 169.631 71.5954 168.628 74.6727 168.363C75.5994 168.282 75.5091 166.842 74.5778 166.921C71.3776 167.197 68.3305 168.229 65.2435 169.046C64.3411 169.285 64.803 170.654 65.6996 170.417Z"
      fill="black"
    />
</g>
<g opacity="0.4">
<path
      d="M65.1912 170.142C68.2189 167.168 72.0335 165.418 76.1594 164.565C77.0711 164.377 76.6041 163.008 75.7022 163.194C71.3241 164.099 67.3214 166.027 64.1175 169.175C63.4504 169.829 64.5308 170.791 65.1912 170.142Z"
      fill="black"
    />
</g>
<g opacity="0.4">
<path
      d="M64.5746 171.782C65.8311 174.974 67.4205 178.022 68.677 181.213C69.0178 182.077 70.3889 181.625 70.0476 180.756C68.79 177.564 67.2017 174.517 65.9446 171.327C65.6038 170.463 64.2317 170.915 64.5746 171.782Z"
      fill="black"
    />
</g>
<g opacity="0.4">
<path
      d="M64.7205 171.651C67.2731 174.589 70.1822 177.185 72.7368 180.121C73.3479 180.825 74.3049 179.74 73.7026 179.047C71.1496 176.111 68.2394 173.514 65.6863 170.577C65.0743 169.873 64.1173 170.958 64.7205 171.651Z"
      fill="black"
    />
</g>
<g opacity="0.4">
<path
      d="M64.5686 171.441C67.9939 173.085 71.3597 174.84 74.4108 177.121C75.152 177.675 76.1231 176.603 75.3767 176.047C72.2212 173.688 68.7587 171.849 65.2146 170.149C64.3752 169.747 63.7272 171.038 64.5686 171.441Z"
      fill="black"
    />
</g>
<path
    d="M64.486 170.869C66.5018 166.309 69.1208 162.168 72.0664 158.155C72.6132 157.41 71.5432 156.438 70.9924 157.189C67.9728 161.301 65.2619 165.546 63.1939 170.223C62.8187 171.071 64.1088 171.721 64.486 170.869Z"
    fill="black"
  />
<path
    d="M64.4969 170.807C66.0458 165.666 64.4253 160.143 66.4791 155.116C66.8284 154.26 65.5393 153.608 65.1869 154.47C63.067 159.66 64.6694 165.251 63.0797 170.527C62.8101 171.418 64.2298 171.693 64.4969 170.807Z"
    fill="black"
  />
<path
    d="M65.5318 168.427C67.0736 163.927 67.6179 158.834 71.0034 155.243C71.6443 154.564 70.5661 153.601 69.9294 154.277C66.4193 158.001 65.8363 163.122 64.2396 167.781C63.9425 168.65 65.2306 169.306 65.5318 168.427Z"
    fill="black"
  />
<path
    d="M71.2858 156.426C71.889 156.134 72.6746 156.674 72.8969 157.222C73.1456 157.834 72.6985 158.511 72.099 158.674C71.9057 158.76 71.7006 158.809 71.5062 158.792C70.961 158.743 70.6487 158.233 70.6115 157.728C70.5742 157.195 70.7912 156.663 71.2858 156.426Z"
    fill="black"
  />
<path
    d="M70.8377 153.341C70.8667 153.351 70.8899 153.366 70.9158 153.379C71.306 153.397 71.658 153.608 71.7149 154.089C71.793 154.728 71.3201 155.245 70.6875 155.293C70.6648 155.295 70.6446 155.291 70.6214 155.291C70.5635 155.299 70.504 155.306 70.4487 155.303C70.211 155.288 70.0399 155.173 69.922 155.018C69.6755 154.78 69.5442 154.417 69.5845 154.039C69.6495 153.441 70.3261 153.179 70.8377 153.341Z"
    fill="black"
  />
<path
    d="M65.3377 154.15C65.3454 154.142 65.3485 154.131 65.3568 154.122C66.0369 153.395 67.1575 153.844 67.0961 154.872C67.0806 155.146 66.9137 155.33 66.695 155.415C66.6124 155.526 66.5105 155.622 66.3751 155.67C65.6262 155.933 65.0241 155.331 65.0902 154.697C65.0504 154.477 65.1413 154.246 65.3377 154.15Z"
    fill="black"
  />
<path
    d="M8.64967 164.815C4.81733 159.405 6.77919 151.013 12.0115 147.397C15.5075 145.051 18.5397 144.826 21.8833 147.525C24.1493 149.353 27.7307 152.421 28.6287 155.283C30.5703 162.371 19.5181 153.989 17.9175 153.766C12.3796 152.681 11.9568 160.713 13.025 164.247"
    fill="black"
  />
<path
    d="M5.80377 168.606C2.18097 165.148 -0.725084 161.023 -6.49055 162.427C-12.1475 163.92 -8.24301 167.249 -10.0323 170.793C-12.5429 175.894 -15.863 166.98 -15.2463 164.448C-13.7942 158.674 -8.01414 153.717 -2.00228 155.539C2.49526 157.03 4.0329 162.19 6.46545 165.576"
    fill="black"
  />
<path
    d="M6.03175 166.118C1.68766 164.216 -1.29416 157.534 -2.61978 153.437C-4.43556 147.518 -5.68643 137.513 -2.97857 135.334C2.06912 134.597 6.38723 148.235 7.45437 151.769C8.95061 156.538 8.93306 160.978 8.6737 165.935"
    fill="black"
  />
<path
    d="M8.56372 164.744C6.91763 159.497 5.07772 154.271 5.85817 148.668C6.573 143.366 11.0127 137.863 16.0424 136.043C18.319 140.729 15.1938 147.472 13.2715 151.62C11.2619 155.878 9.66316 160.288 9.36328 164.856"
    fill="black"
  />
<path
    d="M6.80938 166.698C4.27939 166.081 2.3405 163.627 0.37738 161.865C-3.01027 158.776 -5.30404 158.529 -9.71742 157.818C-11.3191 157.595 -12.6806 156.852 -14.1944 156.523C-16.2065 156.146 -17.1394 156.64 -16.5018 154.305C-14.7708 149.289 -7.92683 148.754 -3.97178 150.697C1.14829 153.404 5.57879 160.718 6.65946 166.223"
    fill="black"
  />
<g opacity="0.6">
<path
      d="M6.63604 165.721C2.8693 159.819 -2.40901 156.015 -9.1343 154.128C-10.0305 153.877 -10.3059 155.296 -9.4138 155.545C-3.04668 157.332 1.86725 160.934 5.4262 166.51C5.92915 167.298 7.13693 166.505 6.63604 165.721Z"
      fill="black"
    />
</g>
<g opacity="0.6">
<path
      d="M9.70704 165.272C7.13786 159.804 8.68391 150.443 13.1904 146.468C13.8901 145.852 12.8052 144.895 12.1163 145.502C7.22947 149.812 5.57183 159.845 8.33642 165.729C8.72723 166.562 10.1035 166.115 9.70704 165.272Z"
      fill="black"
    />
</g>
<g opacity="0.6">
<path
      d="M10.9579 164.83C11.1785 158.495 13.7574 147.616 22.2685 151.978C23.0986 152.403 23.7435 151.111 22.9144 150.686C13.2409 145.729 9.77829 157.412 9.51651 164.925C9.48353 165.854 10.9265 165.754 10.9579 164.83Z"
      fill="black"
    />
</g>
<g opacity="0.6">
<path
      d="M6.40635 165.494C3.06471 162.716 -0.610438 158.721 -5.33989 158.771C-9.16903 158.811 -12.2899 160.532 -13.1835 164.405C-13.3932 165.313 -11.9745 165.593 -11.7663 164.685C-10.867 160.784 -7.19721 159.801 -3.68479 160.428C-0.109833 161.066 2.76775 164.346 5.44055 166.568C6.15643 167.162 7.12326 166.088 6.40635 165.494Z"
      fill="black"
    />
</g>
<path
    d="M7.63042 164.829C5.20865 158.166 1.84372 152.031 -1.97084 146.071C-2.47435 145.284 -3.68209 146.077 -3.18065 146.86C0.565671 152.713 3.88045 158.74 6.26085 165.287C6.57831 166.161 7.94943 165.706 7.63042 164.829Z"
    fill="black"
  />
<path
    d="M7.69189 165.003C5.95696 157.626 8.76459 150.055 6.28851 142.753C5.98915 141.871 4.61904 142.327 4.91788 143.21C7.38103 150.473 4.58633 158.085 6.32126 165.46C6.53534 166.368 7.9039 165.903 7.69189 165.003Z"
    fill="black"
  />
<path
    d="M6.39681 161.344C4.55748 154.739 4.31199 147.4 -0.353279 141.979C-0.960152 141.272 -1.91719 142.357 -1.31911 143.053C3.11251 148.202 3.2815 155.531 5.0262 161.801C5.27699 162.701 6.64605 162.239 6.39681 161.344Z"
    fill="black"
  />
<path
    d="M-1.21934 140.508C-1.26224 140.519 -1.29325 140.539 -1.33356 140.553C-1.87625 140.543 -2.38479 140.803 -2.50929 141.468C-2.67253 142.35 -2.06414 143.113 -1.1886 143.235C-1.15707 143.239 -1.12917 143.235 -1.09764 143.237C-1.01753 143.252 -0.935354 143.269 -0.857828 143.269C-0.526534 143.268 -0.280528 143.127 -0.101202 142.921C0.264176 142.611 0.479143 142.119 0.456355 141.588C0.422169 140.757 -0.494746 140.33 -1.21934 140.508Z"
    fill="black"
  />
<path
    d="M6.35068 142.133C6.34034 142.12 6.33776 142.105 6.32639 142.091C5.44767 141.019 3.84912 141.542 3.84098 142.974C3.83843 143.357 4.05552 143.628 4.3491 143.767C4.453 143.929 4.58377 144.07 4.77139 144.15C5.78754 144.583 6.67954 143.801 6.64587 142.915C6.72182 142.613 6.61531 142.284 6.35068 142.133Z"
    fill="black"
  />
<path
    d="M12.1282 175.563C9.97036 173.821 6.03781 172.073 4.09545 170.505C-0.909868 166.111 -0.157011 162.086 5.84263 166.572C4.69505 161.371 8.21845 157.444 10.4877 163.906C12.7562 159.325 16.2667 158.95 16.2443 164.276C16.4055 167.612 13.181 172.492 12.1282 175.563Z"
    fill="black"
  />
<path
    d="M12.9419 174.906C11.5562 172.154 10.4858 169.249 9.33318 166.395C8.9857 165.534 7.61357 165.986 7.9626 166.852C9.16175 169.822 10.2901 172.831 11.7321 175.695C12.1514 176.529 13.3555 175.728 12.9419 174.906Z"
    fill="black"
  />
<path
    d="M13.4482 175.212C13.0048 172.198 13.7714 169.263 14.6424 166.396C14.9131 165.506 13.4937 165.233 13.2251 166.117C12.3195 169.097 11.5457 172.175 12.0072 175.305C12.1417 176.22 13.5848 176.135 13.4482 175.212Z"
    fill="black"
  />
<path
    d="M12.4312 174.806C10.2122 172.99 8.13534 171.009 5.91638 169.192C5.19688 168.603 4.23012 169.676 4.95065 170.266C7.16962 172.083 9.24649 174.064 11.4655 175.88C12.1839 176.47 13.1517 175.397 12.4312 174.806Z"
    fill="black"
  />
<path
    d="M11.6003 175.295C14.4778 182.071 13.8107 189.434 11.5274 196.28C11.2329 197.161 12.6533 197.432 12.9447 196.559C15.2988 189.502 15.9332 181.814 12.9709 174.838C12.6085 173.986 11.2363 174.436 11.6003 175.295Z"
    fill="black"
  />
<path
    d="M31.8553 204.599C38.0149 197.095 30.9227 189.498 26.2402 183.767C19.4227 190.762 22.9937 200.191 30.2988 204.797"
    fill="black"
  />
<path
    d="M31.0754 204.697C24.9792 197.171 15.3751 197.798 8.99625 205.133C16.2599 212.51 23.352 209.237 30.3473 205.185"
    fill="black"
  />
<path
    d="M30.6888 204.746C34.876 195.713 40.8718 191.591 51.4103 195.192C47.7116 204.954 38.2064 206.36 30.1297 205.014"
    fill="black"
  />
<path
    d="M30.4681 204.576C18.8484 206.449 17.3623 216.52 20.3751 226.217C30.0936 221.82 33.5305 214.662 30.7865 205.523"
    fill="black"
  />
<path
    d="M30.0075 205.621C36.9247 199.405 48.6359 216.891 51.4654 220.485C46.3168 223.512 39.1386 221.459 35.2625 217.406C31.6066 213.522 31.5503 209.972 30.517 204.964"
    fill="black"
  />
<g opacity="0.4">
<path
      d="M31.5339 203.135C30.0527 200.905 28.6878 198.594 27.7307 196.086C27.3997 195.218 26.0276 195.67 26.3601 196.543C27.3596 199.166 28.7742 201.594 30.3236 203.925C30.8401 204.701 32.0483 203.91 31.5339 203.135Z"
      fill="black"
    />
</g>
<g opacity="0.4">
<path
      d="M31.0408 203.361C31.1628 200.721 31.7391 197.851 30.7928 195.3C30.4691 194.428 29.0974 194.882 29.4222 195.757C30.3157 198.168 29.7136 200.957 29.5993 203.456C29.556 204.385 30.9986 204.283 31.0408 203.361Z"
      fill="black"
    />
</g>
<g opacity="0.4">
<path
      d="M31.5423 204.303C33.9857 202.506 36.1081 200.326 38.5097 198.476C39.2445 197.911 38.4577 196.698 37.7202 197.266C35.3192 199.115 33.1957 201.298 30.7528 203.093C30.0035 203.644 30.7908 204.855 31.5423 204.303Z"
      fill="black"
    />
</g>
<g opacity="0.4">
<path
      d="M31.753 204.15C34.5356 204.127 37.1139 202.94 39.8728 202.722C40.7995 202.649 40.7103 201.207 39.7779 201.281C37.0206 201.498 34.4336 202.685 31.6581 202.708C30.7268 202.715 30.8237 204.158 31.753 204.15Z"
      fill="black"
    />
</g>
<g opacity="0.4">
<path
      d="M30.1031 202.907C26.8724 202.976 23.6941 204.038 20.4658 203.377C19.5541 203.19 19.2721 204.607 20.1864 204.794C23.5538 205.484 26.8313 204.42 30.198 204.349C31.1288 204.33 31.0329 202.888 30.1031 202.907Z"
      fill="black"
    />
</g>
<g opacity="0.4">
<path
      d="M28.5556 203.623C26.5113 206.727 24.4643 209.83 22.6422 213.071C22.1854 213.884 23.4797 214.526 23.9344 213.717C25.7575 210.476 27.8034 207.373 29.8478 204.269C30.3604 203.491 29.0621 202.855 28.5556 203.623Z"
      fill="black"
    />
</g>
<g opacity="0.4">
<path
      d="M28.8829 203.757C27.8561 208.014 26.3036 212.131 26.127 216.548C26.09 217.478 27.5319 217.377 27.5685 216.453C27.7394 212.179 29.3069 208.154 30.3001 204.036C30.5191 203.13 29.1014 202.852 28.8829 203.757Z"
      fill="black"
    />
</g>
<g opacity="0.4">
<path
      d="M29.5462 204.773C33.0023 207.971 34.6446 212.448 37.2325 216.287C37.7542 217.061 38.9624 216.27 38.4423 215.498C35.7778 211.546 34.0725 206.993 30.5119 203.699C29.8265 203.064 28.8633 204.141 29.5462 204.773Z"
      fill="black"
    />
</g>
<g opacity="0.4">
<path
      d="M30.7137 204.624C34.0916 207.518 37.8725 209.865 41.4069 212.554C42.1445 213.115 43.1144 212.043 42.3727 211.48C38.8382 208.791 35.0574 206.444 31.6795 203.55C30.9714 202.943 30.0061 204.019 30.7137 204.624Z"
      fill="black"
    />
</g>
<path
    d="M31.3937 204.303C33.4084 199.742 36.0259 195.602 38.9741 191.589C39.5208 190.844 38.4509 189.872 37.9 190.623C34.8794 194.735 32.1685 198.979 30.1015 203.657C29.7274 204.506 31.0175 205.156 31.3937 204.303Z"
    fill="black"
  />
<path
    d="M31.4042 204.242C32.953 199.101 31.3315 193.577 33.3874 188.552C33.7382 187.695 32.4481 187.042 32.0952 187.906C29.9727 193.096 31.5772 198.685 29.987 203.963C29.7178 204.853 31.1376 205.127 31.4042 204.242Z"
    fill="black"
  />
<path
    d="M32.504 201.679C34.0278 197.228 34.5633 192.233 37.9142 188.678C38.555 187.998 37.4768 187.035 36.8401 187.712C33.2959 191.473 32.6989 196.691 31.0868 201.4C30.7851 202.277 32.2064 202.549 32.504 201.679Z"
    fill="black"
  />
<path
    d="M38.1935 189.86C38.7961 189.569 39.5823 190.108 39.8046 190.656C40.0532 191.268 39.6057 191.946 39.0062 192.109C38.8129 192.196 38.6067 192.244 38.4129 192.226C37.8661 192.177 37.5549 191.667 37.5192 191.163C37.4809 190.629 37.6989 190.097 38.1935 189.86Z"
    fill="black"
  />
<path
    d="M37.7464 186.775C37.7753 186.784 37.7975 186.799 37.8244 186.812C38.2152 186.829 38.5666 187.041 38.6246 187.522C38.7006 188.161 38.2288 188.678 37.5951 188.726C37.5713 188.727 37.5527 188.723 37.531 188.722C37.4721 188.729 37.4132 188.739 37.3574 188.734C37.1207 188.719 36.9501 188.605 36.8317 188.449C36.5841 188.21 36.4539 187.848 36.4936 187.469C36.5577 186.875 37.2347 186.614 37.7464 186.775Z"
    fill="black"
  />
<path
    d="M32.2456 187.584C32.2529 187.575 32.256 187.564 32.2642 187.555C32.9464 186.829 34.0659 187.277 34.0045 188.305C33.988 188.578 33.8211 188.762 33.6035 188.849C33.5208 188.96 33.4216 189.055 33.2826 189.103C32.5337 189.365 31.9331 188.763 31.9997 188.131C31.9568 187.912 32.0492 187.68 32.2456 187.584Z"
    fill="black"
  />
</svg>
