<svg width="128" height="193" viewBox="0 0 128 193" fill="none" xmlns="http://www.w3.org/2000/svg">
<path d="M90.9819 94.1088C84.448 95.8158 67.6781 102.473 70.965 112.144C73.9682 121.712 83.6513 110.457 85.9338 106.192C88.0258 102.539 89.5514 98.1709 91.3593 94.414" fill="black"/>
<path d="M90.5522 94.4154C83.216 97.2481 78.4428 104.106 73.7844 109.992C72.9626 111.03 74.5318 111.928 75.3521 110.89C79.5987 105.525 84.0798 98.8229 90.7916 96.2304C92.0089 95.7603 91.7818 93.9404 90.5522 94.4154Z" fill="black"/>
<path d="M138.975 168.333C131.091 162.062 122.246 157.385 114.489 150.916C106.408 144.175 102.017 134.928 99.6852 124.439C97.0251 112.476 95.706 101.243 87.5477 91.8521C78.879 81.8754 65.656 76.164 53.6693 72.7222C52.6367 72.426 53.0596 70.7083 54.0893 71.0035C72.7119 76.3485 92.1987 87.0068 97.9883 108.183C101.562 121.253 101.989 133.952 110.747 144.758C118.518 154.346 130.413 159.325 139.794 166.788C140.641 167.462 139.831 169.012 138.975 168.333Z" fill="black"/>
<path d="M84.0265 100.746C83.9814 102.601 83.9364 104.455 83.8913 106.31C83.8779 106.859 83.084 106.858 83.0982 106.307C83.1433 104.453 83.1884 102.598 83.2335 100.743C83.2468 100.194 84.0405 100.194 84.0265 100.746Z" fill="black"/>
<path d="M80.0784 104.108C80.0659 105.447 80.0916 106.784 80.2345 108.114C80.2943 108.659 79.4999 108.651 79.4415 108.111C79.2969 106.781 79.2725 105.443 79.2854 104.106C79.29 103.555 80.084 103.556 80.0784 104.108Z" fill="black"/>
<path d="M77.4431 107.94C77.6432 108.796 77.7233 109.665 77.7448 110.548C77.7591 111.097 76.9644 111.094 76.9517 110.545C76.9313 109.738 76.8605 108.948 76.6775 108.165C76.5535 107.631 77.3191 107.406 77.4431 107.94Z" fill="black"/>
<path d="M76.2369 102.502C77.4747 102.35 78.7203 102.359 79.9644 102.334C80.4758 102.324 80.4736 103.177 79.9619 103.187C78.7182 103.213 77.4722 103.202 76.2344 103.354C75.7266 103.417 75.7329 102.564 76.2369 102.502Z" fill="black"/>
<path d="M74.7253 108.774C74.2367 108.646 73.847 108.626 73.3642 108.82C72.7876 109.05 72.3603 108.145 72.9432 107.911C73.67 107.622 74.2848 107.613 75.0305 107.807C75.6312 107.964 75.3211 108.929 74.7253 108.774Z" fill="black"/>
<path d="M62.1775 65.918C60.1311 73.3952 55.2448 81.8884 48.5508 85.2358C36.91 91.2679 26.4541 87.7285 15.4233 82.7957C25.9826 69.6063 45.4228 62.5365 60.8774 66.5355" fill="black"/>
<path d="M61.9782 66.1792C57.848 70.4764 52.3036 76.6147 50.0874 82.1709C46.4226 91.7511 52.0027 106.447 57.6383 114.111C66.8572 101.056 78.5148 77.3349 62.1806 65.9172" fill="black"/>
<path d="M61.1706 67.2339C64.2005 73.4675 69.623 78.7304 76.3352 80.711C86.7055 83.2884 97.8067 73.6769 106.893 69.3586C97.42 56.5132 71.5792 57.4501 60.8837 66.5368" fill="black"/>
<path d="M61.1252 66.755C56.3799 69.1766 47.381 64.2798 43.3073 61.5443C37.5217 57.2879 30.7718 44.6501 28.3501 37.628C43.8097 31.4482 67.8047 47.9017 60.9229 67.017" fill="black"/>
<path d="M60.4347 66.584C66.9878 69.3082 76.9681 64.8983 81.7038 59.8133C84.9822 56.0875 86.7935 51.0574 89.5826 46.8965C92.1692 42.9995 95.6923 39.4903 98.2799 35.5924C87.2164 32.8428 77.3857 33.8455 68.6376 42.0047C60.5381 49.8554 60.9286 56.8426 59.8283 67.3729" fill="black"/>
<g opacity="0.4">
<path d="M58.4215 68.0399C53.6963 59.1867 45.1408 53.9888 37.9386 47.7469C37.111 47.0305 38.0657 45.5783 38.8958 46.298C46.371 52.7757 55.0334 58.1367 59.9342 67.3223C60.4641 68.3145 58.9475 69.0246 58.4215 68.0399Z" fill="black"/>
</g>
<g opacity="0.4">
<path d="M58.5829 67.2964C55.5735 59.465 51.6135 52.1537 48.0167 44.6302C47.5297 43.6113 49.043 42.8967 49.5293 43.9125C53.1262 51.436 57.0872 58.7464 60.0955 66.5787C60.5011 67.6342 58.9897 68.3581 58.5829 67.2964Z" fill="black"/>
</g>
<g opacity="0.4">
<path d="M59.2486 66.3413C69.2181 62.2136 76.5518 53.964 84.3468 46.4476C85.141 45.6812 86.1836 47.0605 85.3924 47.8242C77.4775 55.4569 70.0248 63.7815 59.9164 67.9668C58.9262 68.3785 58.2507 66.7542 59.2486 66.3413Z" fill="black"/>
</g>
<g opacity="0.4">
<path d="M59.7175 65.5891C66.449 57.2638 72.6848 48.5311 80.265 41.0489C81.0517 40.2725 82.0923 41.6537 81.3107 42.4255C73.8413 49.7996 67.6992 58.4152 61.0658 66.6177C60.3728 67.4769 59.0184 66.4537 59.7175 65.5891Z" fill="black"/>
</g>
<g opacity="0.4">
<path d="M62.424 67.6449C70.9039 74.3666 81.7368 76.1231 91.869 73.3909C92.9032 73.1112 93.1522 74.8691 92.1248 75.1465C81.6018 77.9848 70.2588 76.0648 61.4648 69.0938C60.6076 68.4126 61.5658 66.9646 62.424 67.6449Z" fill="black"/>
</g>
<g opacity="0.4">
<path d="M61.5813 67.5307C69.8622 69.4778 78.1268 69.3326 86.3607 67.1683C87.397 66.8959 87.647 68.6529 86.6165 68.9239C78.2504 71.1233 69.8326 71.2781 61.4147 69.2989C60.3836 69.0566 60.5401 67.2862 61.5813 67.5307Z" fill="black"/>
</g>
<g opacity="0.4">
<path d="M61.3204 69.4979C54.9519 77.1895 52.9848 88.1691 55.0228 98.0902C55.253 99.2095 53.6188 99.4816 53.3892 98.3655C51.2691 88.0484 53.3473 76.4687 59.9715 68.4684C60.6745 67.6222 62.029 68.6433 61.3204 69.4979Z" fill="black"/>
</g>
<g opacity="0.4">
<path d="M61.5963 70.5146C61.0969 75.9348 60.943 81.4096 59.5725 86.6857C59.2848 87.7932 57.7388 87.1585 58.0233 86.0648C59.3529 80.9439 59.4656 75.597 59.9518 70.337C60.0557 69.1944 61.7011 69.3731 61.5963 70.5146Z" fill="black"/>
</g>
<g opacity="0.4">
<path d="M62.0951 68.7984C64.9834 75.7739 65.5844 83.3062 64.5126 90.8105C64.3516 91.9408 62.7057 91.7661 62.8671 90.6318C63.8969 83.4139 63.3619 76.2293 60.5815 69.5151C60.1487 68.4708 61.6608 67.7499 62.0951 68.7984Z" fill="black"/>
</g>
<g opacity="0.4">
<path d="M58.0834 69.8787C52.6153 69.9891 47.1788 70.7122 41.7108 70.8225C40.6445 70.8442 40.8243 69.0753 41.8774 69.0543C47.3454 68.9439 52.7819 68.2208 58.25 68.1104C59.3144 68.0886 59.1364 69.8577 58.0834 69.8787Z" fill="black"/>
</g>
<g opacity="0.4">
<path d="M59.1916 69.977C53.382 72.3194 47.881 75.437 42.0714 77.7794C41.0784 78.1808 40.4022 76.5573 41.4038 76.1539C47.2134 73.8115 52.7144 70.6938 58.524 68.3514C59.5178 67.9512 60.1922 69.5744 59.1916 69.977Z" fill="black"/>
</g>
<g opacity="0.4">
<path d="M60.0293 69.5473C55.5896 74.1408 51.0041 78.5466 45.8114 82.1398C44.9263 82.7528 43.8706 81.3832 44.7657 80.7632C49.9594 77.1691 54.5458 72.7643 58.9836 68.1707C59.7524 67.3752 60.7927 68.7584 60.0293 69.5473Z" fill="black"/>
</g>
<path d="M61.76 62.0809C61.5486 53.4286 62.5141 44.9852 64.0312 36.5015C64.2309 35.3871 65.8792 35.5298 65.6788 36.6542C64.1616 45.1378 63.1961 53.5812 63.4076 62.2335C63.4352 63.379 61.7873 63.2135 61.76 62.0809Z" fill="black"/>
<path d="M61.7782 62.546C60.4904 53.3247 54.3352 45.9326 53.8659 36.4732C53.8105 35.3437 55.436 35.0106 55.492 36.1501C55.9599 45.5766 62.1173 53.0074 63.4042 62.2229C63.563 63.3548 61.9369 63.6794 61.7782 62.546Z" fill="black"/>
<path d="M61.6087 57.7747C60.7143 49.3431 58.0382 40.9248 60.5588 32.5455C60.8867 31.4544 62.4369 32.0746 62.1093 33.1629C59.7004 41.1758 62.3815 49.3991 63.2346 57.4517C63.3561 58.5859 61.7298 58.9132 61.6087 57.7747Z" fill="black"/>
<path d="M63.6498 34.8295C64.3201 33.9384 65.8213 34.1945 66.5153 34.8781C67.2906 35.6419 67.1111 37.0179 66.3598 37.7103C66.1397 37.9881 65.8746 38.2133 65.5839 38.329C64.7651 38.6541 63.9667 38.095 63.5693 37.3391C63.1523 36.5456 63.0997 35.5619 63.6498 34.8295Z" fill="black"/>
<path d="M60.8953 30.385C60.9451 30.3768 60.9882 30.3865 61.0362 30.3838C61.6095 30.123 62.2599 30.1918 62.6722 30.8949C63.22 31.8289 62.8929 32.9772 62.0145 33.5151C61.9811 33.5349 61.95 33.542 61.9181 33.559C61.8379 33.6144 61.7591 33.6698 61.6766 33.705C61.3234 33.8549 61.002 33.8052 60.7249 33.6511C60.2063 33.4618 59.7709 32.9976 59.5692 32.3825C59.2527 31.4129 60.0487 30.5106 60.8953 30.385Z" fill="black"/>
<path d="M53.5286 35.6797C53.5328 35.6601 53.529 35.6412 53.536 35.6205C54.0169 33.9955 55.9393 33.8669 56.553 35.5019C56.7172 35.938 56.6021 36.3468 56.3477 36.6386C56.3051 36.8715 56.2249 37.0924 56.0595 37.2683C55.1608 38.2252 53.8816 37.7343 53.5431 36.707C53.3355 36.3981 53.31 35.9719 53.5286 35.6797Z" fill="black"/>
</svg>
