<svg width="123" height="148" viewBox="0 0 123 148" fill="none" xmlns="http://www.w3.org/2000/svg">
<path d="M97.0628 79.7665C83.0588 77.1358 69.7075 56.5368 54.4746 65.3136C45.9622 70.2183 45.2584 81.6574 46.0312 90.29C47.2106 103.451 49.8879 115.168 42.2702 127.113C41.8422 127.783 42.7942 128.597 43.2255 127.919C47.9037 120.583 49.4196 112.84 48.985 104.221C48.3897 92.409 43.6075 79.5298 51.8666 69.1865C64.1293 53.8276 83.8852 78.5629 96.8594 81.0007C97.6512 81.1488 97.8555 79.915 97.0628 79.7665Z" fill="black"/>
<path d="M73.9124 68.5498C72.1667 66.3697 70.217 63.6363 69.9249 60.2907C69.2817 51.7399 80.0982 46.1797 87.4879 50.0445C97.9036 55.3044 100.796 87.8216 114.291 84.4132C108.301 89.4469 102.862 88.3158 96.6363 85.9036C88.52 82.6211 85.0891 86.0838 76.5094 85.7963C70.5464 85.7991 60.3644 82.0223 59.9538 74.9541C59.7474 68.4392 68.5893 65.1774 73.535 68.3747" fill="black"/>
<path d="M72.901 68.317C69.0627 69.1021 66.7358 72.7115 65.775 76.2789C65.6736 76.6517 66.2672 76.747 66.3664 76.3765C67.2501 73.0983 69.4117 69.6396 72.9579 68.9147C73.3336 68.8379 73.2811 68.24 72.901 68.317Z" fill="black"/>
<path d="M73.9844 68.0016C71.7311 73.1689 71.9628 78.4919 74.9336 83.3146C75.1369 83.6451 75.627 83.2985 75.426 82.9702C72.5661 78.3273 72.3643 73.2164 74.5297 68.2519C74.6841 67.898 74.1396 67.6459 73.9844 68.0016Z" fill="black"/>
<path d="M74.4034 68.3423C76.9755 71.9947 80.195 75.0216 83.539 77.9551C83.8308 78.2107 84.2167 77.7511 83.9263 77.4972C80.6232 74.5991 77.4362 71.6069 74.8945 67.9983C74.6728 67.6814 74.1813 68.0263 74.4034 68.3423Z" fill="black"/>
<path d="M74.7946 68.1549C80.1539 69.9991 84.7896 71.1936 89.2472 74.9719C93.2598 78.3733 96.7344 81.8714 101.743 83.7445C102.104 83.8798 102.357 83.3358 101.995 83.1996C96.5522 81.163 92.6759 77.0911 88.3374 73.4128C84.3644 70.0451 79.8373 69.2574 75.0458 67.61C74.683 67.4846 74.4287 68.0292 74.7946 68.1549Z" fill="black"/>
<path d="M75.4201 67.787C77.447 65.8221 80.6988 65.5759 83.3638 65.2409C86.4683 64.8508 89.6613 65.5729 92.6553 66.3277C93.0301 66.4224 93.1259 65.8301 92.752 65.7359C87.6192 64.4421 79.2529 63.24 74.9618 67.4006C74.6835 67.6698 75.1453 68.0534 75.4201 67.787Z" fill="black"/>
<path d="M74.7127 67.7571C73.4953 61.6174 77.1011 57.0086 81.4415 53.1614C81.7283 52.9071 81.3865 52.4137 81.097 52.669C76.5643 56.6874 72.8545 61.4596 74.1145 67.8149C74.19 68.1911 74.7883 68.1377 74.7127 67.7571Z" fill="black"/>
<path d="M74.8418 72.1133C74.3135 73.7967 75.5908 75.2775 76.2579 76.7159C76.4197 77.0647 76.9842 76.8603 76.8205 76.5084C76.2557 75.29 74.9388 73.7921 75.3867 72.3645C75.5009 71.9998 74.9577 71.7449 74.8418 72.1133Z" fill="black"/>
<path d="M70.5555 72.7524C69.6258 74.5779 69.5237 76.9347 70.1738 78.8662C70.2973 79.2337 70.8593 79.0248 70.7363 78.6587C70.1352 76.8719 70.2424 74.6903 71.1003 73.0036C71.2764 72.6575 70.7307 72.4082 70.5555 72.7524Z" fill="black"/>
<path d="M77.7078 78.3479C78.1272 79.2295 78.5489 80.111 79.0541 80.9473C79.2548 81.2788 79.745 80.9322 79.5466 80.6029C79.0678 79.8095 78.6682 78.9756 78.2717 78.1399C78.1054 77.7934 77.541 77.9979 77.7078 78.3479Z" fill="black"/>
<path d="M83.3808 74.5457C84.9342 76.2925 86.6176 77.8911 87.4945 80.1068C87.6361 80.4661 88.1995 80.259 88.057 79.8993C87.1597 77.6323 85.4624 75.9899 83.872 74.2017C83.6195 73.9158 83.1252 74.2572 83.3808 74.5457Z" fill="black"/>
<path d="M79.4189 68.0393C83.2492 67.637 86.9356 68.0889 90.2919 70.0689C90.6253 70.2655 90.8728 69.719 90.5431 69.5241C87.102 67.4939 83.2872 67.029 79.3619 67.4415C78.9766 67.4819 79.0336 68.0797 79.4189 68.0393Z" fill="black"/>
<path d="M84.9193 62.3351C86.0155 61.6006 87.4873 61.8453 88.7316 61.8716C89.1179 61.8791 89.0561 61.2824 88.6737 61.2734C87.2983 61.245 85.7828 61.033 84.5767 61.8435C84.2546 62.0596 84.5986 62.5507 84.9193 62.3351Z" fill="black"/>
<path d="M79.9199 56.118C79.2636 56.6556 78.6878 57.2524 78.3099 58.0196C78.1388 58.3669 78.6841 58.6172 78.8548 58.2708C79.1852 57.5995 79.6891 57.0797 80.2639 56.6091C80.5618 56.3666 80.2196 55.874 79.9199 56.118Z" fill="black"/>
<path d="M75.0734 53.1954C73.2609 54.4399 72.3965 56.9693 71.9399 59.025C71.8561 59.4026 72.448 59.4993 72.5314 59.1226C72.9504 57.2391 73.7546 54.8283 75.417 53.6874C75.7371 53.4684 75.3922 52.9768 75.0734 53.1954Z" fill="black"/>
<path d="M97.3224 72.525C98.0418 74.951 99.2196 77.4816 101.411 78.8994C101.733 79.1071 102.122 78.6514 101.799 78.4415C99.6832 77.0731 98.5789 74.6579 97.885 72.3175C97.7748 71.9451 97.2132 72.1553 97.3224 72.525Z" fill="black"/>
<path d="M103.525 85.2541C104.613 85.7382 105.804 86.0392 106.997 85.8461C107.377 85.7844 107.323 85.187 106.939 85.2479C105.845 85.4249 104.774 85.1527 103.775 84.7088C103.423 84.5517 103.171 85.0966 103.525 85.2541Z" fill="black"/>
<path d="M38.3998 69.7588C34.4114 63.9965 25.9694 53.271 22.5109 47.1035C25.1746 46.7442 27.8997 45.9188 30.6256 45.0927C27.6034 42.7876 25.1434 43.4116 24.1766 39.9536C22.8837 37.1655 24.222 30.6853 24.3938 27.618C27.259 27.5238 30.3901 27.2275 33.1152 26.4021C30.9665 24.6892 28.2244 23.8481 25.483 23.0078C27.4762 15.1882 34.5143 5.18788 40.1989 -1.604e-07C43.6574 6.16751 46.0572 13.1449 49.2505 19.5153C46.8677 21.338 44.4849 23.1606 42.102 24.9833C44.1114 25.9643 46.7121 26.0725 48.8467 26.1193C49.1429 29.2504 49.5334 35.2468 48.6925 37.9875C47.4618 41.8661 45.4524 40.8851 41.6061 42.9886C44.0208 44.4994 47.0889 44.6705 49.6281 45.2463C47.823 51.6643 42.6201 64.8524 38.3998 69.7588Z" fill="black"/>
<path d="M37.6037 9.4044C36.7226 23.7524 36.6222 38.0874 36.8903 52.4565C37.1309 65.361 38.8873 78.5073 45.2697 89.9194C45.6587 90.6139 46.821 90.1517 46.4285 89.451C40.0626 78.0704 38.4825 65.143 38.1307 52.3021C37.7407 38.0552 37.9688 23.795 38.8421 9.57008C38.8919 8.76777 37.6527 8.5977 37.6037 9.4044Z" fill="black"/>
<path d="M37.1977 58.9519C35.0707 56.1711 32.934 53.399 30.6858 50.7134C30.4384 50.4179 29.9606 50.7808 30.2092 51.0779C32.4574 53.7635 34.5934 56.5362 36.7212 59.3164C36.9563 59.6238 37.4329 59.2592 37.1977 58.9519Z" fill="black"/>
<path d="M38.1098 53.7546C40.79 53.1322 43.0768 51.2646 45.2158 49.6285C45.5238 49.3942 45.1587 48.9168 44.8513 49.1519C42.8022 50.718 40.599 52.5631 38.0337 53.1581C37.6612 53.2454 37.7322 53.842 38.1098 53.7546Z" fill="black"/>
<path d="M37.9896 50.3302C39.0069 49.5533 40.0232 48.7734 41.1356 48.1341C41.4701 47.9411 41.1016 47.4676 40.771 47.6575C39.6592 48.2977 38.6424 49.0767 37.6257 49.8544C37.3177 50.0887 37.6822 50.5653 37.9896 50.3302Z" fill="black"/>
<path d="M37.1106 46.2183C34.7985 43.7289 32.6106 41.1369 30.5365 38.4466C30.3005 38.1399 29.8232 38.505 30.0599 38.8112C32.1341 41.5014 34.3211 44.094 36.634 46.5828C36.8947 46.8644 37.3745 46.5024 37.1106 46.2183Z" fill="black"/>
<path d="M38.0187 39.3962C40.4547 37.5493 42.9659 35.8072 45.4013 33.9594C45.7093 33.7251 45.3454 33.2493 45.0368 33.4829C42.6013 35.3306 40.0895 37.0719 37.6541 38.9196C37.3461 39.154 37.7107 39.6305 38.0187 39.3962Z" fill="black"/>
<path d="M37.4179 35.3913C35.3061 33.4336 33.5575 31.1477 31.8124 28.8679C31.5773 28.5605 31.1008 28.925 31.3359 29.2324C33.1144 31.5559 34.9034 33.875 37.0554 35.8688C37.3385 36.1319 37.6992 35.652 37.4179 35.3913Z" fill="black"/>
<path d="M37.7609 30.1382C39.9742 29.562 41.9332 28.2058 43.7342 26.8421C44.0428 26.6086 43.6783 26.132 43.3697 26.3655C41.6028 27.7031 39.7052 29.0162 37.5369 29.5819C37.163 29.6791 37.3922 30.2339 37.7609 30.1382Z" fill="black"/>
<path d="M37.8473 21.9441C36.0036 19.5156 34.2313 17.0603 31.9248 15.0424C31.6342 14.7876 31.2729 15.2666 31.5624 15.5199C33.8305 17.5041 35.5592 19.9222 37.3701 22.3078C37.6043 22.6172 38.0816 22.2521 37.8473 21.9441Z" fill="black"/>
<path d="M38.4448 17.4582C40.4999 16.2539 42.2654 14.6151 44.4724 13.6735C44.8294 13.5213 44.6031 12.9654 44.2483 13.1172C41.9892 14.0811 40.1819 15.7493 38.0809 16.9824C37.7467 17.1776 38.1152 17.6511 38.4448 17.4582Z" fill="black"/>
<path d="M40.7106 13.8366C41.2848 13.3973 41.8575 12.9593 42.4318 12.52C42.7391 12.2849 42.3746 11.8083 42.0672 12.0434C41.493 12.4827 40.9203 12.9207 40.346 13.36C40.0386 13.5951 40.4032 14.0717 40.7106 13.8366Z" fill="black"/>
<path d="M33.3187 13.9762C33.7879 14.8348 34.3544 15.6215 34.948 16.3975C35.1831 16.7049 35.6596 16.3403 35.4245 16.0329C34.865 15.3014 34.3179 14.5616 33.8744 13.7513C33.6917 13.4152 33.1333 13.6383 33.3187 13.9762Z" fill="black"/>
<path d="M30.9224 20.737C31.929 21.7863 32.9462 22.8249 33.952 23.8748C34.2163 24.1511 34.6961 23.7892 34.4286 23.5103C33.4228 22.4604 32.4055 21.4218 31.399 20.3725C31.1347 20.0961 30.6543 20.4573 30.9224 20.737Z" fill="black"/>
<path d="M42.8323 20.5936C43.5907 19.8058 44.4765 19.1697 45.4228 18.6259C45.758 18.4337 45.3889 17.9594 45.0583 18.1494C44.0603 18.7226 43.1524 19.4007 42.3541 20.2317C42.0867 20.5092 42.5665 20.8699 42.8323 20.5936Z" fill="black"/>
<path d="M40.4252 32.9399C41.7112 31.9713 43.0803 31.1243 44.5989 30.5733C44.9639 30.4414 44.7362 29.8854 44.3749 30.017C42.8074 30.5865 41.3878 31.4645 40.0612 32.4641C39.7514 32.6961 40.116 33.1727 40.4252 32.9399Z" fill="black"/>
<path d="M43.0117 38.9221C43.7933 38.5383 44.5687 38.1479 45.27 37.6278C45.581 37.3975 45.2165 36.9209 44.9054 37.1513C44.2462 37.6391 43.5213 38.0048 42.7877 38.3658C42.4413 38.5351 42.6645 39.092 43.0117 38.9221Z" fill="black"/>
<path d="M30.3473 33.9758C31.2029 35.1142 31.9682 36.3154 33.0684 37.2402C33.3647 37.4894 33.7266 37.0112 33.4309 36.7627C32.3744 35.8737 31.6463 34.7046 30.8239 33.6113C30.5912 33.3021 30.1146 33.6666 30.3473 33.9758Z" fill="black"/>
<path d="M26.4095 34.5706C27.1168 35.2483 27.7131 36.0197 28.3075 36.7951C28.5426 37.1025 29.0192 36.738 28.784 36.4306C28.1564 35.6101 27.5184 34.8089 26.7714 34.0923C26.4939 33.8249 26.1324 34.3054 26.4095 34.5706Z" fill="black"/>
<path d="M27.7067 29.7007C28.2425 30.4012 28.7931 31.0666 29.5482 31.5403C29.8727 31.744 30.2392 31.2685 29.9107 31.0628C29.1998 30.6157 28.6889 29.9956 28.1838 29.3369C27.9481 29.0287 27.4715 29.3933 27.7067 29.7007Z" fill="black"/>
<path d="M32.9505 28.3083C33.5303 28.7701 34.1057 29.2376 34.6642 29.7258C34.9548 29.9806 35.3169 29.501 35.0267 29.2483C34.4682 28.7602 33.8942 28.2928 33.3136 27.8317C33.0099 27.5893 32.6466 28.0674 32.9505 28.3083Z" fill="black"/>
<path d="M31.5983 47.388C32.9334 48.4076 33.8434 49.775 34.8432 51.1002C35.0759 51.4094 35.5533 51.0443 35.3197 50.7357C34.2871 49.3676 33.3374 47.9613 31.9602 46.9097C31.6531 46.6762 31.2898 47.1543 31.5983 47.388Z" fill="black"/>
<path d="M29.478 54.7848C30.1718 55.6919 30.8676 56.5949 31.6929 57.3875C31.9719 57.6551 32.3319 57.1745 32.0554 56.9101C31.2706 56.1557 30.6137 55.2821 29.9545 54.4203C29.7194 54.1129 29.2429 54.4774 29.478 54.7848Z" fill="black"/>
<path d="M40.4901 57.4408C41.5871 56.6168 42.7316 55.8811 43.6232 54.8214C43.8716 54.5257 43.3933 54.1638 43.1449 54.4595C42.2897 55.4763 41.1781 56.1742 40.1262 56.965C39.8163 57.197 40.1809 57.6736 40.4901 57.4408Z" fill="black"/>
<path d="M43.5259 47.1442C43.9675 46.8064 44.4083 46.4692 44.8499 46.1314C45.1573 45.8963 44.7928 45.4197 44.4854 45.6548C44.0438 45.9926 43.6029 46.3298 43.1613 46.6676C42.8545 46.9035 43.2185 47.3793 43.5259 47.1442Z" fill="black"/>
</svg>
