<svg width="160" height="186" viewBox="0 0 160 186" fill="none" xmlns="http://www.w3.org/2000/svg">
<path d="M93.3254 42.4518C88.8136 28.6787 79.3769 5.61065 60.592 11.6508C53.4051 14.2397 33.0362 26.721 31.2469 35.4008C29.5534 45.9867 40.6587 39.0639 46.0684 39.1075C49.8772 38.9142 63.6986 41.7181 61.782 47.8582C59.8647 53.9998 36.1557 50.7433 30.0019 54.8694C19.8332 61.429 21.4098 73.7566 25.7308 83.72C26.8581 87.1625 30.5115 96.5244 34.3204 96.3311C37.7942 95.8375 43.2643 84.4263 45.3733 82.0927C48.3874 78.7581 56.6203 71.6614 61.5879 75.5484C66.2237 79.1326 59.5627 85.8315 56.1838 88.2287C50.394 93.2937 39.4297 96.7096 38.6099 105.661C38.3917 113.944 49.9639 122.587 55.5975 127.075C58.8161 121.503 59.7019 113.821 64.2218 108.824C67.5057 104.523 73.1223 102.329 73.173 109.644C73.1287 115.055 67.2423 118.216 67.1963 123.626C66.5489 129.704 71.7549 131.987 76.96 134.267C83.5002 137.755 102.814 148.554 106.508 139.777C108.522 135.54 106.072 124.845 106.785 120.038C107.465 114.594 109.652 107.484 106.857 102.533C104.459 99.1545 75.5759 94.2488 89.9505 89.0695C95.9005 87.1787 118.55 100.99 115.05 82.0759C112.903 71.0496 88.8038 78.9458 84.2131 69.9528C79.624 60.9565 98.3831 67.0104 101.287 67.8181C107.46 70.3692 112.699 73.2866 117.854 68.2545C123.913 62.2208 120.291 53.4967 114.322 48.7086C108.02 43.617 101.038 43.9689 94.0244 43.687" fill="black"/>
<path d="M98.1984 128.369C85.844 105.148 60.8305 80.609 80.5427 54.0301C87.2196 45.0266 98.3943 39.3784 109.576 41.9297C126.593 45.8112 127.379 64.3203 127.94 78.3225C128.672 96.5987 140.468 109.3 151.725 122.881C163.282 136.823 175.445 150.487 188.363 163.191C189.399 164.21 190.857 162.501 189.831 161.49C173.587 145.515 158.32 128.177 144.388 110.164C137.913 101.79 131.535 93.5823 130.46 82.7907C129.221 70.3308 131.204 57.0769 122.156 47.1075C107.309 30.753 85.0163 41.7338 75.465 57.6165C59.9345 83.443 84.9246 108.173 96.342 129.639C97.0225 130.917 98.8714 129.634 98.1984 128.369Z" fill="black"/>
<path d="M99.4941 115.479C95.1904 113.475 91.0186 111.122 86.3582 110.045C85.6804 109.889 85.4945 110.951 86.1707 111.107C90.7325 112.16 94.8211 114.492 99.0323 116.451C99.6622 116.747 100.125 115.772 99.4941 115.479Z" fill="black"/>
<path d="M73.8437 121.981C75.5615 115.873 78.5468 110.303 81.1855 104.565C81.4774 103.934 80.5031 103.471 80.2113 104.103C77.5286 109.929 74.5234 115.591 72.7802 121.794C72.5928 122.465 73.657 122.646 73.8437 121.981Z" fill="black"/>
<path d="M58.8435 103.832C64.8216 98.9361 68.0217 91.6684 73.6652 86.4503C74.1774 85.9792 73.3543 85.2779 72.85 85.7449C67.2752 90.898 64.1358 98.109 58.2344 102.94C57.7006 103.377 58.3049 104.271 58.8435 103.832Z" fill="black"/>
<path d="M96.188 84.6247C87.7932 81.1122 80.628 75.4793 72.7532 71.0139C72.1481 70.6708 71.6903 71.6473 72.2907 71.9881C80.1654 76.4535 87.3306 82.0864 95.7254 85.599C96.3645 85.8666 96.8287 84.8931 96.188 84.6247Z" fill="black"/>
<path d="M43.6705 73.6309C47.6761 71.6864 51.3448 69.19 55.181 66.9443C61.3509 63.3333 67.7355 63.0418 74.608 62.0707C75.2926 61.9739 75.2064 60.8982 74.5153 60.9959C69.0796 61.7658 63.784 61.9137 58.6355 63.994C53.199 66.1902 48.5733 70.0609 43.3089 72.6155C42.6903 72.9168 43.0464 73.9354 43.6705 73.6309Z" fill="black"/>
<path d="M55.6185 28.9727C65.7688 30.2424 81.1356 36.568 84.4738 47.5074C84.6771 48.173 85.6916 47.809 85.4892 47.1458C82.0357 35.8332 66.3996 29.2366 55.8059 27.9116C55.1191 27.8242 54.9269 28.8871 55.6185 28.9727Z" fill="black"/>
<path d="M81.2941 52.6656C91.6172 50.5332 99.7474 55.2652 106.693 62.5307C107.173 63.0355 107.872 62.2133 107.396 61.7148C100.219 54.2055 91.8008 49.4006 81.2007 51.5925C80.5289 51.7292 80.6119 52.8074 81.2941 52.6656Z" fill="black"/>
<path d="M97.362 49.1379C100.93 50.207 103.72 52.2921 106.46 54.7473C106.98 55.2127 107.681 54.3936 107.164 53.9313C104.257 51.3252 101.326 49.2092 97.5494 48.0769C96.8844 47.8765 96.7018 48.9399 97.362 49.1379Z" fill="black"/>
<path d="M82.5116 57.5238C85.3688 58.1025 88.1766 58.5005 90.7703 59.9191C91.3818 60.2532 91.8403 59.279 91.2329 58.9448C88.5554 57.4764 85.6548 57.0603 82.6998 56.4611C82.0192 56.3229 81.8309 57.3857 82.5116 57.5238Z" fill="black"/>
<path d="M90.4719 48.9983C91.698 48.6791 92.9406 49.092 94.0663 49.5708C94.7038 49.8417 95.1696 48.869 94.5289 48.5966C93.112 47.9935 91.6379 47.5861 90.1103 47.983C89.4344 48.1575 89.804 49.1727 90.4719 48.9983Z" fill="black"/>
<path d="M86.8503 37.407C80.8443 28.5617 73.8046 22.2999 63.4742 19.0921C62.8115 18.8869 62.6305 19.9511 63.2867 20.1533C73.3267 23.2729 80.1312 29.4349 85.9597 38.0129C86.3518 38.591 87.2423 37.9812 86.8503 37.407Z" fill="black"/>
<path d="M63.2548 25.3535C65.4041 26.6268 67.7958 27.4023 69.946 28.674C70.5441 29.0277 71.0026 28.0495 70.4086 27.6997C68.2584 26.4281 65.8684 25.6533 63.7174 24.3793C63.1185 24.0272 62.6615 25.0022 63.2548 25.3535Z" fill="black"/>
<path d="M60.3433 37.4822C66.0525 39.2499 71.617 41.9637 75.1179 46.9909C75.5171 47.5625 76.4069 46.9542 76.0093 46.3834C72.332 41.1033 66.5328 38.2761 60.5315 36.4194C59.868 36.2158 59.6871 37.2801 60.3433 37.4822Z" fill="black"/>
<path d="M64.6498 57.0058C66.3968 56.9181 68.1436 56.8184 69.8787 56.5838C70.5651 56.4919 70.4781 55.4178 69.7861 55.5091C68.0509 55.7437 66.3049 55.8418 64.5572 55.9311C63.8616 55.967 63.955 57.04 64.6498 57.0058Z" fill="black"/>
<path d="M42.6427 62.25C47.1809 61.3167 51.4877 59.601 55.946 58.375C56.6185 58.1909 56.2513 57.1748 55.5845 57.3596C51.2173 58.5612 46.9938 60.2608 42.5501 61.1753C41.8791 61.3144 41.9606 62.3918 42.6427 62.25Z" fill="black"/>
<path d="M60.8952 71.3288C62.4958 70.9249 64.0807 70.4956 65.5914 69.8201C66.2225 69.5387 65.8664 68.5201 65.2298 68.8047C63.7191 69.4802 62.135 69.9079 60.5351 70.3142C59.8584 70.4864 60.2272 71.4992 60.8952 71.3288Z" fill="black"/>
<path d="M50.7991 103.035C54.1106 97.9635 58.0073 92.9626 62.8833 89.3104C63.4393 88.8939 62.8325 88.0008 62.2758 88.419C57.3142 92.1341 53.3507 97.1708 49.9839 102.33C49.6073 102.905 50.4202 103.615 50.7991 103.035Z" fill="black"/>
<path d="M66.818 102.067C68.4585 100.184 69.624 97.9969 70.8861 95.8582C71.2405 95.2584 70.2632 94.8023 69.9119 95.3956C68.6987 97.4521 67.5788 99.5509 66.0028 101.362C65.544 101.888 66.3616 102.592 66.818 102.067Z" fill="black"/>
<path d="M51.9934 114.111C52.9214 112.739 53.8739 111.382 54.9742 110.142C55.4371 109.619 54.6181 108.918 54.1591 109.436C53.058 110.678 52.1046 112.032 51.1783 113.405C50.7935 113.977 51.6055 114.685 51.9934 114.111Z" fill="black"/>
<path d="M82.6481 100.735C88.2558 103.794 94.3697 105.732 100.067 108.606C100.688 108.921 101.149 107.944 100.53 107.632C94.8331 104.756 88.7184 102.819 83.1107 99.7606C82.4985 99.4281 82.0392 100.404 82.6481 100.735Z" fill="black"/>
<path d="M89.7307 98.383C90.9568 99.4467 92.3592 100.089 93.908 100.536C94.5752 100.727 94.7578 99.6637 94.0955 99.4745C92.7326 99.0801 91.5108 98.502 90.4345 97.5671C89.909 97.1106 89.206 97.9289 89.7307 98.383Z" fill="black"/>
<path d="M80.0052 130.579C81.2005 126.578 82.1913 122.522 83.6455 118.6C83.8848 117.953 82.9136 117.484 82.6713 118.137C81.1851 122.147 80.1657 126.298 78.9433 130.394C78.7454 131.058 79.8088 131.24 80.0052 130.579Z" fill="black"/>
<path d="M86.3517 130.258C86.6499 129.152 86.8594 128.027 86.976 126.885C87.0465 126.2 85.9852 126.004 85.9141 126.699C85.7983 127.84 85.5873 128.963 85.2898 130.072C85.1089 130.742 86.1732 130.927 86.3517 130.258Z" fill="black"/>
<path d="M76.4892 81.8697C78.2753 83.1495 80.2603 84.1278 81.9259 85.5732C82.4538 86.0288 83.156 85.2121 82.6298 84.7573C80.9609 83.3103 78.9807 82.3343 77.193 81.0537C76.6317 80.6519 75.9245 81.4663 76.4892 81.8697Z" fill="black"/>
<path d="M106.77 87.809C110.341 87.479 111.508 83.9497 110.418 80.8851C110.186 80.2297 109.169 80.5905 109.403 81.2467C110.254 83.6367 109.56 86.4673 106.678 86.7342C105.984 86.799 106.075 87.8729 106.77 87.809Z" fill="black"/>
<path d="M110.624 66.4586C115.098 65.6102 117.053 62.5827 116.61 58.1219C116.54 57.4303 115.465 57.5204 115.534 58.2137C115.913 62.0253 114.417 64.648 110.531 65.3855C109.855 65.5126 109.94 66.5875 110.624 66.4586Z" fill="black"/>
<path d="M34.5536 85.933C31.0186 85.3568 28.0642 79.5682 30.6982 76.686C31.1693 76.1715 30.3502 75.4701 29.883 75.9806C26.6866 79.4772 30.0301 86.2903 34.3661 86.9941C35.051 87.1065 35.2409 86.0445 34.5536 85.933Z" fill="black"/>
<path d="M39.7389 36.9196C38.1595 35.0493 39.7339 32.048 41.8588 31.4074C42.5269 31.2072 42.1621 30.1903 41.4972 30.392C38.7498 31.2205 36.8281 35.1335 38.8475 37.5271C39.2933 38.0551 40.1879 37.4491 39.7389 36.9196Z" fill="black"/>
<path d="M42.085 103.279C42.0976 106.111 42.9005 108.975 45.1779 110.813C45.7183 111.251 46.4244 110.434 45.8817 109.997C43.8119 108.326 43.1708 105.749 43.1589 103.188C43.1568 102.493 42.0822 102.589 42.085 103.279Z" fill="black"/>
<path d="M96.4662 138.586C99.5828 139.428 102.611 136.772 102.912 133.719C102.981 133.034 101.919 132.84 101.85 133.534C101.603 136.037 99.2358 138.222 96.6536 137.525C95.9818 137.343 95.7992 138.407 96.4662 138.586Z" fill="black"/>
<path d="M70.5445 15.8093C73.2057 16.6292 74.925 18.4603 76.4952 20.6725C76.8983 21.24 77.7881 20.6317 77.3866 20.065C75.6309 17.5897 73.6892 15.6569 70.7327 14.7465C70.0685 14.5446 69.8892 15.6096 70.5445 15.8093Z" fill="black"/>
</svg>
