<svg width="55" height="55" viewBox="0 0 55 55" fill="none" xmlns="http://www.w3.org/2000/svg">
<path d="M13.3992 1.88222L13.3996 1.88211C14.9028 1.47144 16.4702 2.19685 17.1331 3.58716L17.203 3.75494L21.4139 13.8612L21.4141 13.8616C21.9596 15.1692 21.5832 16.677 20.4829 17.5765C20.4829 17.5765 20.4829 17.5765 20.4829 17.5765L15.293 21.819L14.6875 22.3139L15.0219 23.0208C18.6264 30.6412 24.7953 36.8102 32.4157 40.4147L33.1217 40.7486L33.6168 40.1445L37.8698 34.9546L37.8733 34.9502C38.7601 33.8558 40.2755 33.4759 41.5855 34.0225L41.5859 34.0226L51.6921 38.2336L51.6942 38.2344C53.1851 38.8516 53.9801 40.4787 53.5544 42.0369L53.5543 42.0373L51.0285 51.2986C51.0284 51.299 51.0283 51.2993 51.0282 51.2997C50.6413 52.7005 49.3702 53.6701 47.929 53.6701C22.4366 53.6701 1.76648 32.9999 1.76648 7.50757C1.76648 6.06638 2.73598 4.79541 4.13663 4.40838C4.13708 4.40826 4.13753 4.40814 4.13797 4.40801L13.3992 1.88222Z" stroke="#FFE3CA" stroke-width="2"/>
</svg>
