<?xml version="1.0" encoding="UTF-8" standalone="no" ?>
<svg
  id="titleSVG"
  width="100%"
  height="100%"
  viewBox="0 0 530 145"
  version="1.1"
  xmlns="http://www.w3.org/2000/svg"
  xmlns:xlink="http://www.w3.org/1999/xlink"
  xml:space="preserve"
  style="fill-rule:evenodd;clip-rule:evenodd;stroke-linecap:round;stroke-linejoin:round;stroke-miterlimit:1.5;"
><path
    id="d"
    d="M73.895,14.458c0.096,-0.576 0.408,-0.912 0.936,-1.008c0.528,-0.096 1.056,-0.072 1.584,0.072c0.528,0.144 0.96,0.384 1.296,0.72c0.336,0.336 0.456,0.696 0.36,1.08c-1.728,5.664 -4.104,12.456 -7.128,20.376c-3.024,7.92 -6.408,16.344 -10.152,25.272c-3.552,8.448 -7.296,16.92 -11.232,25.416c-3.936,8.496 -7.776,16.44 -11.52,23.832c-0.192,0.384 -0.528,0.6 -1.008,0.648c-0.48,0.048 -0.984,-0.024 -1.512,-0.216c-0.528,-0.192 -0.936,-0.456 -1.224,-0.792c-0.288,-0.336 -0.336,-0.696 -0.144,-1.08c3.744,-7.392 7.56,-15.312 11.448,-23.76c3.888,-8.448 7.608,-16.896 11.16,-25.344c3.072,-7.296 6.096,-14.736 9.072,-22.32c2.976,-7.584 5.664,-15.216 8.064,-22.896Zm39.888,-9.36c2.976,2.496 4.896,5.592 5.76,9.288c0.864,3.696 1.104,7.512 0.72,11.448c-0.384,3.936 -1.2,7.848 -2.448,11.736c-1.248,3.888 -2.544,7.32 -3.888,10.296c-2.688,5.952 -6.12,12.072 -10.296,18.36c-4.176,6.288 -8.928,12.432 -14.256,18.432c-5.328,6 -11.16,11.688 -17.496,17.064c-6.336,5.376 -13.008,10.176 -20.016,14.4c-2.88,1.728 -6,3.384 -9.36,4.968c-3.36,1.584 -6.816,2.952 -10.368,4.104c-3.552,1.152 -7.128,1.992 -10.728,2.52c-3.6,0.528 -7.08,0.6 -10.44,0.216c-3.072,-0.384 -5.712,-1.392 -7.92,-3.024c-2.208,-1.632 -3.216,-4.128 -3.024,-7.488c0.192,-2.592 1.272,-5.568 3.24,-8.928c1.968,-3.36 5.016,-7.152 9.144,-11.376c0.48,-0.288 0.96,-0.288 1.44,0c0.288,0.48 0.288,0.96 0,1.44c-4.032,4.032 -6.984,7.608 -8.856,10.728c-1.872,3.12 -2.904,5.88 -3.096,8.28c-0.096,1.44 0.096,2.664 0.576,3.672c0.48,1.008 1.152,1.848 2.016,2.52c0.864,0.672 1.872,1.2 3.024,1.584c1.152,0.384 2.352,0.624 3.6,0.72c4.32,0.48 9.744,-0.192 16.272,-2.016c6.528,-1.824 13.536,-5.04 21.024,-9.648c8.064,-4.704 15.624,-10.224 22.68,-16.56c7.056,-6.336 13.416,-12.96 19.08,-19.872c5.664,-6.912 10.512,-13.92 14.544,-21.024c4.032,-7.104 7.008,-13.824 8.928,-20.16c0.864,-2.88 1.56,-5.952 2.088,-9.216c0.528,-3.264 0.576,-6.432 0.144,-9.504c-0.432,-3.072 -1.464,-5.88 -3.096,-8.424c-1.632,-2.544 -4.128,-4.488 -7.488,-5.832c-4.896,-1.824 -11.568,-2.064 -20.016,-0.72c-8.448,1.344 -18.96,4.848 -31.536,10.512c-0.576,0.192 -1.008,0 -1.296,-0.576c-0.288,-0.576 -0.144,-1.008 0.432,-1.296c2.112,-0.96 4.776,-2.064 7.992,-3.312c3.216,-1.248 6.672,-2.472 10.368,-3.672c3.696,-1.2 7.536,-2.232 11.52,-3.096c3.984,-0.864 7.872,-1.392 11.664,-1.584c3.792,-0.192 7.368,0.096 10.728,0.864c3.36,0.768 6.24,2.16 8.64,4.176Z"
    style="fill:#fff;stroke-width:50; stroke:transparent;"
  /><path
    id="o"
    d="M131.495,62.698c0.384,-0.576 0.912,-1.008 1.584,-1.296c0.864,-0.48 1.728,-0.672 2.592,-0.576c0.864,0.096 1.488,0.672 1.872,1.728c0.384,0.768 0.504,1.968 0.36,3.6c-0.144,1.632 -0.648,3.792 -1.512,6.48c-0.864,2.592 -1.872,5.04 -3.024,7.344c1.536,0 3.216,-0.552 5.04,-1.656c1.824,-1.104 3.6,-2.4 5.328,-3.888c1.728,-1.488 3.336,-3.024 4.824,-4.608c1.488,-1.584 2.664,-2.904 3.528,-3.96c0.48,-0.48 0.96,-0.504 1.44,-0.072c0.48,0.432 0.48,0.888 0,1.368c-1.056,1.152 -2.4,2.616 -4.032,4.392c-1.632,1.776 -3.432,3.456 -5.4,5.04c-1.968,1.584 -3.96,2.904 -5.976,3.96c-2.016,1.056 -3.936,1.488 -5.76,1.296c-1.056,1.92 -2.376,3.984 -3.96,6.192c-1.584,2.208 -3.288,3.936 -5.112,5.184c-1.248,0.96 -2.52,1.608 -3.816,1.944c-1.296,0.336 -2.496,0.336 -3.6,0c-1.104,-0.336 -2.04,-1.008 -2.808,-2.016c-0.768,-1.008 -1.248,-2.472 -1.44,-4.392c-0.288,-2.208 -0.096,-4.704 0.576,-7.488c0.672,-2.784 1.704,-5.472 3.096,-8.064c1.392,-2.592 3.048,-4.896 4.968,-6.912c1.92,-2.016 3.984,-3.36 6.192,-4.032c0.192,0 0.552,-0.024 1.08,-0.072c0.528,-0.048 1.056,-0.072 1.584,-0.072c0.528,0 1.032,0.024 1.512,0.072c0.48,0.048 0.768,0.216 0.864,0.504Zm-1.296,1.296c-0.864,0.288 -1.824,0.672 -2.88,1.152c-1.728,1.056 -3.336,2.52 -4.824,4.392c-1.488,1.872 -2.76,3.936 -3.816,6.192c-1.056,2.256 -1.824,4.56 -2.304,6.912c-0.48,2.352 -0.576,4.488 -0.288,6.408c0.384,2.592 1.176,3.936 2.376,4.032c1.2,0.096 2.472,-0.384 3.816,-1.44c1.632,-1.344 3.144,-2.952 4.536,-4.824c1.392,-1.872 2.616,-3.72 3.672,-5.544c-1.536,-0.768 -2.568,-1.896 -3.096,-3.384c-0.528,-1.488 -0.72,-3.096 -0.576,-4.824c0.144,-1.728 0.528,-3.408 1.152,-5.04c0.624,-1.632 1.368,-2.976 2.232,-4.032Zm1.152,15.552c0.672,-1.152 1.248,-2.352 1.728,-3.6c0.48,-1.248 0.96,-2.544 1.44,-3.888c0.768,-2.496 1.248,-4.44 1.44,-5.832c0.192,-1.392 0.144,-2.376 -0.144,-2.952c-0.288,-0.672 -0.792,-0.768 -1.512,-0.288c-0.72,0.48 -1.224,0.864 -1.512,1.152c-1.056,0.96 -1.944,2.184 -2.664,3.672c-0.72,1.488 -1.176,3 -1.368,4.536c-0.192,1.536 -0.096,2.976 0.288,4.32c0.384,1.344 1.152,2.304 2.304,2.88Z"
    style="fill:#fff;stroke-width:50; stroke:transparent;"
  /><path
    id="i"
    d="M152.519,64.282c0.288,-0.864 0.696,-1.392 1.224,-1.584c0.528,-0.192 1.032,-0.144 1.512,0.144c0.48,0.288 0.84,0.744 1.08,1.368c0.24,0.624 0.168,1.32 -0.216,2.088c-0.768,1.728 -1.656,3.36 -2.664,4.896c-1.008,1.536 -2.016,3.048 -3.024,4.536c-1.008,1.488 -1.968,3.072 -2.88,4.752c-0.912,1.68 -1.656,3.528 -2.232,5.544c-0.096,0.48 -0.216,1.008 -0.36,1.584c-0.144,0.576 -0.192,1.128 -0.144,1.656c0.048,0.528 0.216,0.912 0.504,1.152c0.288,0.24 0.816,0.216 1.584,-0.072c1.824,-0.576 4.128,-1.896 6.912,-3.96c2.784,-2.064 5.616,-4.368 8.496,-6.912c2.88,-2.544 5.592,-5.088 8.136,-7.632c2.544,-2.544 4.488,-4.536 5.832,-5.976c0.384,-0.48 0.816,-0.504 1.296,-0.072c0.48,0.432 0.48,0.888 0,1.368c-1.536,1.632 -3.576,3.72 -6.12,6.264c-2.544,2.544 -5.232,5.088 -8.064,7.632c-2.832,2.544 -5.664,4.872 -8.496,6.984c-2.832,2.112 -5.304,3.552 -7.416,4.32c-2.784,1.056 -4.752,0.864 -5.904,-0.576c-1.152,-1.44 -1.344,-3.504 -0.576,-6.192c0.576,-2.112 1.392,-4.128 2.448,-6.048c1.056,-1.92 2.16,-3.744 3.312,-5.472c1.152,-1.728 2.256,-3.408 3.312,-5.04c1.056,-1.632 1.872,-3.216 2.448,-4.752Zm4.032,-7.776c0.096,-0.096 0.216,-0.384 0.36,-0.864c0.144,-0.48 0.336,-1.008 0.576,-1.584c0.24,-0.576 0.432,-1.104 0.576,-1.584c0.144,-0.48 0.264,-0.72 0.36,-0.72c0.48,-0.48 1.056,-0.768 1.728,-0.864c0.672,-0.096 1.296,-0.024 1.872,0.216c0.576,0.24 1.056,0.528 1.44,0.864c0.384,0.336 0.528,0.696 0.432,1.08c-0.288,0.768 -0.984,1.68 -2.088,2.736c-1.104,1.056 -1.848,1.728 -2.232,2.016c-0.864,0.672 -1.632,0.768 -2.304,0.288c-0.672,-0.48 -0.912,-1.008 -0.72,-1.584Z"
    style="fill:#fff;stroke-width:50; stroke:transparent;"
  /><path
    id="g"
    d="M210.839,65.866c0.48,-0.384 0.936,-0.312 1.368,0.216c0.432,0.528 0.408,0.984 -0.072,1.368c-2.112,1.632 -4.488,3.504 -7.128,5.616c-2.64,2.112 -5.592,4.416 -8.856,6.912l-1.008,0.72c-1.056,5.28 -2.928,10.968 -5.616,17.064c-2.688,6.096 -5.904,12.024 -9.648,17.784c-3.744,5.76 -7.872,11.04 -12.384,15.84c-4.512,4.8 -9.072,8.496 -13.68,11.088c-1.44,0.768 -2.952,1.392 -4.536,1.872c-1.584,0.48 -3.072,0.6 -4.464,0.36c-1.392,-0.24 -2.52,-0.864 -3.384,-1.872c-0.864,-1.008 -1.296,-2.616 -1.296,-4.824c0,-3.264 0.912,-6.648 2.736,-10.152c1.824,-3.504 4.224,-7.056 7.2,-10.656c2.976,-3.6 6.312,-7.128 10.008,-10.584c3.696,-3.456 7.416,-6.72 11.16,-9.792c3.744,-3.072 7.32,-5.904 10.728,-8.496c3.408,-2.592 6.264,-4.752 8.568,-6.48c0.288,-1.344 0.528,-2.664 0.72,-3.96c0.192,-1.296 0.288,-2.52 0.288,-3.672c0.192,-1.824 0.144,-3.024 -0.144,-3.6c-0.288,-0.576 -0.72,-0.744 -1.296,-0.504c-0.576,0.24 -1.296,0.792 -2.16,1.656c-0.864,0.864 -1.824,1.776 -2.88,2.736c-2.112,1.92 -3.936,3 -5.472,3.24c-1.536,0.24 -2.76,-0.048 -3.672,-0.864c-0.912,-0.816 -1.488,-1.992 -1.728,-3.528c-0.24,-1.536 -0.048,-3.144 0.576,-4.824c0.624,-1.68 1.704,-3.24 3.24,-4.68c1.536,-1.44 3.552,-2.496 6.048,-3.168c1.536,-0.384 3,-0.408 4.392,-0.072c1.392,0.336 2.52,1.224 3.384,2.664c0.192,0.576 0.048,1.008 -0.432,1.296c-0.48,0.384 -0.912,0.288 -1.296,-0.288c-0.48,-0.96 -1.224,-1.416 -2.232,-1.368c-1.008,0.048 -2.04,0.36 -3.096,0.936c-2.496,1.344 -4.32,2.928 -5.472,4.752c-1.152,1.824 -1.728,3.384 -1.728,4.68c0,1.296 0.528,2.064 1.584,2.304c1.056,0.24 2.592,-0.552 4.608,-2.376c2.016,-1.92 3.744,-3.504 5.184,-4.752c1.44,-1.248 2.688,-1.968 3.744,-2.16c1.248,-0.192 2.16,0.312 2.736,1.512c0.576,1.2 0.768,3.384 0.576,6.552c0,0.576 -0.024,1.152 -0.072,1.728c-0.048,0.576 -0.12,1.152 -0.216,1.728c3.072,-2.304 5.88,-4.464 8.424,-6.48c2.544,-2.016 4.776,-3.84 6.696,-5.472Zm-21.024,19.008c-2.208,1.632 -4.896,3.672 -8.064,6.12c-3.168,2.448 -6.528,5.136 -10.08,8.064c-3.552,2.928 -7.104,6.048 -10.656,9.36c-3.552,3.312 -6.72,6.648 -9.504,10.008c-2.784,3.36 -5.064,6.72 -6.84,10.08c-1.776,3.36 -2.664,6.528 -2.664,9.504c0,1.92 0.36,3.192 1.08,3.816c0.72,0.624 1.584,0.888 2.592,0.792c1.008,-0.096 2.112,-0.456 3.312,-1.08c1.2,-0.624 2.28,-1.224 3.24,-1.8c4.128,-2.688 8.16,-6.168 12.096,-10.44c3.936,-4.272 7.56,-8.88 10.872,-13.824c3.312,-4.944 6.24,-10.08 8.784,-15.408c2.544,-5.328 4.488,-10.392 5.832,-15.192Z"
    style="fill:#fff;stroke-width:50; stroke:transparent;"
  /><path
    id="t"
    d="M256.199,44.122c0.096,0.672 -0.168,1.08 -0.792,1.224c-0.624,0.144 -1.032,-0.12 -1.224,-0.792c-0.192,-0.96 -1.608,-1.416 -4.248,-1.368c-2.64,0.048 -5.616,0.36 -8.928,0.936c-3.312,0.576 -6.528,1.2 -9.648,1.872c-3.12,0.672 -5.304,1.152 -6.552,1.44c-1.344,2.304 -2.856,5.112 -4.536,8.424c-1.68,3.312 -3.336,6.72 -4.968,10.224c-1.632,3.504 -3.096,6.96 -4.392,10.368c-1.296,3.408 -2.184,6.408 -2.664,9c-0.192,0.96 -0.336,1.944 -0.432,2.952c-0.096,1.008 -0.024,1.92 0.216,2.736c0.24,0.816 0.72,1.368 1.44,1.656c0.72,0.288 1.752,0.192 3.096,-0.288c2.592,-0.96 5.376,-2.496 8.352,-4.608c2.976,-2.112 5.904,-4.464 8.784,-7.056c2.88,-2.592 5.664,-5.232 8.352,-7.92c2.688,-2.688 5.04,-5.04 7.056,-7.056c0.48,-0.48 0.936,-0.48 1.368,0c0.432,0.48 0.408,0.96 -0.072,1.44c-2.016,2.016 -4.392,4.392 -7.128,7.128c-2.736,2.736 -5.592,5.424 -8.568,8.064c-2.976,2.64 -6,5.04 -9.072,7.2c-3.072,2.16 -5.904,3.72 -8.496,4.68c-3.744,1.344 -6.384,1.032 -7.92,-0.936c-1.536,-1.968 -2.016,-4.728 -1.44,-8.28c0.48,-2.592 1.344,-5.52 2.592,-8.784c1.248,-3.264 2.64,-6.576 4.176,-9.936c1.536,-3.36 3.12,-6.624 4.752,-9.792c1.632,-3.168 3.072,-5.904 4.32,-8.208c-1.056,0.192 -2.4,0.384 -4.032,0.576c-1.632,0.192 -3.312,0.336 -5.04,0.432c-1.728,0.096 -3.384,0.12 -4.968,0.072c-1.584,-0.048 -2.856,-0.312 -3.816,-0.792c-1.248,-0.576 -2.016,-1.392 -2.304,-2.448c-0.288,-1.056 -0.048,-2.496 0.72,-4.32c1.152,-2.496 3.12,-4.68 5.904,-6.552c2.784,-1.872 5.472,-3.144 8.064,-3.816c0.96,-0.288 1.992,-0.456 3.096,-0.504c1.104,-0.048 2.088,0.072 2.952,0.36c0.864,0.288 1.512,0.792 1.944,1.512c0.432,0.72 0.504,1.8 0.216,3.24c-0.192,0.672 -0.6,0.912 -1.224,0.72c-0.624,-0.192 -0.84,-0.576 -0.648,-1.152c0.192,-0.96 0.096,-1.632 -0.288,-2.016c-0.384,-0.384 -0.888,-0.624 -1.512,-0.72c-0.624,-0.096 -1.32,-0.072 -2.088,0.072c-0.768,0.144 -1.44,0.264 -2.016,0.36c-2.4,0.672 -4.848,1.848 -7.344,3.528c-2.496,1.68 -4.272,3.624 -5.328,5.832c-0.96,2.208 -0.768,3.6 0.576,4.176c0.864,0.384 2.16,0.576 3.888,0.576c1.728,0 3.528,-0.12 5.4,-0.36c1.872,-0.24 3.648,-0.504 5.328,-0.792c1.68,-0.288 3,-0.528 3.96,-0.72c0.672,-1.152 1.32,-2.28 1.944,-3.384c0.624,-1.104 1.272,-2.232 1.944,-3.384c0.288,-0.384 0.696,-0.6 1.224,-0.648c0.528,-0.048 1.032,0.024 1.512,0.216c0.48,0.192 0.864,0.456 1.152,0.792c0.288,0.336 0.288,0.696 0,1.08c-0.48,0.768 -0.888,1.488 -1.224,2.16c-0.336,0.672 -0.744,1.344 -1.224,2.016c1.248,-0.288 3.432,-0.768 6.552,-1.44c3.12,-0.672 6.336,-1.2 9.648,-1.584c3.312,-0.384 6.312,-0.432 9,-0.144c2.688,0.288 4.224,1.2 4.608,2.736Z"
    style="fill:#fff;stroke-width:50; stroke:transparent;"
  /><path
    id="s"
    d="M250.295,73.066c-0.48,0.48 -0.936,0.504 -1.368,0.072c-0.432,-0.432 -0.408,-0.888 0.072,-1.368c1.632,-1.632 2.904,-3.024 3.816,-4.176c0.912,-1.152 1.56,-2.112 1.944,-2.88c0.384,-0.864 0.168,-1.392 -0.648,-1.584c-0.816,-0.192 -1.776,0.168 -2.88,1.08c-1.104,0.912 -2.064,2.424 -2.88,4.536c-0.816,2.112 -1.032,4.992 -0.648,8.64c0.096,0.48 0.144,0.912 0.144,1.296c0,0.384 0.048,0.768 0.144,1.152c3.168,-1.632 6.48,-3.552 9.936,-5.76c3.456,-2.208 6.48,-4.944 9.072,-8.208c0.48,-0.48 0.96,-0.528 1.44,-0.144c0.48,0.384 0.528,0.816 0.144,1.296c-2.784,3.456 -5.952,6.312 -9.504,8.568c-3.552,2.256 -7.2,4.392 -10.944,6.408c0,1.824 -0.192,3.624 -0.576,5.4c-0.384,1.776 -1.248,3.528 -2.592,5.256c-1.056,1.248 -2.208,2.064 -3.456,2.448c-1.248,0.384 -2.376,0.432 -3.384,0.144c-1.008,-0.288 -1.8,-0.912 -2.376,-1.872c-0.576,-0.96 -0.624,-2.16 -0.144,-3.6c0.384,-1.536 1.296,-2.88 2.736,-4.032c1.44,-1.152 3.216,-2.352 5.328,-3.6c0,-0.768 -0.024,-1.512 -0.072,-2.232c-0.048,-0.72 -0.12,-1.464 -0.216,-2.232c-0.384,-3.264 -0.288,-6.024 0.288,-8.28c0.576,-2.256 1.392,-4.032 2.448,-5.328c1.056,-1.296 2.256,-2.208 3.6,-2.736c1.344,-0.528 2.568,-0.744 3.672,-0.648c1.104,0.096 2.016,0.456 2.736,1.08c0.72,0.624 0.984,1.368 0.792,2.232c-0.192,0.864 -0.792,2.04 -1.8,3.528c-1.008,1.488 -2.616,3.336 -4.824,5.544Zm-9.36,18.432c0.864,-1.152 1.488,-2.304 1.872,-3.456c0.384,-1.152 0.672,-2.352 0.864,-3.6c-1.632,0.96 -3,1.896 -4.104,2.808c-1.104,0.912 -1.8,1.896 -2.088,2.952c-0.48,1.536 -0.288,2.472 0.576,2.808c0.864,0.336 1.824,-0.168 2.88,-1.512Z"
    style="fill:#fff;stroke-width:50; stroke:transparent;"
  /><path
    id="d2"
    d="M345.335,65.866c0.48,-0.48 0.96,-0.504 1.44,-0.072c0.48,0.432 0.48,0.888 0,1.368c-6.72,7.488 -12.384,13.32 -16.992,17.496c-4.608,4.176 -8.208,6.84 -10.8,7.992c-2.208,1.056 -3.984,1.44 -5.328,1.152c-1.344,-0.288 -2.376,-0.96 -3.096,-2.016c-0.72,-1.056 -1.128,-2.4 -1.224,-4.032c-0.096,-1.632 0.048,-3.312 0.432,-5.04c0.384,-1.728 0.864,-3.624 1.44,-5.688c0.576,-2.064 1.248,-4.2 2.016,-6.408c-1.152,1.536 -2.304,2.952 -3.456,4.248c-1.152,1.296 -2.16,2.376 -3.024,3.24c-3.84,3.552 -6.768,5.28 -8.784,5.184c-2.016,-0.096 -3.192,-1.104 -3.528,-3.024c-0.336,-1.92 0.144,-4.272 1.44,-7.056c1.296,-2.784 3.384,-5.088 6.264,-6.912c1.248,-0.768 2.472,-1.32 3.672,-1.656c1.2,-0.336 2.256,-0.408 3.168,-0.216c0.912,0.192 1.608,0.72 2.088,1.584c0.48,0.864 0.672,2.064 0.576,3.6c0.672,-0.864 1.32,-1.728 1.944,-2.592c0.624,-0.864 1.272,-1.68 1.944,-2.448c1.536,-3.936 3.312,-8.208 5.328,-12.816c2.016,-4.608 4.128,-9.192 6.336,-13.752c2.208,-4.56 4.56,-8.952 7.056,-13.176c2.496,-4.224 5.04,-7.92 7.632,-11.088c3.168,-3.936 5.376,-5.304 6.624,-4.104c1.248,1.2 1.104,4.008 -0.432,8.424c-1.152,3.36 -2.736,6.792 -4.752,10.296c-2.016,3.504 -4.176,6.984 -6.48,10.44c-2.304,3.456 -4.68,6.792 -7.128,10.008c-2.448,3.216 -4.728,6.264 -6.84,9.144c-1.824,4.224 -3.456,8.28 -4.896,12.168c-1.44,3.888 -2.544,7.368 -3.312,10.44c-0.192,0.864 -0.432,2.016 -0.72,3.456c-0.288,1.44 -0.408,2.808 -0.36,4.104c0.048,1.296 0.408,2.28 1.08,2.952c0.672,0.672 1.872,0.624 3.6,-0.144c2.496,-1.152 5.976,-3.744 10.44,-7.776c4.464,-4.032 10.008,-9.792 16.632,-17.28Zm-18.72,-16.272c1.728,-2.4 3.528,-4.896 5.4,-7.488c1.872,-2.592 3.696,-5.256 5.472,-7.992c1.776,-2.736 3.408,-5.496 4.896,-8.28c1.488,-2.784 2.76,-5.568 3.816,-8.352c1.056,-2.784 1.416,-4.128 1.08,-4.032c-0.336,0.096 -1.272,1.2 -2.808,3.312c-3.36,4.704 -6.552,10.032 -9.576,15.984c-3.024,5.952 -5.784,11.568 -8.28,16.848Zm-21.312,27.072c1.152,-0.96 2.256,-2.112 3.312,-3.456c0.864,-1.92 1.32,-3.384 1.368,-4.392c0.048,-1.008 -0.168,-1.656 -0.648,-1.944c-0.48,-0.288 -1.128,-0.24 -1.944,0.144c-0.816,0.384 -1.704,0.912 -2.664,1.584c-0.576,0.48 -1.272,1.176 -2.088,2.088c-0.816,0.912 -1.608,1.944 -2.376,3.096c-0.768,1.152 -1.344,2.28 -1.728,3.384c-0.384,1.104 -0.432,2.04 -0.144,2.808c0.288,0.576 0.984,0.648 2.088,0.216c1.104,-0.432 2.712,-1.608 4.824,-3.528Z"
    style="fill:#fff;stroke-width:50; stroke:transparent;"
  /><path
    id="e"
    d="M346.919,70.474c2.496,-1.536 4.488,-2.976 5.976,-4.32c1.488,-1.344 2.472,-2.544 2.952,-3.6c0.384,-0.768 0.456,-1.176 0.216,-1.224c-0.24,-0.048 -0.6,0.072 -1.08,0.36c-0.48,0.288 -0.984,0.648 -1.512,1.08c-0.528,0.432 -0.888,0.696 -1.08,0.792c-1.056,0.864 -2.04,1.896 -2.952,3.096c-0.912,1.2 -1.752,2.472 -2.52,3.816Zm10.656,-7.056c-0.672,1.344 -1.992,2.904 -3.96,4.68c-1.968,1.776 -4.776,3.576 -8.424,5.4c-0.48,0.96 -0.984,2.088 -1.512,3.384c-0.528,1.296 -0.984,2.64 -1.368,4.032c-0.384,1.392 -0.624,2.784 -0.72,4.176c-0.096,1.392 0,2.616 0.288,3.672c0.288,1.152 0.84,1.944 1.656,2.376c0.816,0.432 1.728,0.6 2.736,0.504c1.008,-0.096 2.04,-0.312 3.096,-0.648c1.056,-0.336 1.968,-0.696 2.736,-1.08c2.88,-1.344 5.784,-2.952 8.712,-4.824c2.928,-1.872 5.784,-3.888 8.568,-6.048c2.784,-2.16 5.52,-4.368 8.208,-6.624c2.688,-2.256 5.28,-4.44 7.776,-6.552c0.48,-0.48 0.936,-0.48 1.368,0c0.432,0.48 0.408,0.96 -0.072,1.44c-2.496,2.208 -5.112,4.44 -7.848,6.696c-2.736,2.256 -5.52,4.464 -8.352,6.624c-2.832,2.16 -5.736,4.2 -8.712,6.12c-2.976,1.92 -5.952,3.552 -8.928,4.896c-1.344,0.672 -2.832,1.224 -4.464,1.656c-1.632,0.432 -3.192,0.576 -4.68,0.432c-1.488,-0.144 -2.784,-0.648 -3.888,-1.512c-1.104,-0.864 -1.8,-2.304 -2.088,-4.32c-0.384,-2.304 -0.144,-4.992 0.72,-8.064c0.864,-3.072 2.088,-6.072 3.672,-9c1.584,-2.928 3.408,-5.496 5.472,-7.704c2.064,-2.208 4.104,-3.552 6.12,-4.032c1.632,-0.384 2.904,-0.168 3.816,0.648c0.912,0.816 0.936,2.04 0.072,3.672Z"
    style="fill:#fff;stroke-width:50; stroke:transparent;"
  /><path
    id="f"
    d="M424.535,66.73c-0.192,0.192 -0.72,1.272 -1.584,3.24c-0.864,1.968 -1.8,4.152 -2.808,6.552c-1.008,2.4 -1.968,4.68 -2.88,6.84c-0.912,2.16 -1.512,3.528 -1.8,4.104c2.688,-1.152 5.424,-2.568 8.208,-4.248c2.784,-1.68 5.544,-3.48 8.28,-5.4c2.736,-1.92 5.352,-3.912 7.848,-5.976c2.496,-2.064 4.8,-4.056 6.912,-5.976c0.48,-0.48 0.936,-0.48 1.368,0c0.432,0.48 0.408,0.96 -0.072,1.44c-2.208,2.016 -4.656,4.128 -7.344,6.336c-2.688,2.208 -5.496,4.344 -8.424,6.408c-2.928,2.064 -5.88,3.96 -8.856,5.688c-2.976,1.728 -5.856,3.072 -8.64,4.032c-0.096,2.592 -0.552,6 -1.368,10.224c-0.816,4.224 -1.776,8.592 -2.88,13.104c-1.104,4.512 -2.304,8.832 -3.6,12.96c-1.296,4.128 -2.472,7.392 -3.528,9.792c-0.768,1.632 -1.536,2.856 -2.304,3.672c-0.768,0.816 -1.488,1.2 -2.16,1.152c-0.672,-0.048 -1.2,-0.6 -1.584,-1.656c-0.384,-1.056 -0.528,-2.736 -0.432,-5.04c0.096,-2.88 0.672,-6.384 1.728,-10.512c1.056,-4.128 2.28,-8.328 3.672,-12.6c1.392,-4.272 2.808,-8.304 4.248,-12.096c1.44,-3.792 2.544,-6.696 3.312,-8.712c-0.768,-0.672 -0.864,-1.488 -0.288,-2.448c0.576,-0.96 1.248,-1.584 2.016,-1.872c1.728,-4.224 3.72,-8.928 5.976,-14.112c2.256,-5.184 4.68,-10.368 7.272,-15.552c2.592,-5.184 5.328,-10.152 8.208,-14.904c2.88,-4.752 5.76,-8.76 8.64,-12.024c1.248,-1.344 2.52,-2.376 3.816,-3.096c1.296,-0.72 2.376,-1.008 3.24,-0.864c0.864,0.144 1.44,0.696 1.728,1.656c0.288,0.96 0,2.4 -0.864,4.32c-0.576,1.344 -1.44,3 -2.592,4.968c-1.152,1.968 -2.472,4.08 -3.96,6.336c-1.488,2.256 -3.072,4.608 -4.752,7.056c-1.68,2.448 -3.36,4.752 -5.04,6.912c-1.68,2.16 -3.288,4.152 -4.824,5.976c-1.536,1.824 -2.832,3.264 -3.888,4.32Zm3.168,-6.48c1.536,-2.016 3.264,-4.248 5.184,-6.696c1.92,-2.448 3.792,-4.968 5.616,-7.56c1.824,-2.592 3.528,-5.184 5.112,-7.776c1.584,-2.592 2.856,-4.992 3.816,-7.2c0.864,-2.112 1.104,-3.096 0.72,-2.952c-0.384,0.144 -1.248,0.936 -2.592,2.376c-2.592,2.976 -5.448,7.056 -8.568,12.24c-3.12,5.184 -6.216,11.04 -9.288,17.568Zm-15.696,36.144c-2.496,6.528 -4.656,12.672 -6.48,18.432c-1.824,5.76 -3.12,10.752 -3.888,14.976c-0.288,1.344 -0.528,2.568 -0.72,3.672c-0.192,1.104 -0.288,1.92 -0.288,2.448c0,0.528 0.072,0.72 0.216,0.576c0.144,-0.144 0.456,-0.792 0.936,-1.944c2.4,-5.76 4.44,-12.024 6.12,-18.792c1.68,-6.768 3.048,-13.224 4.104,-19.368Z"
    style="fill:#fff;stroke-width:50; stroke:transparent;"
  /><path
    id="e2"
    d="M447.287,71.77c2.496,-1.536 4.488,-2.976 5.976,-4.32c1.488,-1.344 2.472,-2.544 2.952,-3.6c0.384,-0.768 0.456,-1.176 0.216,-1.224c-0.24,-0.048 -0.6,0.072 -1.08,0.36c-0.48,0.288 -0.984,0.648 -1.512,1.08c-0.528,0.432 -0.888,0.696 -1.08,0.792c-1.056,0.864 -2.04,1.896 -2.952,3.096c-0.912,1.2 -1.752,2.472 -2.52,3.816Zm10.656,-7.056c-0.672,1.344 -1.992,2.904 -3.96,4.68c-1.968,1.776 -4.776,3.576 -8.424,5.4c-0.48,0.96 -0.984,2.088 -1.512,3.384c-0.528,1.296 -0.984,2.64 -1.368,4.032c-0.384,1.392 -0.624,2.784 -0.72,4.176c-0.096,1.392 0,2.616 0.288,3.672c0.288,1.152 0.84,1.944 1.656,2.376c0.816,0.432 1.728,0.6 2.736,0.504c1.008,-0.096 2.04,-0.312 3.096,-0.648c1.056,-0.336 1.968,-0.696 2.736,-1.08c2.88,-1.344 5.88,-3.024 9,-5.04c3.12,-2.016 6.192,-4.176 9.216,-6.48c3.024,-2.304 5.976,-4.656 8.856,-7.056c2.88,-2.4 5.568,-4.656 8.064,-6.768c0.48,-0.48 0.936,-0.48 1.368,0c0.432,0.48 0.408,0.96 -0.072,1.44c-2.496,2.208 -5.208,4.512 -8.136,6.912c-2.928,2.4 -5.928,4.752 -9,7.056c-3.072,2.304 -6.192,4.488 -9.36,6.552c-3.168,2.064 -6.24,3.768 -9.216,5.112c-1.344,0.672 -2.832,1.224 -4.464,1.656c-1.632,0.432 -3.192,0.576 -4.68,0.432c-1.488,-0.144 -2.784,-0.648 -3.888,-1.512c-1.104,-0.864 -1.8,-2.304 -2.088,-4.32c-0.384,-2.304 -0.144,-4.992 0.72,-8.064c0.864,-3.072 2.088,-6.072 3.672,-9c1.584,-2.928 3.408,-5.496 5.472,-7.704c2.064,-2.208 4.104,-3.552 6.12,-4.032c1.632,-0.384 2.904,-0.168 3.816,0.648c0.912,0.816 0.936,2.04 0.072,3.672Zm-6.192,-9.504c0.096,-0.192 0.432,-0.648 1.008,-1.368c0.576,-0.72 1.2,-1.56 1.872,-2.52c0.768,-1.056 1.584,-2.256 2.448,-3.6c0.384,-0.192 0.768,-0.288 1.152,-0.288c0.768,0 0.912,0.336 0.432,1.008c-0.192,0.288 -0.528,0.816 -1.008,1.584c-0.48,0.768 -0.984,1.56 -1.512,2.376c-0.528,0.816 -1.056,1.56 -1.584,2.232c-0.528,0.672 -0.936,1.152 -1.224,1.44c-0.672,0.672 -1.128,0.744 -1.368,0.216c-0.24,-0.528 -0.312,-0.888 -0.216,-1.08Z"
    style="fill:#fff;stroke-width:50; stroke:transparent;"
  /><path
    id="e3"
    d="M489.191,70.474c2.496,-1.536 4.488,-2.976 5.976,-4.32c1.488,-1.344 2.472,-2.544 2.952,-3.6c0.384,-0.768 0.456,-1.176 0.216,-1.224c-0.24,-0.048 -0.6,0.072 -1.08,0.36c-0.48,0.288 -0.984,0.648 -1.512,1.08c-0.528,0.432 -0.888,0.696 -1.08,0.792c-1.056,0.864 -2.04,1.896 -2.952,3.096c-0.912,1.2 -1.752,2.472 -2.52,3.816Zm10.656,-7.056c-0.672,1.344 -1.992,2.904 -3.96,4.68c-1.968,1.776 -4.776,3.576 -8.424,5.4c-0.48,0.96 -0.984,2.088 -1.512,3.384c-0.528,1.296 -0.984,2.64 -1.368,4.032c-0.384,1.392 -0.624,2.784 -0.72,4.176c-0.096,1.392 0,2.616 0.288,3.672c0.288,1.152 0.84,1.944 1.656,2.376c0.816,0.432 1.728,0.6 2.736,0.504c1.008,-0.096 2.04,-0.312 3.096,-0.648c1.056,-0.336 1.968,-0.696 2.736,-1.08c2.88,-1.344 5.784,-2.952 8.712,-4.824c2.928,-1.872 5.784,-3.888 8.568,-6.048c2.784,-2.16 5.52,-4.368 8.208,-6.624c2.688,-2.256 5.28,-4.44 7.776,-6.552c0.48,-0.48 0.936,-0.48 1.368,0c0.432,0.48 0.408,0.96 -0.072,1.44c-2.496,2.208 -5.112,4.44 -7.848,6.696c-2.736,2.256 -5.52,4.464 -8.352,6.624c-2.832,2.16 -5.736,4.2 -8.712,6.12c-2.976,1.92 -5.952,3.552 -8.928,4.896c-1.344,0.672 -2.832,1.224 -4.464,1.656c-1.632,0.432 -3.192,0.576 -4.68,0.432c-1.488,-0.144 -2.784,-0.648 -3.888,-1.512c-1.104,-0.864 -1.8,-2.304 -2.088,-4.32c-0.384,-2.304 -0.144,-4.992 0.72,-8.064c0.864,-3.072 2.088,-6.072 3.672,-9c1.584,-2.928 3.408,-5.496 5.472,-7.704c2.064,-2.208 4.104,-3.552 6.12,-4.032c1.632,-0.384 2.904,-0.168 3.816,0.648c0.912,0.816 0.936,2.04 0.072,3.672Z"
    style="fill:#fff;stroke-width:50; stroke:transparent;"
  />
  
  </svg>
